<mxfile host="app.diagrams.net" modified="2024-06-21T09:16:04.571Z" agent="Mozilla/5.0 (Macintosh; Intel Mac OS X 10_15_7) AppleWebKit/537.36 (KHTML, like Gecko) Chrome/126.0.0.0 Safari/537.36" etag="fWKIBN9oI4upBxXqxjGD" version="21.6.8" type="github">
  <diagram name="Page-1" id="ArXxn-LU1lcl3-tvuxBE">
    <mxGraphModel dx="1134" dy="-102" grid="1" gridSize="10" guides="1" tooltips="1" connect="1" arrows="1" fold="1" page="1" pageScale="1" pageWidth="827" pageHeight="1169" math="0" shadow="0">
      <root>
        <mxCell id="0" />
        <mxCell id="1" parent="0" />
        <mxCell id="m0vxA2j5YAPPKQ0M331e-4" style="edgeStyle=orthogonalEdgeStyle;rounded=0;orthogonalLoop=1;jettySize=auto;html=1;" parent="1" source="m0vxA2j5YAPPKQ0M331e-1" edge="1">
          <mxGeometry relative="1" as="geometry">
            <mxPoint x="1070" y="1734.5" as="sourcePoint" />
            <mxPoint x="1190" y="1735" as="targetPoint" />
          </mxGeometry>
        </mxCell>
        <mxCell id="m0vxA2j5YAPPKQ0M331e-8" style="edgeStyle=orthogonalEdgeStyle;rounded=0;orthogonalLoop=1;jettySize=auto;html=1;entryX=1;entryY=0.5;entryDx=0;entryDy=0;" parent="1" source="m0vxA2j5YAPPKQ0M331e-1" target="m0vxA2j5YAPPKQ0M331e-7" edge="1">
          <mxGeometry relative="1" as="geometry">
            <mxPoint x="1010" y="1734.5" as="sourcePoint" />
            <mxPoint x="870" y="1734.5" as="targetPoint" />
          </mxGeometry>
        </mxCell>
        <mxCell id="m0vxA2j5YAPPKQ0M331e-1" value="" style="shape=image;verticalLabelPosition=bottom;labelBackgroundColor=default;verticalAlign=top;aspect=fixed;imageAspect=0;image=data:image/webp,UklGRhalAABXRUJQVlA4TAqlAAAvz8fzEd8HObbtts17AJTVmftfe5uzDZIg/r9tQIwkyZFSPf+P1mCAdBaHcAUDtOa12p1piI0kKZKyZuHYnPffivfgmBl2t7vg2La1PDlRHB7uEE8q3EodQXoWQ8hYWAyB0q3W3rV0i1/cIQRk5b+MBKLw0SGboYPCoiMKHw1IkJCMhGRZc2sMkngEy4GEEhRmJZlFwjJSFF1UokSAQI+ueHQpJ/KSxIB2JMNYxYYx7xRGiugGpygpC9++NSQXDl+UoWxb22fbIkEGCiHAxiCBz2IfkECyhHk0CZYUlqW8hY9kWOUpZGUglaVK9dNDetfWvbc+2Revet/r5Xrg0mPN/xo4U7ndchJqbprOfUY2fxyHzU6pUdIoXjA6Dho1dTzjctXgwyS3il89qzCycpETG5/6MizNg68mYWZAcBFAaHiFVDiGdncdQ6+TwfBd4DZxctJFN3628r0QmU6y/7Ap79+7z0LoksPDVehXV+l8/1S0bf8ZUxWAkpt+9YdBmY39X/O2ji8xDOfwRbfIIwGpmrmpzAzDbwh/fFHp8yiYGZpZ20JD3RGiUnX12LBO69J53y8ZU9WcaTBjaiPTBuPCU0RpMFv65NMNdXvm9+icTPfROf3KanHoTQIGGSQh2TIAUoLDcCGQsLBUgn+ZRyyVCsXQmtZ5AqIIJMnaqMGYwACr1FR6TpiiUjmNr2iuaZ8LBBbYh3OJSMk8CiRVovLCisTREzvG5WCMY3IbB38vHX/PHctPzxgH6zj+x2RwjEmwfPX8f/Ro3FJV574nt6rnxXImnqa/j4f/X5frrPn6O619be7jM/thrKZ1+CRHLw5arP89tiNf/9ff78nN+TO5O/8Wz/TsQ+3T+/Z/tO6sL9+xt++D8+HhDyspbtvGkbL/1rlevxExAXhSitLcxPZO+8CYF7OygBVbG9rHWRkaxZ2IoOjAUtWhbfMdjDiXPEVxa2qMujQ//v9my0lsxYwQqAoJmAkqCVFSoSojIbRUOkVCkjZTTwydoOR0ekLJVeCAijL5whgV44A4Iqg9AJ5Agj16RpniwXsP9uTp0PPoVbobiaB98bZ/1rjXs57f9/fs53lyb+2hdu2hdq29a++qWrXW2rUj+q+BttWwra1tgw4SAnTH9/d/TR0LyW6ajIFL/v+4jSTdrJ97lrusF6kDzHvvna7es/1eywnmBuvTnMEpyxL5/SOVGfgHApkCBYIGC21XBjkMBBHRf1mQbYVtc7AiCT2ROs2MZATvPRDKh2/X2h65zbYNVtg9m6t3vm9n3lEJorMJb4ENaunOOd/745xa3IAgU5DutarjOK6rSuzrotZ4+lQTRdw0T9i8KaILTSmi/5Jo24kbSa62jRDi4401YOyeNpNOOaf/3384/3H+4/zH+Y/zH+c/zn+c/zj/cf7j/Mf5j/Mf5z/Of5z/OP9x/uP8x/mP8x/nP85/nP84/3H+4/zH+Y/zH+c/zn+c/zj/cf7j/Mf5j/Mf5z/Of5z/OP9x/uP8x/mP8x/nP85/nP84/3H+4/zH+Y/zH+c/zn+c/zj/cf7j/Mf5j/Mf5z/Of5z/OP9x/uP8x/mP8x/nP85//j82sKsL7dzRK9W70KnN2F33y9u3jW3Jbd400p7duKFabftJMdTxH5jIZi8bGcnlto4VOh9hnNL7M395rJSLRtoT1WIgF1UT2aGRXGms7NdPif35vzxW6vLYISBCxUR2JCoVyqeePqKol8dyI0OxHgAg9Igiyp0C+oCiXhiLRhLVAAol2kc6Rsmcenk8v1AaGaoGyKjYPnSKZLiOeFHv8cCFGymV/VMXfUcSxQA0JYZyBf+USV+wxwhO+Tvyn/HHovZiwAtVs6fqHSLIlEsj1YAtKrZHp9SZZgqloR5teTOtn2p3NIBF06FcOXOqGvxOW6YpMTLmn3J2ZD/G0+24PUBQKp8qNgtubKQaKAO1n/J10L9cGioGykHt0SlaXZlyqadD+0rSpa22/VRPfQrTVbTUJsHHA/g/N29p2qkqXGefatGPX6ZBK2Xuj40UA1Wjn5RVH12ojxJBb3Qqd9h6DAf31S3s0lRQutVAKcnXv6memJjjqt8Rf6UTUa5Be6Z+fRdaEysVOuknwM2f+7IM2iZ3fwRG3C6PFlanVnit2WxLU35eB50pkpLJZD6fb8lmPS+V6vIIA0nXvDQll7tfKHQ+buh81NDxkEFKSp6Xz2ezXmpNvjB+Ktx5efVSe0CRxgv51EqvdZHDhw7SPqjo9pDi1DTFjho1TeHiVKo1G/uDB6KPKArjp44pylGV1FGA1mw66YOiZLolS2+UeRn0SUyRzOOH5IJ5PkhKNrV4a/KEwn35qaaKGV+fSsVyHABquAKZ+fAKKqaQT40m5/kcUMez+iQOEvxYm/ooeCexpjA62uuhADZcC6cunZVXryXkPRbQqy8/ri2p/PgpR0/hZ7a2S/r8fKsrp9nBfj5f6qfzf/zSTvnRjOdTrT378mmalde0/RSKqXPloaJ8tjGfasfpEYJxSReLKZ8icRo95aMB7D2XL+VIY6c4jJSRK49sIdWa9lWDmrIyHiA4hcE8U5ZIM573mub5qkLpjmfyT4kxL0dFqQ4HKA8lW1IF6cxPUTmPvtDjs/TK3VUdy5xqch59oceT5xWqqzVVOOVkLnymVpSjb1HSVzZKS3VuXvuY/W/fLsuxfeWjjonxMp2Td0qH/XheQJ+KP40/Uj9Vwz7vNfmqSelWWcK2l0+9sB9PCYurZGfmjUsS2ra3lyCu2lI+VZCicrk1HzpTSkgZNz454j9SP+Uh/Vwh1eQrNCWlUIyUT2WInfcW+F0ozlIkxk5ROPfOjflwKjl9btz9U/JOOYg93qlRe3JfUR2rn0IQe3zt4nlnxgPUmnf/JPtTA2KPl52kg4+/nsMfsccr9VrRdf+4UTFSt/ljF3t4rj7+UBTs/sp2t2qdmjiG0qvX2/qVjFux854YjfKfaO9uxa6vjY/GknkubhnJsq/sHCm6qomXFKmCPV8pt5N4sj7Omw0/Urfda+PeQj8+o6RXsN4rY27Uiv1NfjxHLWts9kqmVg3E09qVPR7fj7fNR+r2+an046titY+fn8EfqdvltX7n9vHwafbVWt0arxXX9WgfL5q7VRmzw2tv8JJ+PEr5lFsV+7u2pnf7uD90dczqro2P9jrHXQ+Ebt9lEddcnxYXn4Ze49Ip9pZwze3Y8WxolyoWcE3q2HF5cptqza6ueTHF1g9P4FfHrOlaf3OD30FapLLT1q3J8nR9XHxKnhU9xlhVcAK6csw1jXFKXi1j2a6rXhV98t1cP+6nZMpqHqPc7srJd1qmstNmrumCipU8Rn1E8FIvXU+l1ziVtppdfDL92q413VCxi8cQXVt8pp6gZMoedtpRdaGmiyq1jKV6+p0LNa1RsX+d6iMu1DRTZahunZ5+J76moSo1Wzen7BuW+B2kpyrVMXt0EALz3LXJCjEjVqhTRugg46Nu1+L0VVxt27Q2taL4jLK6q1LdZc3OdC+OJn1tQ17BlnWqCx1kXejrHEqmrNgxM0K98l02F6nRKiN1y9Wr655n9E+lYLeOWW93e6K7rjkhz2IdU6TXuNfgayTyxFZqdqpX1Ovpd3ptjGrZljz/7nIXT7/TRGNYp2NuFei1dpGvp6i1YJVOmau3u5hTViuNYZEqa0X3BtFOY1iiyh1VdwbRVk4WqDJzuUsz3bWgU3XMUtS6s+CL5nKyOpWZIXe8NJiTvancXnTFS485iVVamZPjevbSZU55G1NZEqft79FLTzqN1O1K7fhKv3fSj2NWyzaldl3o6ztqEqncbE1qY7nL/dpyzGrditQWxeeI13vLvdVsvrnuws+/033KS6xHZbno3vl3+nPMYslqzBLfH/r6kFoLFuOMuXJV3HWw+V1IvyqrY5YdLhc+OU7LKiOrbnZcQnSSeG2rtOesSm2itRpXWbPkRmsXrdW7yqFdVtxoorW6V1ndbr/NjhOt1cHKmu02mmit3lQOCxzM/htt3K257vpyhxVtY7bfDZjpF6rVpYu9RRk77VW3IGq04uiZGpWS620+q5Kwa2HrtoSbflaWbL0lWVe5tr66Dt0yzUjGxjN7w+IzNSwlUzaeVUn87DjdajVs21llRlyaHaelBxvJ2HRm5QVn6lzybDqrrW0MjFavzzo9nR4cbNQZ3CJOWbLk8sS/AdgdG5l52sS0qd1o8nVnzanonyx1mzM2XJ74/hCWJpdL9UpTqmc3nsJntUOQWXGVj4nOmJ5LxUjfPUdXVM5bb73lka+JMluAqpZyQt8d0D1T4Gu2Vio66JPdZ/RmEUOYcxo0j1XCxrKqV6Gv+tJZc8q/oiuskgVr7QJYtxehm+VSIui1mVPrrGqicteEwEsq9WvaZ9hNu+2zGKt86CU1+VeBOdQbM5XB2cG5QbAwCJYsnji/f8K/oHda5vd30ETnf16nfrBSyWQUe9jqLosqBvZF3HoYUoBDEQoyg7XZtdFgcf9A38BAc/FCd6hY7Osb6Ovv7/K4ojLYoL45bdq2W1Oz3bHnrhlLCaTrzgHw83+tNlpb7PcNNC+/UD4qDvT1nd8/Z7aaPaLwxIWwyBZlXVn34emgBeh8+DCxuK9YDIlQdWCg6wOKjILmkb9styV2hYttE74PTifM5lfIPX7I1EYXDww0h2Rp4IL+pZ3HCdRywtwuK+w+zFwMbE3W4ZRg+m6FTLy5tdrivo6D+SCo2BEuMbvSoDwT5sSFsJziw9//zEzRSBFwCWulJQNO45E+SjC7w9VqD1FuEzY9DhhywnGdzGLu6OiigeUX4qO+vsHE7FnKMmHO9lq6dSsDV8Q2nBJPvyrp6fKjEx2+UKna15+YXbHOQ1wuMAa+ttggsn33zHRMe+v5qD5g00HVqKy2uF4wO7vbhWWWxYYxFzD5tXId1+/ZFrppo4qF2GohxRcYA1yPC/QrUpyIVq/VFhdDTmjggsTsikKEsLPC76yKmu0OEeSMM12OBnBE1aWDqnDSfVJgShvralXW9aM+PqRStJr10dHF1ZA36utPKEHXavsqfElsDHSerjRdm8/e4+EABrv4D2Fb8U8JSxTPFb7rwllnmQXlYsgrLe8b5P55/JZLrKocdZsEFd9nC9edI7pvYnnIMzUP8n6+/TyLKvzujWJ+4Fl8JmNI/ZrIvsXVkHca6J9TsZ55l5ghCyWfNfyqqFnt5dj72D3kz3fY1eJGtH2KqPi8odjgHKMdz9MrBfUNJmbZyuF3tolZxg3pTKmcjIaZcguYuDiWej27wnJ464m3tYmKzx0qAw4g0RP1TCW6ScxuUJQQxR0203T3YrMPFdPdwZRYHRcsqobqQ/wqkgWrKYt8jaP7BTpDHseFHRpVoj5mFcm8xTRiTdSQYDHTJfSaaXZuuqWbRk8oPGuJN4keks9Q8zpOoVcyGpwdKAePWDf3VkjokFgN3f2nnmzqLa5yuVcUY8SNGesoGd2quo8Ybv4zujhUPir2nd3IZXjraNx6Quj8OLSGrv1TagkVkYovzM5YuFyvipwfx2PHHOfn3anXWXkKwTvtoVLt+ntt4LF5Wj5UTlreMZIqZJFv22kLlTd0uTvPTDZP79VCIUdqUIQRt9lBpXCe3xOYm/k+5dxQXWlwYJYa8Fb7ZeUXcb/YBh6bE+ULlZaaX8eceauwjDa2SxF3e555bJ7VPWeNyprz9gx++hJRbPuUi9D/LHeGqzGU9Rl8/kes2SxF3KU6sNicnAmVmfqGMtzzZnvlslWFZq/hz3jK+aFKU9/sCl9s8ySR3xaIIB7uhX9OUD2mrLLKe04e7wu3Xrbb9in8GUfdY6i1eaKR84w2G3fbOKWt3+cBwzn3htQ1Z9l7dg6PCbvMRSZFY4915Q49p8I52zblDYw8sTosOhedDnoC37NvlnkbE3xLf7kLEi0KVZ+KfbOtT97ObWkKW05zMNu9wyweoD5+VmdvFcb2TPqa9efxUjpofqzBIufT4/RNbpv0JaLY9itnnJ6euC6KqtX0rEGB/4vebfFvP5bKdbNj1ar7SfY8sx1TLp4LSjMj95qeKLrurIy4erfK/IneLHqoxQ8GzFTmFUSxtVeGp6e8XikSUuntJLvFcyeirk/Xn55ZdmE8Qn1zMtYl16ugy3DJ6yTxlbAlpl03VRdXm8P4hYqzMwyzjVfGOi1irZztCLUL4zIqJjL8st1SNiIqM6d5jui7sZ+RlxG51+c4ZDh22WYpF2WAeTlQzmmICYPnd55lF89VuGWbpUDyEkCV3pUNtY67IxTn0dLXZthgiyWHfAZyGc55Yig6p2fN7ImezpmP8wwsR84khBRwWochu/6fLDO7uyY+rAR2I18GuMzsphWmnB309xXDOJP6Aka53b64rnS8ZbjkCaaWMC6l4gtn88mbrJO7PpFAU2amRJdcGIbxaiVjJXJNSPoaPFrRmOk+4ptUdVzyZsukwNGKR15CxBlLvjHJNXtiGzRCCqDJca63488T8qxC3om2zEh5bqAe7yJc/sIce5B3tYkokLSuece3Y7DI26yQ7LKF88DEdAelMC6mZUMZFtkKKfi1nje/O/TmGMmCFXIrSDaK2EEsHi08a9XfJXyGQd5lOaSjE1GwzHWnJuO2bVawx9VdVseE9+q5WLS9z+NmpwSDbHGUttlQtKB5HDxnbhZ0tjoWedsO9MpVXx5iAfM424k5brc2tgQ9gCN1zQ8/gObx8xn2zHFkaQzYDGR2XK+kpoTxORUrGd64ZmVsa2oFoNH6U0kXr1fObmDtEpy22gcQ8HtDHwUyWs8Mh3E8LU2wxtuti1f1wDooo2H30Zi55PMWRoK6mojbE4hjNFKcTh2zVdD0d6tiwI0NMEYTFKcb90G1QgzvtiiWZr14LorReid12oU6gPoG+OJ2i2BAjEu5vftu/QslQz1AoJUrbIrp7wkBa78wYealuhcN4DTA1g0PrNkR0avngjAjMC/UCDSS4Yq32RDR287HZNajr3I6V5lcL2Y8CyJ6MwozTOp6QckTV3dZD9FXQDAjTbpByRTvthyyxa+CkLuGNOlfZVJIxtnL7IarV72oAYAZatLByrQQrtkMES7OAMgTL1XRw8pWMWu82QsX1FSYC+SaW2jtnEJzbmtuhRDeae4jwMtfM12SWmph6Iz0ayb5FfZC8HrV+aYjmYiRK4fag/oCfvLZbNxtJURYxkSMCbF3TEqXbplGyHibbIQIK0BNj3P7fhHojMFmsTP9vWYf5KNbx0sMPaJkh3fYBkaJBhZinNYS6hTCOlj6EvvgetqqzgdkIcbM5RfqFVoKdbBW6yDh7OWOB0xzMNt98oJQu1DznAak41kGAbY6PkZ4Lgfxr+vBTFdbrbYKAuyCNuCwJPEnnxtqGhpAOtgaIQFsgcXcVjIQ/3SXY8b9W4MHGtweCLDJ8Vpu8OOnYo+pnafAJy+xBfLT/ZTztdzgx2+IOaaGngLfZAnsNHaX8+jo408sDvUPFedkGAm+1YQnsAEWXYr4qbkX6iEayfARvLjT9BstIx1fsvPvdLnVGiHpbMy+0Sj2+FOaQo1ExUQDG8FHjL7RRQ3IS6ox7E7ayIqN4FsN/oz3wlzkQ0448tI2OW0SbAQvG3ujDQsIDynb2fSaPcQKITamft+RS3CXyT0tr66frJgI3m7o9x25Evb8uMkqkrhm/z7f39ML7fX9QTVbu3UWxgDG3qYKKr3sGTlF9No3etUVJ79/8J4P3xc+6oDCsL9/tJAe2rN3v0JZMcE7DfxYhQzdonheg3uveun79Qfui1ygsP9g+qo9CjRKMQExgJm3KTuOAHp+3Omce+27qjY6diRyn0b66yfDvaoTgoUAm4x7ftklkEtqyiLGfXs7ECCFa6G2J64LsdrA22xyGgFy4fk1q7JvqNB/JJKX+guqcoRgWQKhjXFfg72EKcJMd8tp7Gr3X9VpS4BG7qmNXjsYh4VIXiJiDXaDPtb6uYCnu09uYPdwwH2RfPRYJ/2PHqnbf8TXOujI4YNX7lEMq0YGAmw252MVzwVcJhax2jd6n4y2HQ8XRNAD97y0Z79ChGcgwA5jPlYz3sLoawxxUM7jAZ19QunT9bQimPbhC7/GoNvUIV1R05gCZa7Zk+6PZKRUDxrRpi/tUYGUNvgDtJtxXSEDt5zewmPc0SOyalyljufy93EfHv/VN5VMuK6aJpoqXm0S0e17qTOunOVrEtADh4ZY7zq/AZ2NIVeVEW1sqqQyd4Vgb5ej+9LiyRjg0kH/jq54JfxqIz5U3aFuFdgy9brl7D1Vf9+jklO3hhTDHLxyP9fjorfZbLoT0l3cAPZKmurMHd7v8CdAR78mEx2u7eX5wl3QpbMx30Ntw2N0xjQ1mR63v9YfEaFjT3SDNIf8GQ5bPBu8TXW30dYtAVvOZUyzJ0aN3MHkCju0j90RwdtsNtm6VTSLgsTf8/3OdPDQOQwfYPaI//IEeJvtZlfn1AhqOa3K2/F9aty9U7Ij/gf38hoeuk3bblOtq55Hsrg5JF/2NKmDZVVwOi50m8tMta4Zar2BYXsC48qqqO3jswrdZquZ1q2CWjI8zYrrtIfAynZa3rIMcpu2XSZaV8gg7T2Xo9iO7WlMgJeZ7rlS9SfAnydgQRgDrWtbiLOkJpf5jE19RNnmw+9T+3FXmGnVDjQblcspw80IHOyIDYKOdYHUI+1X+Yw2eROt2l0Fs1G56aowP25f9xqIquw0csjnj5ENZaBVP+XwZo7gLNcxU/YcjLBQqmNc+c25y2gDjJvMs2qXw/yyOMvpTJ18h6eqdM/gJ4ANZZyz2TjTrcK5C5oz+KmxzGGY9njLaNMAe6jLDLKu0AizZNip8c3hA6yFXlqHveup7cZYV1yAskxeyE0NGpMIPbRfvVPUrTDKqnZnY4EsU0cWM1PDytJmld/HWBJ51ENtNsQJZi9CWWcke82+ex6NInRMhw75fDHqoXYY4QSz1fPIFe5/5ff7vx9FEUAmVVFrThrjPdJscqYDeeWqpyU5yUGHkWlVuGLQQ20xwC88yHX0Cu/J6F4SV0OwKIz6VZZmQA+10/hOeS/MVemyp9uen1FW1a9yfgZzerp24zvlfQm5wvkeaPZ+OMJKuSfIVVhizKqthnfK+yqM9euWc3L6nbpUw5GT+zhiyKpi3ej6FDIIV2adeho/gwB2oJPZhiOGrLrM6E55nw1x7ZfTmc9bQ33rUwQrDDFkVdl4+uDQzXCpnubCS5U4PLyPH0asqu42tj6FRoT5axrUwYv09qHV7oS8pRnEqi3G1mc2wjLMxtn00KsEnU6yk9AGsKpYN7Q+qxBGH+bHC3JwkpUruWHAqnYz61PIICwsJK5hgZXPaSQDWLXdyPrMRlhY0CobHzmpujulWW1qXX4Khm4ay+WqjvPv2GCiTqwol9YRqcysyy4YuhLHZX8vi6vDD0CVDg6yUsWr2mVcfWbjiz7MgJYhVrq0NufjVbWb1utwWam4ZfD9URSxw8o3Zj9eVdms+hTmwovQwMbp9IzYqJ9yeQKQyrmLUR1iFF45Hf/p9BwxZaW68hrT6rLLiVyHrqSwl70dWp5YAZXNA2h3JdlWN6dDVM9DNyD28lLUnViyUb0T7Jtno90H/GXmdIgiuAhTr4O+BegPRxFzrHhz4Iuz0KrKpnSIjeiiV5cjH63b7DiuVLTppKJy0vEIpnSIBeCMTkNeOkdTV36ACeX5jWBV28zoEKuUtex74NGIQVa/wV7IYJ383rbbhA5RaMQWIVflIBMdazbUrZQ0hXyT4xFMqFyCzWhaC3YzJln9BnsBq0txl/kcYiW0MnVyEv759ByqVNBqAOvk903GM4VN9TxCRu5cuSr0xLJ8sgJaLR/A6rLDdA7RDC3C5MXoc9fwqVK/YYuz0agM6Ah1Jz7YIiwEvogbq0Qf4af3snBHQqG6lM2mnA0tQgP66XHqrArDlzj4DfBlkK7AvsFoypXQynAIGtd8KuokZlUqGOKFBjAupvPCGNud+AAzSp2OPAbHrIIhloJxMZzJbLY58UEW4Trws91ZVqnfDPg5SF22GL8UNgB8prOZXXZ/fxQpOx+5Si3HazKaYgyAzww209Ht6zrbnWmVCoZoDoC6bDGUMkUngQ2b6ej2dsZnW4BgBsYD6rLLSMrqeXSMuMxfM3Q0ilSf7xnEvyQMTpdNRlIW6Rhxmb/mZNSFWFep4IiDQF9K12UDuQBMIYPLaBh44V4o4YgJnC7tBnIBmEW4Vn9pwHxS9K9HkR7iYgLnCDuMo7wIl9HpVcRY2TW1bFygCo/sVccASafCOGaYPQ+W0bQq7PlxcYMIwyH4G5mDOULZMC4AswqW0eQW1CW+4JfQb5MGygjmUdSdDAFLtxj4wi+qoFLCCfAJmCOUjZwkP0SKxQi1zu1GxhsiTCtjgIJDYRJloYGKjsXyps7sNeoglJFnoRyhbOAk9SFmsnh5bENRFGkoXloHOUK7OZQXkTHiMPr3oi5QCZUyMkqxzRjKc6mM5UJ00EU1hCpy9WyQI2wwhTKFyqgGusQxIkyDtwE5wjZDKM8DpRsGnSpeQYQy8tIMxhGqZlCuAjXW6XFiiaKvqSOjFCZQVudi0uWWoy4qolJGrg5gFO0mUBaJrObmwkZoUHvEPaowjd0Go9hh/uT6DCbdQsxFXYQych8Mm1aHwvzJVky6MzCXOEmEL6mgTcGhMH4S094pTsdc4iYRDingjZHLm0BRb4sZiyGNlcNr9KYoiuIoEe5RQJs1DoXZ2w7NWkwJ6RZDXvolrhJH9kJPIA9RmL3dys2GtPxLA+R11pVJKOBe5l6wBcS22BeAIaLjzmhfZ1EfgYeR21gCIna5EJFu2nLEm5qKw/iB/cj3JWkFiG2k+wvcLea2Uo1KFMFBeA9yFUJxmcGTNHTMGS3v7I3LRHgQ+V2XQih2mTq5GpFuIkSLD9F4sUZ1oaOqKcKTyIcCKC43XpLy+qzD4o2UYu2Xo5/41IMTj4yP/8ZvdlLfeOKLExPZkjqK8ArVG2q1wbsO9R2kpXDdInUouU9NjP9mjDQ+kc3BFuo4/R1EwHkG7zrU2ynLGcwZXS2vpqPPIX3xkznMQh3Ha55t9sWu2CUg3emKkI4uOfibIqjvCyOQhTqOd0Gj0RebKMupwtPFK0H+mur4bwqjCbiV/4GIDwEfCqAwcRKQbiHcCe+yWoikLyXxNhUy+PIEPrHdRMszpvJm9IlIRvRnRNPgEeUT4R7g6engiXYTLacLH4v/6Ee+9JtdSLBS+cQI7gBL8YkdxiqHDWE5g7f8st+T0izjDvUrn/j0fqVTrTFxYkPMEpCO/+j9GbcoCVZACgBcBS853S6zL0+HG13Wwl91BBO/hFsFT1xuqCTdBd2GWRtr+SdkLe5VsQqVDLD8bHSiuNukpZhdCGfK+/wQKz4oZ3GXoQqltOlrRCe2GLTIa+HoTmM/QvI33aYjqicO485mA08YtMijaHymVdFGkHFU1/FFrFDJdDbV2ejEDmMmL4Iz5X2U/Xx0gxn3KYm0qZY2r28AJ9qN2WbfF4PxmYpWd6+UOhkIqlBLm4RhF9vo9rOmS0cy6qRAv/KJwwq3R5pWkxZ4Q8wSjc/5aK/ARd6I7ruonghrCqe6xJwFLsR8pWxofE5nP4HNyG9mMrwKWBjZq267klxhzgK3k72Q1RJnuiFcMpNB2sRlo2zpZuc5EyYsciEjf0Y6ziJ+L5JTSiPwNpVx59BLwYkdBixyH4Hfn6bgiPxvbOqT8uCLUIVaDlVNYBPt5utvtqAqv5zBmK5Zzp3QfEkeZD4JVKimarwB234qdhuvyCvBDDEfbbp4SSXnTWW8+CYAosmZsfGKfB4WORPurqAltea5qZhDDZwFIJeNCQu8I+YcNgSG4OvmSe07Fsnd5jg3nUruemopNrHVcFkvxDLEXLhjyerNcEcEDOFhZVuBfY35Mt5FVgp+N4FUgTstlJQL/SrYDGuqdiVtrc4CGy3rxVhe6wMqoIt+XS58EWlTPVUJaMlmLzdZ1uux+JyBVicpMpJRpITisKr9QQevcGZssFLGL4MyRG65CtzXuCOyYQQpFFQFIJeN4TK+LOYcNlDkKFqdrD3SAWlTPVXL6YvVjozNlXUKynpuM5VAFz0oG5KRGorDipadrslsGW+J+eUahkROaQF7F0Hja4RXoV6wFVngy02V9Vooso5XJ6+nbKGQNrGp9oPOTodMFHcbKuvFSFLYTEOrkxe/IR9UURxELZAFLpgp6/VQlls/H+zdHJEYmXgF4R7QI1SABW43U9bN0ku2fIqfipD+A7epmiu2LkUWeLeJsq42yi758nn/o2qKCBzCk6hHAGacM1HWq5FkmG1Qh1vq/iX5oI7NI/tAj4DM2Oys0EpzRbcCWz7LP98JoG5om+o5+b06QF4Yqqnvm2hGFjvEfIX4BXZ8kXmoqMvr67iMLzdP1q2yp7Bha6PvK49Jjn758tiAbSqpywAu46LBMd4WszUQidXngxFaKKU4iTqZDa7k8VtN0zvc7Cog8jSl+P3yJLmHkrrMwWXcbpr+gNYW4JDTsMp7ewDOdVrBBlVSlwsacRnvNkzWQGQj7N/mGsp9VKDtUFOXs3EZbzFLk94XAZGIM9IBnfj+xShSy2b4AOpss7CMNxqlJWAurUsu2Rri5agDUA37QUM9t0jzAi7jHSZpCZhVMGRqCt7lWbEaHokgNxV0wdZiBZbx5SZp0vtCHHIx3iGwGkbqiTANWsAybjNIk97X4uifqSC/C1XZegA31XSE5lmwjHeYo0nvrTgk3iHAdnwSPhTypsKeD8t4kzFqVxvVTWLt+FIUQW6q6QjLB1EZt+02RZPeUzDkFLgSbfMLiorDoAUs422maNL7qOSSs+XWqTSl8kbcjE+Fk2a7IVpx/WLJJVsX4vIJOhiRSGJGfCpWOGqaoXYfDNkIdu+RhOiLjMso+lp8KuY5WtzNDLXPgyGxTjXqIskYSyQVtSN8QMHEGmPU3B7rpHcYcj5aSUpII5W1GV4BWqCa+r7bBOWYXaRqEq1IRiqLT6uXmDdsiJq7KU56zzEm0YovAf/tZSusqNCe+m6ImtsITnqfyZ0kFEQSHeoOhRUvoJr6vtv83CbYxSomfyEiR5+UQge7qbCiSFuYoeYughfLdgZb173YKbGqvhBBh8KK14Iybjc+7XUorpRtvuq8yISOfMnlgh0KK/oqqJqmpz2qYvLeiCS7vzwrcEOVFQOgpr5vNTzttYomabLrBbqhuian62sE1TQ87WVqJrFyf6TIOIxZzCada9YANRP0cszO4EpeE0Vk+UsuFvAdKisGGkA1jWV7KlfyAxFU/mTEAZRWzDG5zVJs+ImVCiaLxyLK1O/Wq4IAvaHSitc3gGqanPZcBZMvR7Tpk18SrVVq3AP6OtQxNbeZnLaySYzK/hE2XpJxOBnzHuDHzW1zK70l3aaJlEXMKWYph+wX5NVdq9Ad4UnQy7VCWtytbbexaRcbMURugBsZQeWTXxJioeAYwSyWYmruMJHt6UI3E6tkryfMT/YPO7XnBWorllUg3Vr/y81NG4OciTkyCPf+wVj6+nvR8GGotslmMTVNTc74YiMG6xbE1lhMk/3dKZkcYesVE6i2gfsaMDXNY3sqV/LFCCwx4qi4uWyMbHNbrG31kuHndQfCvaBz2SBqbjA1bQiRT1PUV9cvP4aKGzgBqbnLyLQvxmC9AOxrEFLdobiBz4eUymariWn/xEoIkXMhWGv9gfAlxdrAXNLYpKZrjzVnPAQ5HyuujgASW46qa3wOpKbZSE2XIdeewdYHvNm9ag/FXX4dUXObgbm8pgEIkRvBPr8ZdUB7OIYHFUvMMzS3iGKE2o2InMlW5JdVHspr/DpEzTajgSK1JDbTucphU/3tDmgQw/BK0Ku7IWruMC43j2AdBOvFaCe9qzzU17iCqLnFuLQXIrBG+/JR+oAuQbhfsZLHrzcxQTfEeGNBIVjPRzvpXZvgpGIlj19tYILupPZq25gpNLIuaUcRWDygWM0mJ0ENy5LrixFYzwKLR+IExKP3ceYS8xK0PcaFk+oI2i2A20ofSn2nvlcANdsMy5LrCKwLIdoV1zUKjlyoVsZJ4xJ0G7VfqWaOrQ895nvjCsSZvy6HecOmZW23y4hFPYMt62WdbaV3jGuba0xL0DZY7flw26oPFW4uPwtParpixqQkpYNgjbat/FDi5gt0U9MZlo5NxKIWRFrDbWsWjKI2xpOa7nJzkpSuimDSexPctvJDjZtn4wm6wQBGncrWJ1VqQvURfU2Nm0sBpaarG7+oM9myLh5Tfyhys9GEBm0nFnU6W9ZXR+oPNW6Gc0xoUGLtM/j6YyH6UBwARW6+DtBmKnYbkqirAEx6X4C2/bj643/gRRr11Hc8QbcZkqiL5M0xy5b1myINgwdQN/EE3WRGorY10G/PRIsP6BiE16J+FTDgWdstY0Ki/sTFANqL0OK3tQxqoJuzAK3tZkZuRST99nS484ciLYPDoJvnALreJjOyphv99ny0eDEewGOAcWS/WuWazZuSZjHGJLMA2i1oca+eQbgHdDMB6AJXDUjUtfTbEyHcpHSaBgfV6g+3osmQNLfEmmQWQBtv1DgBqhy0r47nF820w4AkmaXenjo5hBtV1yAcVKvXZtwaIyIyQYw99Nsz4SKtbXAF6pcfKKDf7N4u49FDv90E98jnUW2DQ2rVzAcm5IqVL6fVU+DrM/r86kjb4NMXqlXzEkfCcPQsIL9EawFvj75BeK1aNdc4EmZu1vtUgTlm8fZoHAzBbhrLP+2GnbH2AGjj7dE4OAS7aSz/Gom2x9pDvj2hZ3qi6Gsq3fECoI5gq8mwHCXfXoy3R+cg3K9WzTXm462csJ1Uz0yREm+P1sGVavVnVbLCfHxyEdHqGePrQ62gL6d1cFCtmk3G493AfwetnmkCvQH3aB0cVqy/cvBhpx/HsWbtN+FwBmPtD+gdHLkQdXMWpjcI1JKpuB0UqtUO03oH4V61aq4IHLNJu8Cm6Xy1lz0eL0E5/1TXCH/IhJiMzm20dvye4qv95kc1Dw7BblZQffpPbTYRr05I4lFTgPGy7sEDuN8mAHB93KfWjcMnpF+Gek8ZLz6mexDuV6vm6g4YC6t6W6w91KPmQsCW2gejavX3nNsiBEF1m1H4NMJZpVxR+45qH7ykVu+EF/MCQdS+XcPXNwaxopl6ktkmvLg60j44qFh/EdnrOyDKQDcPl9le2nRZe7VazWaHRrYUdmR69WgLYsZC4lEnh3jxYjwB1Tbsa6DaIZCGNLKivDmWg/iJoa3lnZku9oWo6OTxNPWemYDxMf2DIxeq1d9b8oqfFEuJzdt3amD/n0o4W84wcEprqffMR2ypfxBeq1Z/ENn5QDwVE0NbSjsyGnf2WzFwl1ZRj1rFi2VHNRCuhI1xskvBuEXtmvaof709cJsWy9oj1BvzFbnEC/ucUm7H5grVTDYu0qa6ztZSs5zKWPtFHYRDwN9JTqgauknFrRr2sw/adWygHrUFMD6gg/DAhWoVNBm4S0MZ7VycWxLvmR4Cxp/rIBxRrLdumXmu/6C0S6+XYBXxqA2IJwv9tg5CuF+x3ndG1rvO+rS6PZACi4j3lEPEWWa1EPYC7wBmqIN3CL+rKgdm0e6ZHALGmyMthCtwYxxVJhtNvHmaTXKUKu2eqROI8aIewknk73ltqDLZaOHPNKJtgRzoJz7rfQFivBxfQMFDhWdTNdTiqqokWEW8ZzlifCi+gIKHCskauk87tLkMFtFOGj8RIsbv6CF8+kLF6lgtg9DmMlhI2zIDOdXm4/EE/sfXFDxUuGwWUUMNLsqylI3Ee/KQT0SKNBGuVayOFhmwSUNHIXW3YKeJu5dSkGPpIlyJ/E0gEJ2htr2VkZliIIulevVcrYswhLwDtWGwTXumpJMFS2j3zIWMF3URTl4YqtVarWv0d3MkgGY5Q2CSWcixdBEOXahYHaulaOpnb0o3zz/HWTv8mC7CPdDf34apGmru3HS+NHIt7Sw2Bcz47bgCX0OOB5BjnKyh3k4ev00arKNtuSDEPO1dF+HTyvU+BHqJ7u64PIDmWRCZZBbyKq26COGF0DtQGyb05meNojRYRDqLTQn0rN+4ojyGHfuhvw2BmijDojye6mX5Zn2Ea1WrozWQgXTmfqcy0pQiacvUAsy4Wh9hr2q9xYo3aW7HHdKgX716whf1Ea7E/gauTdNRb2em2w7OkrV2+AF9hCHleocVX6+3Q5WkwUpJLXnDh8wAxtE56tgXFMEWbJ7TxPVouLR06vhWdXxBA2jHTRo8a/y5pLPSVUHjXjOAaoKkoxFBsa5ePeHv6CMcuhA6nQPa8I36O43NWl/B8NuGAC+YSqwjbdnRo4XSxoNf2E21MtOtNyFYRTor3SLUKTyO6SMcVq83KPm8CcESSS0FbllO+ywD85jKIzybpKMJQZnyIq0zYCPSR/j0hcrV0WpCMIuy5XzYT1gaA7yOZOZ4A4KNpPcsl0eNNxsDDDZQdDQgWEvZcnIVNd4UX8RSehTPIumotYHf87QQ9j/GAOEcko4GBJSzzM6EjX/WSDiiYFhtPrCEsuUC2Lhazuefu1G8jVDBPqhhVpgPLKKMMu9IfaNef7aTvh4T+Z1U76CUiqexefKpUimXO5HLPf1MrRZ1UK1zgFwuV8o9kSslpYN6GbaYD8wi7Dk55BmpzocPeaHU5QGFEuOJ3InSaG20djzvjNKjtdpoR7iSGqBaoeios7FBklikLdlFLPHEh1PXWE+Wch3x8oKpdrwjXOkJ96FgHcYD/ZSRYRSper1nX7dNlROlUm30eN49So+OPvlESa2x3nRgHWXPBUzisQ5b2UgtulKu943W8lJQ7XiHKc8YJxnKdGAV5azxyxlEvac+GbuUz/OJ0uhoXi4aHc3l3ICCGa42HVhG13PqlBA4hB8PkLgrpW54QmBcN57MT7KK4iyKoUwHyoQ9T0MOkX3qqxhxS3M8LzPVaqPJpNA8Nsq1VGuL6cC5hDdFk0EOYRo6XYoV66kT3f0l78rlxOWZVa6lWucZDrRlCHsu4AmpZ/08ReLc3YVa9+fqqXQpKXydDfTT3puRQ6xGcQ/4p4TbH89To1r0JHdYSjKU2UC/nHiNIJMQOP7ZoYayQnHwxIlaniYdT+dynGFZhmIos4G1hLPGT4cOQc/Vq/FIKZG1rrGpKmqxn2x/WMk+NB1Xmw2sIoxCJ7jYR0UvGvrmauKZzNXy5Kk2muMJIUWsMBsoEo61gA081rMGhLl6IJmT4el6ebLXxQAV62g1G1hMONYi5HizI3sUoZUCudGuNRyKXK/X8aBgmWabzAbKhD2XQ/9ZKHZ7JKFTyhArOSosDtXpc4c4QAPBie9mA7PoohQiR1+PNWQVJbB8qiMOJErXnsj1ABXLNGs00Fanu6rbGHYc6x5b+SspQdPcYSmSXT4WTJXMcL3JQILwqm4N2H8WOta1FgdUUo5r6KhDoWhYo6+Bfdr7Auj43tdxUp09S4c1iHT4WiVzXG0m0QQc1x7+OlSqs4zk73bUUNJn9qqY4wqTgXV0p71PDnHjpefyaOkx1hB7CjqodFLB0GoysIrutPfT2NCq/hgx19DSof3KlTm+xWRggG6sMehayBU+Lb/yJz3XcFqVL1Ss2zE0z2RgMV2cAVuLm+o84qk/eSaPmcbBfxYbmkUsJDvtPYX5itP39KSNF5xSDk+lV+cQCYq3391gYJaU097Zyhq//2AePdV5s3zi9/7keB463XOtUm2NZr25QFsD3VjLAZt9Jt+FwCv5QvLPe61hDqFSjmvMBTb6ZDEF9mjxhrL7ym2/eyLPAY1fqVB7f19tLrCW7rT36XDNDuW7EAtKhjDxrV5ryEOo00owKwwkTgdtFncoU91qjNDB/agNDSLW0U1j0wDZjA8lJ4hlYpyihzibYGI6XY02UGnppvGzCszBPDvEh9XjXU6+Y4fV6J8mXY0AORYhNXvg690o/rA6FkONifBKFGqeucAyOcFMrL09xIg/rI7+cZ4pOqlEoXQ1UKWZZeZ+wb6U70bxiNVT+TxbrEKhLjFpOENQLLwx4hGrJ/KM0T371SfUemOBhVKmseHkhS6z/zCZLazVnr6/G52o1WqKZPW7+R6Jo/DK47jGWGAW2bR0DQow2732h488dNe733Xj298yJep1hxnRdakb3vGeO+966PmawvCxWp47Vh3H1cYCGbKYy3n84wOPjAzfcP1kUZ+u5De9cyjxfFpBQuQoHKv5fOKh91aKw8M3vr2DrqumOqk0PF6sRInE/U+nFWP7U+cYQ2yQMy0dG5uWu0LG5DXHy+8bvmGK5wKNXPfOu+6vKQXnZN4sRa380J3FG97i/GHelOvylbsSz6dVYdylBBPTmQpslBNcTHs/mZeNvvlI8YbJnqs08vZK4nllCP+UtAdsKje+ZUT8I7yhh07IWrlCaUK1mgqspZtmdjmzpS9x+3WeJFR95yOj0rEiRO976M4bp7j51TAs6WGbNNJ/jDam8TDt/ZBMP23eP/T2EU8uSlU+n2Y+/FckPGJTleErY+SGSqLGNw9m6CWaNYzwTmNzftzxhyrXe1LSlPFqjXE+WsvDepQ3pXRXXjZWl4nv80wF1ikK9j8gjWb8rZ7EFA1Xa/Iw29HTj4zL+Cjvusq9aYZ5+dmmEKvI7kJygsPp7ve/u5u/3Iohjjn3tESabk+/gFMcUpaJ7ybtH0HT3tkrz91Z9YjQ2++qsbtbmhOSaD7aXSOv4q77meUBgonjDQWayaaNX8Bc+UjP36RgmuPkJ/My4Hkij/JuuKsmCyvKP+sNBZaRRRNn5fgHe7SHav4Ym9HTj9xM6iEen/yCKcRismlmF/FV+u643iNJ0V01Jvl33X8+vO/Ot3i06MaHalKwkkx8X2MYsZyr8vy7u8QmWnnP/RIwgwM+Pz4C+iHeIRVJTLfaUOBcqmlmJwMr7n+Xok3vuJ89Trld/8iw55E9aMMgX5AxhFhIFafhKjLUyFd4GzTncqnc7BGmKcXPus/qkchmhVn8Z4Kh8s2e4xD/hsUYH3va5Rr9LwjXDQ7iu1ZlQ4iMUmC/m+X4UEwJ6AgfVOaKSydczSnUSw11mJOqEarVnGG6GHCTXPaRt3hQKHrvcVeZpZIax/EFUeOMzzaD2NBAFXVIuMfFHzpv8uDQjfe6umwrP+W54mQPB10/5C6/pBYT35sMBeRcBgY1DrrnVZzsIaJ3PuMmc1M+eD2ah3ifZWtjFUvNPhYwsm2KRI/fptA4ucmslPvf3tsXBPwx9qrEP0kzgTRZNLFxtQ594x4wuvF+F6e/IypSePHgNH4tskQ2ZhBr5QTkNLN75NAi+gn0OBdc+mN2viyKz7i5fWiFSExnzjAV8R9Rx7XPuauFpvwcD8GPVhk6ZnNgyEXeD+xSm4wQMG0rFnHa+PKou1p0StcYTXH3y4If5WF1SDR7iZn4hyxCMHjApcw1Hkj6lxr+AE+5NdvBg0fXf969BHXKkGh2vZkA1WXXpzAw4Ofe7sGk6z+Gnp9w6XR6jMds3svM9Pflc0w+JsBEd8sMKE12a7DHoG+DZmgyb8ds8nsUITHdGiOBdSqAve6a4bQCbvO7aRnOj4Q22OdZGW+OEcRFVLdRMR18hL4bPbh04POw+fGaK2Ye0i+IKXe5Ftxa+GcVVZyOBIfdiHG9B5imuBOiDnrfFA9N9rDSe9J8rML+Ar2NVJhEFJCkl3UnBmYagmxz7LhL59PDfRLmm2wEmEMPVsI/V+bF4709/djJYIhnAU9477vRA0wHPudSAEvhn3VUt1FxBnCjIQ84lfrgcpLJp2A8b8q9TCScfR29jdEYCVxAFQ2wjY6/04NO16fA2vyuO7PdQdPkj/GQn+71RhDLqGIuaqNayfPA85AbNlDvy8wjIx5uei8L26RZagTRTBXzUejEPyl8g9cLYR4RqKrkxhkVHnS6kwObcZOPBSAwKrxc73kM8MdxqlyIcIcHnt7tzux35hd2azWJaAKhc7vUM0WcAple9n8OeR7DfA+chd0sH1zrRmGanwWZj+7dnscyv4TmD4PK8sGoC4Vt/gZNIzcKC4w+gXzzWYYa01G+m3ycdKEwzimKOjcK13wYC8glpmsxE4GoIglX90zHQLwwPNVX3Ch880ucLwTTZCRwPlmg1R3vdb57fTuto7vcxSGPERpyQ2UJAazuf77H89jhe7GpqjKMymlCm0E7CMvB7iP2To8huv4PkameEl9nhh5xQWUF4hD7xfPe8k1cIid6rLs8bjD5XhdUNhDo37DnrwvFvR5TdGMNlng6LxafH2HokM3ncKvOMdSYJgRQfVJTuIL3L8cFu6CK+NnrWXoOpk84X4lj4XVrB98TO+H9wGv4ogom1bF8XgG+Km48Lj5/PNOYZw3gWrGy5HFGHxOsgpTB5vgNHlNURL1i6xxbB4fci8DQeJ8XLBBtPLLosUUPCedr7YF/mjlGWezOHDzm6C3P4BEn8orwIG/y/cJdrB/AlJ/tIQJjAdC4PO5WdBUIsMfiwzVCnxZ+u8cfDYERRwVHP8DbF8Q7hbuA2IiknYNBCZ4WrvgrYepgfEoec/Q+xNnpXm/uMUL6cyDD1QQ2XOWnQyKOPeNGtnh1sHluv9UDjzLud2fGuzocUK7L76MWD/JSx0WPYPcAo3ynxyX9Fg7xWC2vGA/y7hQu7ABcQBUQ+9/nsYkpzwsVOPrf7bFIHxUtrDzsEZuQnE+64bhIAUOWPB5x4DnRwgrAKm6REIh3eJzSXUKF3FJBHuQNoRUVgw+Ac96rHquY/LxIIbdUkQd5HxUtLJ5/8KWkqzmJyP5CYnWJpSs65Qh4kls0mX9cK/Q0L27pgwDEsZqanFLhDYkWFgAukhLAXp/m7xe4dwqPXUz5pkgBYM777bw+BdMnWFgAWCclcO1brjoqMoUpv/RO8uKY2HSBvNKwaGH+sZbsPqHB7Vbubo9hjNxLff31ukhwe0qF9xHB9+XdrsPnXPFh9Ywv4qIm/urSVcXlsAWg5hTXCP9Oxa8LbfEV6ZbCZ/zKHvYYf2ykikU0I0P7TvWL1/zcK77f9zO1X4a4R5q6lBKeT/81vv/DTOYHfqUyTg9vfU6sYBVJY9ZAdZ3KK4+jGqJWf/XH3+mR/v1H//ZzNXTbjJXyQtmQzXj45Z8Z/NG3s719ZWSIud4hVuznFK2GH1dAkpMrr377O7FR0Fcn2DXyvEBBOfKN5DQ/6LGvN9NXf26cjvim2MCmH2mqWIBswfVbPTrY+8Nvf8cR/fjVCrkRCBsfRzVE5d++nXVGP3oF0bahnzP92MDnfZWqiZOEvkn1fUcAjbzSD0o8Rnf3kW/vqIH5wni1H08ymz2MfrAarjD7eBmN7P/Rd0TRq/0cCh/S6jwVLF8YRZTGrzeCaGTzPgZ+Bov85R/G8kx9z/peK4iEdCnjAcnxf8uKpKAfjNhv9hFQxRkE21iiVH7c88OHQMDB5DohQdT4SUCyMpIVTD/EshzMS1YOGmAtAdNHI8q/xaSN7T8l6KnST0fQbAKSArWEvjASzwlt8onVZgJnEUUBVvsuEjHvdH/wEIupg4MEwQ/ICJLGpeNiJaUvDOFKJHPfrzX7WEgVqNrHKWSMP1MhZCdeQSz/Cf9GZllQis0n0Mx5r/046xINSi8gTn1/nRHEuUQxRq+NY0G3pybCUuj5PyDoWRnrw4whIlZ3iWtSbN9PpQRZoUTpC+N9EJsvmMDfW0uwhCimo1rS7e3yYyMzCiDAgFKI646LaxL0flcnSH1hoAlxk9im0cdior/njtNAte8n812qJwMhx/yz1MJ/kF7zSSwJhn4mm8XFHxHaNPpYRhTTQCWxuZXWMWSHMYIYp9EN/TIJQa95XBjeA6yXyhfGLQibrzOBv5fFoJnqqwQVU874Z6SPPLspowDOIjk45v8jjwI9L65JDenrSQwUazSxKW2kPkXyOYCpbM4xgriA6stSiNoSrcKsyXyX+raDHkf/QQGdcd5JrVlCsvesX+61uDQoiMAvkW0YQayi+jLQaiF28YsgrG8L4yDWHkGPLn6OQuDjxJpPIclh82pWCpJ5Lb63CG0yCVPxuotjEe/HYL2/3pdQ4Cg/XTYb9FMwJtZ8Bsj+KX6QlQM/Hodg/BzV5tlGEGupookW/hDCiV6zhNPf44MEJxa9+tKxeTut5tHjOPL59wcSQPqnYm4Tulgri5hnzl4XgWKwAFHUA5LjZD2rLDBU0OOBZBzJ45+llZTuABWdJCoIuekOGnxspIr5pPDzgvBR2Q8id7AXYoweOBnnxwSGupNU80kcKeNfycqDf4dwVYyHWXRrMosYJoUqgg2rzk66zLULnJ9OH5BbFPQ6Us3jOHLSjUiE7CsQrtFlP9F/jCA2UL3QppmAeg7IjS86hvTFhAp6elhBQIhrEupJTyErA2eRHLhMRtDcw+ELfaHFVKCBP6xC0J7laejZr/uxfbS7diB0o+MegiYDUqIqsoPD3ytTq7F4nZoTxXQ8s97fTeEcr8nQp+KgN1Vvj0BwNB+j0/MugjJweQR5cSu4jmUVI/i6iwtmEUUOz6z366XGC2qB2UkXblbg97KfJdCk0/EMjPZIV+AL8tY0tpnvF8wyg1goI9Akjr8fQJ6UjXvocwYxnrP3IxjNZ2UAivbPZWXDjxCkstnD4O9Zc7WpwGyqL1NzSmcHHQdw60DukP3QSUvPHYGAAwTyG7+dTMfjMPZu/SMZEBD5wrgNW+r41/tmEIupIokmi80tcl9/S2L6XR/x/G7djpQ/hLHdqceoZLGRf0m3/u/IR/JuM++AyBfqBoNYYyrQTBVNaLLYjBDJGD/JUBnLf5LjJwSoNB+h0pEEsr0NnM3PCrzRz8YWkDZSMQNMYjpBy5pUJG/39JxVV3DJDt6CYrHWZ4l43kWgLclARJp3i8xkwx/WG4u/GyayAGN5p9ze2WujdMIyZgrnxJEBrAlKJCvdLfIjyMrYBBB0L3/LtF5iKjBBFTPp4GkxuFn+k7Yn3XQmORmMHKyvwgj6GImsdOnJ8u9uKpsF2nyrSEP+tjn1k4YeqwD03Fq/d+n5Yezw1Jz8eJ+wDhKeHyW34HqMXyaxRnL0Hwwg6EH2/plnLLCR6kanptPJSgfgW9Ver9GAYewtud8Po4OE5RCFy2qSkq6h33GYv2VgjBqgJKa7GsCm2JIR+7705nuhI/Ffkb8DCW6GN+s9QNXxHMVlWg0hNjRQ/atPxeJ5i9xzyLNqMlB0YI4dfldH0tMfkjB8UlQPUMugR7wKYOb7fu7+aTEWCBqpIkkFH6WfKOUs514zZjO76xtL9OR7ymVPED1eNnYCtRbMuEBH7pZpXaGtAenK2QShCcmi6+OELvWki86xSyJgTFke0yL4HhKGz4i6ic80s9IFwGa+P4zrHkUuO8tcYxqSie/V4/Sz2DzV392pK77pWzr+BmEgEOtdlBBIZkg/dfxJ9paBMRdYzBvOB3Dm9gZ59qkpdh2ZmVn8MYWlJv+dfj5OwPCYqKTxpK6VTS68Qv96mw5x97IUWmMuUKSKmUhivYtIUvLJsLMCyj4HhkcFWXqw8UP6hocJprExheijuhDMDCSrwNxEaJGRiWbmKcmfaD+mzY4fyI+HCOBJFJY1WfEqfcPPsJc23lxggiqmIfmV4U+mor4Hy89lLzgPZvNyj0mPqkfHhKG9VLB3lU0mDTOQTHwvA7iGo7OkaTD2Zj+MXdMAdfnxLgKGT4jBbRQuf9HhQ7zYIwl46Pf/ePQz0+3nLY3NPIOBjWTRguMXw/URIj92TnLqdNC/3+x+QOOCGK8XBun/ucXDNu89cLayG33Ha5lLM2vUMNMD4ng/gEsgPtfz3Lu+VJJw80aEOUqPt3j09ggdyJKa7mfkxS2wXp4bQ8YQGxpYw9MIDiXfzL9JjSm9HXMAGYA8AvRN+XFckCcF/EhS9bhH3/EK3v5p1dZAlWgWR6jlzyA4lHxHBPN7lOxDXR8F3C+/Y02MJwm8Km2eWfqOL/F2FQ8rtDVQJZrFEaooKBaRb1Npvf2uEj9mTMv7Nwp4H5/4gbSe9Pcud5C3Xb+vNhlYQjWRTQ5HWrq3Evk2NaFiV71jJjMH+SueByOU7I0hEvg5OVHvAPnM8YeYS0unq9EG6m0zLIfD8RphTw3Tnvg+uTeYahRwq/QT348JezVCkg0VSJA2nn6oe5i7qVIm431R5wLO8AsQbqjbfD2jYkxBydM/ds4KU8ANEJB/h+dRcgxkkv+3h+CGDB1mbheS2hrIE9NNnY8CHyE+D6snDSPz9XdI4p/4flTUORWIDeX/wsiASjT7WlP0PvMBPTEdCVwtBA/Ljy86JOHzM/pjD3+8UiQwRRgk/+d6D5Vh4Pi/5BWpcYs48JbGxrC9b4aN4Qj1PQx31G2ji00w3rO1z8Y9EnQcAiYTuTPfYv7fPRD8xfMWCLcQ9jljjypn77JdL2N4waU8nRvAz44WjLkhf83qcn8igSSykbtx3CNCgaRRASSy4W2XU4btfartDEFIUcBdIF5AMXvZeXndrue4wStE8DnZ8YTI3/ITtJ1C0/zCELgQDGe7nFpt2t5H6jwYju8H8Ztk2sy3HvpdqG6cvrL3UdnxpMB77Q54KxXfngIC17I27V1fA1YiG1GObGLeM7uPOMGrHhE8hAAf8Ug2Aym8JcdnIeH1ZxojQE9kQwEfEnOdCARXGplkzvOSNZ3n3P8MFdyNAA+RwQ+luygXGGBt2rtpe9+DLIly5BPHCYsgT3G/z2b1eYziN+j8ntckw797XUF/ZzR7ONtFhel434MkG2oan4ibaXNh7KRvTMpNq7TnvVd6YHmFFvxIxBxGkf9lP4sDnMXS3ED0y8SfAcPwEVEgZjzpbQH5fGV3PTK4EwHe63mIjUc8Bf4nqbMBfeK714QBB0jg3M0uZsOYnDyfpXfsckSQn5wEYG6mIiBzG8vuFgfOLspFawP5pTB68/lEbHQsj9lq88DuBau400MgxD8D8P96QMDZRbkYDgQL+XqT2/0QkNdpyJ2d8wzWrB50FM2LJe9V53lmxT2u6EcCzi7iwXRgNtlQJU7xZHqeXQ+3rDFzvt5W1IOOCQbQ++if8ZCAs19Zi+lAM1mkQIBaLtPcXsZMLzQH092oNgH9PXdMZhrnGKT3JUxUiWymo3D8IBLMG9ak45z5fvLDsxoTWpd+j2lQWwWmyXhgFd1Q8yHkmb2J0IHknNqx97lfj2O6SPp13fC8BGnGfywD6p4dhIvohipAwM0eGVrqMjm7M29MCLEx770E6CXFc00ggxEYMBbLeGAjX29q5i8LB5Udxmap7KBAb7djyignPRC9wuJeEQHHY6EBX6u6rTYeaGuk+5FUAQG3eIRoq+v7WDvX3JlXhqJnhL0it5AFIPuF8RFxYCyW1gb4UF4SwT6nbvVocSazFx3jsDePaaOHEeA3PHKUcbugwV7GNgltPrBERkcQhlfDQTzuY7XZMdey2J7GfyFo0uO4qMtyIdfposPAZA8OrmXsN75mPrCMruNMBLiD2rle/X5k+qi1TSF9VP5/MMHrH3ExGiDwdU2rBgTr6DqWpH/3PUX0Amye3c7XPXapOXkyppE+KwxSJ46veST5VXfmu/8soC+IfH4/W54tBgQX0XWcKj0wvQoCH6d+58pZLce02Dymko4jwDc9mvSKC8ofvcWLAQgubJUvzxXu4zL9jSrhD5mMJgDXwfgw0Z88e00P32m400nibgyF3Au7eZ6HUDnys+S+IAAB7vuI/Cb9jWIjXcf5AK5T+SMgvlFNhuxu7m5M77/yYgy4/jUAK9/+wWSPGN4q7rpc+HoBaK03IAjOpes4U3Y8I+S5YbLfqCaK16WTvUZiaulm+fGEKBCuCArT98pkjxzdJAwP8PUH1fGTJgRFKR0x7F3uGWDHkuPcxl73+PHWt2Kat1vkv1FijwtNMkR1uD7n9pkKsgd4+cNsXZNLkxHBKsIfcjgtkuN5QfeRgC49vXTrKH+S/e3NWUz5dpv895HgmKCkBNSpMjgUe19fvQbuAV7+HrZuCUXS0GHYw9Bxr8iF3eiGPd68dXtP/ksPO9nbfrw0iwJsd2PAnR4CqvT1+oXx76/+8JV+gA/w8of4ej2HGRFspOuYkr3jEUE/e4Kgp2fNNi/wPyBb2e/r8/u8TsL5hYFmGZiTfGWNNyKoNtB1nA5gIZjbPIxUsmVmZU9Mh5sQ3LeZl9h6/W2sNyIIFtJ1TCXp425VQR4DPqsmD/Dw3MfAAXKeZgRL6Dp6TQBuDIWi4CaBN9Jf8onvk1ECU1q6PVxZNhkSLOPK8E1CUFMU3IwCB5CD/q9yr8xVT6shwSrCmWZLCG58HCoUUtdj0v+euN6lbg/w8nm29gi92pBgo0/XcCr9xHT5MTXBwxRwjLOTJDHchiG2etbobiBznI6h42kxoVTOMy//q3DjbjhAGuswW7jEkCBYSNhwPv1ENncrnqfsE98/p3Ceh7iynBeYEkwQNhyjfyUPFZXz/IZ/n7LTk9UNJ9l6dZprb3BgmKI/8f05lbP8VsB9Rx9TN88rufJcYUywlrCh10T/96B7QEVwt0Dgk7pd3Tz3smVpTFCVESUIHW8Sg4zCWf6qVnxS71O1Azb5/H6u3s5V1hsTtDUSXqp1Ov1QdytcspT+Bzmiihk+DGcXFX0ZcpbGBMG5UhpCSB1/QtEMbyHyQtw4qmRZhiriYrH1x1dhUFAk3UE+VD6hcj0CBG9WNcuDXF1x+gqDglWUO2bSf82/phWkhwqeYexPadYEd4mLLUuDgo0+4Uw2JfqOdyhID5kXppCCPQmTg+O57CxylgYF1QamPgO5+wT95tFVrSdVEaQTataT5+tvbU13oz0AZzgVQdDlTwvqULSeb4SM4tubFaMHjuXrIFsGWzQmLgvQGULo+Bgf36sQXZnZt0LGOeKdatZzkKueFdobI1JhHWXDlOSGCjbz/SZCL4xAMfiomvVcQee964Kgpeb+XJLcIhN+QkrDmR6CoG8Wg5qi5T4TM05Q36pkPXu5+kiquKQDevujH3ksAGd4hoegY1laWOp4Bftu9Y0YblcIHMDzKtZ5gWKP5v4c8PQDcIb+NAhBT6hX0AMiX/ivQgQrCoFbBVpylcWmRRbs1pqf06XoDKdDCPoBYd+rFOy71WcxAwV1/K0K1j5Jp4finuV09+doa1UqrKScyWaq1M2r88r65LCgce39DvWKmt/DVc96SfDGbFaTO270KXfMJJ/JJn+bgrW/qVXMhrvVK2qer78EfElwudbEVqlQrEvZASHo86rVzNB6oZo/oVbNuwH1gLbcrjWxSzJD0h158h35hJK1GYJK1Rxnv2eFLKhntXnHAOmZ72fI3aFWzjfRakdHj6vUQZsMoJ4zMWex2ThJb+JyuTLTke6YTn/me0W5Up99y3muOhRqLZiH8cx6f52POYtNSnOiLFcmG1/KDghB/ziPP3c8pLvq9itZzzHNbaqQxAbOHaGYAz2LjSZf2m0u6Q6pg74sCHcr1sHkb4T9bXz4iGK1r+BqzfVWudqaPNXsYik7IDT786LO3lYr62+lPSOiNylVEpv8tWrTs60TmtMYXcdUBM3lol7Grreo1cHkX0l70IjuVKr2A4Tem9QhZ7HZkNWf2C7V0m60O+bTD1pRA2uCf6hjTyjTQZtcnv011+fJJLVnN7hMNjMgNN/8dWUyPpAn+Ic093helYxrIl9ix2y9r3bJInUodhVlymRDumOq1M0TooxV6lyvX8l7kOYqCmX9Gb7eB/JkyWGjRWkrtkw2/lSgqenGE+r0w+c3VeCDLphWAAnnApXPhtyzJatJabNMhqSDzpS7qUi56TI0/1BE63klEjcD+iMjaj4Lcc/mSdqUNkmDN9DuSAFwHk8o0w+fMv86u1yvStajbL0N5CWl2R+0Nq0i6xj2gDbzt6mS/OaXVeLq+5iPLNKbrx5Je/X3jiSLcgaF0Ow/LgifVSX5ba0SV9MJ5iWe2yM2B25P2/asZqVdG2TpoN0M6TfzGUU6dbtWmat3MC8BXZ8y2J7ilt2T9Cttc1KpXrYp10kjbyxSXApmJobmi8LO9lImKXN1/K1KJK9ga023VilqOrYS03W6VEe27sz0vBXZUpXeh5TkVBC7nVIfkSH8TnxQFycYl4ja58DqKVY7qZcfoUo7Jmlc2r198xu7//+i4saRXCET4wEEah3TITiHH8orT3dNpDXwwcBXHXGHSBwi9KvhQtTzxs1juzLd//d3Z7k8Nra9XM9ktTBl6h3k1ll7E3w13/x1YUKNpNTV/J0KJPfw9a4tLeZQvtanrbQ6hkU2ERjXElx/syIto8eF4binPP2fYftd0rtYmqT9aRutjmkYmi8qzrPDWeHvBCdSH/X/h5iWiKybK2DWXL+sm4WZqBZpB/XmS238jLhnh1Xnm5Xwv7oyN7MsIVkPgvlUTNiSNQM0QqnjDIGYHkqem05hlnfLUX+jdnlMHD7CskRkHZ6DpWdb1hAg0xbzW5c67aaXBJCbLp+/SWl88in039hXNbkR7xVIcjm9nhVi6sbC5ly+muHHFOaHz88KxLPk3wHLvplQmEd4+cOMfRJJroFQ9O2GapoZa75ZnLhFZSZWp6KHABVWlBESNbHWjL0nqQPZ6IyW3TP8Wp+v5vI/ziuKy4G8aCn9L6nN9dw+whMbma920tlGZ4wCbYy1g3hzWO5Pv9a8orjUMLw75D0j0IVZH0zy9Ug+4xo2Z80CthLqmCkQ00K5hZrMx7pDqMTwrjN8G6s+oiVba8D46x3oukuzEWSVtE0Ut+FdQbLTHUDx5g14VCCe8/jEbYIlY+0mMT4mY+572SfenBnKnWxWRVQ18RIsrB6qAzXBkrH2CqfSfBgXM8SbU1sk71YP1R043lsRU3n1UOUES1JtHFFHJpkHirG5hHpzPojuWoJNnWApuRCqUhDdKM8fUTwd0ow011FvTg/lFscVQ5WoIXnrg0zlFUN1YByVfH0DjqhvzBoIbI91rVbiTU/u5vKP5/NKkc0mh+V9mPBZxVDVUMnwhTNxRN3WBUbE+VzqzeFQ8uR0Io8mq8ah5CiKgIj8TRyeT4FKNp8NJGrGRCDbHmNQeZsYXt06H1KJo8kHhL+1n5IQ6nBaxU15WHLpmTiiXjbJSGAroaDDHoip72H/M18XaKMU87DycN42QB/m8UsC0t8gz4DZbGezO2MNKm8Tw+sr78t5ZbB5GND7AGk9rww2FcHlEK2/VxqCbYfeRi/oGIqp72Hz83lFsLkD0vv0qlCRv5lDI0SvYO8LzqQX1am30Qs67KEwDq9WhKeHbxP/PjqLR3zzAF+4RXQ5SOzvpwNHUrqSqcC2WK9vlXpzuuyZOD6mBE8P3+TOW78zGJf8RxJ8zXgH9hZhv2wWkKR0O4njo2tXfy+UtCnWGIZL/g7GTvRyxwfMCPm7+fqSED0Eb3Ke0w1UGL6gw1NhGIcf4P98r0RN/PvEMiaRv0MFIuQfCElhNpDPf7lN5gJb6Hzgk/h+Sayx7C7sn+9VyQv3QSXyt3G2+guoP7eKRiDtHeYC5YBQarqZgo2lz04nMvhN/H+vSkWkqJ4XS7ewHz1/krvP+06nv9wGkxK02ZeTRDanhUhUnz3A/feqetRBsFTjY2zNdsD010RUPBtU25RspgKAsfQqwcxOcUNHTcX418St4D6MAy44E0h7WyeMStC2ueSnvpcuJKBie/r7HfjeR+SfZZxvGheOg9x9+kj6lzhcA8asBF3iU5/67rVAUeUrCcZLPYrUmcfGXfloLSA26R3MkuuGJeg6WZtijeVXiWZGiis6giqm+cC4SzpSG5xCswaMYQna1kB+6nsqKb/qGdHMdMlHNOlZnvlADd5HU8VsJO1dnTAtQZfIPPUdxp9dx4t50cxzeSxSZ76plncpIqn9xJrSdjZbpNScKdpY+vzxovkAC8UdHVGVeGbFA9dfUrAxbWezl8fapG/cRGDez9PcfrO6G2eJom+4wAyXl+i97+mAaZuY5mL6xoUwJDAUq9+sErm8SzqyKmb51nGAn3U4rz0TSHtj1nRgd8xNWY0FB8YyVD5fuwl6+Ug+785YtFV8Zqi7DeIHKcxsJO2tXWFcUtO9oYG+8XAIxyY/fgvys7bd+likAarK52+DfjqFK0b8Wc9zo206bhHFYvrGUymIZSfy+TyLS4Pe/JxrhbiKy6+JnFufojD8Wbc6b5uX1HQX+bIaiw5MYfa7aLob9oFkV4wAcw718y9u4CCHn+zI/hqD085m20k1Z7gRWP4rb+Jv3JybhbyNC18TqJ9/cSm/LLkVWuFdLpsRuaMEiwEYN4UU6ONfZ+8U7gOVfN69CHBt8jUP75AgP1SIimjaxqY54fMoin3cnfF1cw34x+aWn3eDAuDxob0LOF1wJpi2EWmSSmUz/BrBAlGAfD73Vqgx3CrAOZfAesDGpQgE8Vo0bXPTXALAuBCGNAIwdjw5Ucnn3TTCYMOZ1c01nB8kb32NYNrmsVnwxOayoRHgGbaOJ6c/617BzuMB4pMjwb0nhs2h2F7vqG0em75Q4+GQCB935XjyAYiZZd0uMAK48zUB0szF6AymjG9y0jYl2EKrOSY4lw0NetGd48m3QtS6FR0Ns/Q1cds41A9KwxEfSY7ZN2ZNCXbFiLWyYhiQqH7crR8/wWldL0ACuKbkSJsfp1mKWNrbslmz05wLQUDjWgac1rXoXHAtg0wL9oPGsu9MNG2z02z2AQSeT+annwHXfvyEpXWzQGJelDdV4H4QeM5B0zY+TQCBcyEZ/ljeJboD0w+evJToMfe4FiB6hJfF+8mb+vpGkpPeHbUNTzM4F0HgJjr8x1wcUL65kpelgBoP/Ur5mRreEp5NUbY6wG6Tgq0xYhUCMZ3QxsZd4/zDB8B4uVuQMQtON1fygMsFFKW/xvG9FzI6qWw2NkAQlBj/d6u33vGcy4UlzmdhfE0cyOURl7CfYkk6e81HmZ9mky9tLhtIIlz1h67+/Imi5nLhimu3oniEh7kUzyJp7ezmEZif5kXSYoZYgZFrAH7+zIzn3S7o2OUKhJokheKC61AmvW8yLNgd0Mo1OyxaEOp83tXvVrQNEnfU8q4XfOx2hXwNdWkmad0SOLp5BCao2Y9CEHNwNQzl71TuF4TseiVB9vn67HgedglfR1KuEdc2NduRzPsYBE7O526GXMs/EUU42eXjNlTPpQdeirOxWF9uXLC7jdbUd7+ESoQDH/u6y1S5leR3KgnqQBnro7xEppKXp1BNMYtl0vsu44LsCLGp78OeC4JOylmkP4Ambqvk5Sh8cr6SSdCKDb6Es7FYv3GSeUGZ2NR3f5pYQY1hfru6+W45vlN9I4pY5fx4Lk3oAZ4MuCLkVjY5yjFrYCjW5mJpMVOwgMv5fO4W6RcU6fJjpww4GsVMAHPIuzunEeMDvHx+fE9IGmeTxGoxbdOzuNs6H4ugtWyrBCMVZD6GXMnLQo9FEWKWYqTbPNk1cuAze0PashGL9cikrDFqts1FI8hsfUqWH+wevlXG71c3d9HIgkcBUwdLo8iOSXnmXewaxJ/eoWeDsd7RFWZo6vtKEIIePyPT96s0rG9U+WdTjwJnaY7cJKR6fNf1uXp58AD18vpGLNYbJpkZbI3V2AchqLIsYSu3paXouyXX8zcqWkPC2cucXFTJpaXouil4eDwvGR0avJA4XkuytKBuf3wdWddNPIvwTSe+Lt03rMKYm0/U3xpTn2zZa8COKN+XRGbM5Yd3vfbJMj+OY7nGmbVJak4AEfRGlI+e6zAV/mNoYuw2Ob9P5Y93mEFnOb8kAhe+JG7NdRwOkPP/CEMXhvQlTWuHk95NknEShKDKsn7LuqNw8wHnhwLGMtmefCXU9lhAhyD/JXFb7uGYVt6RaUie5Wrnk97N0dT3lVyLcPmLXUNI/E2r8nDujuxtt2ZuSXelQiaTyWZzuUql529SUmo7k9fgZxJfEplM5mZRXxLSxUcgsVgXJ5kbbIk5Nx0OQTI8T9SDFrsVX3RwMGRatjqzNkzNYBHbIgzffII0yJnhTWnDFV4KQ+WQwc5OmCZjDGI+0cUqB/jBkxEbRJolj8G1bAocX8yqUZr63nYuBjG1hSi/CMFK/tw1sGfAM4TD16L40LBEZm2KVl9fCUIMh2HIYAg6o8UnVidhfAjlgokc7DI6yF4eIy5twCIIprT5GB+l2ypu8YryM3vCkHG5wqm1eTLuByEKYRhSDZFmYrSII3qMFzMYEo31jk6YJ+OLfZmF6BHoWjEUU3kHA/4ZmjqbZml1+uITMlDGwUKZhQsjEJ0wh9/qyYgvSrFxPj0M6ROVTq1NlPFFQISiWSW7aeMW5cH9OMry2WeCidzWxdpEGRfn+vJSSSimtVwYqpjVszGdfxdXnGD/3B4snyDoRCM7tTY+xuQCD4sVw7QPgaLOaZOOzSuuOMH+nsEQCJpn+2gi7zRAyLaTC+zPcGcEsjltkJ9/F7cox68ModBrqUqnK7SaKuPzZRZTxY9AebA/xnv6XRcvNiuwZ8dBkWdRlU6tTZVxwichAH7wYjf/b6zK2rGIV/oGZi0W9PvmNrIrr/TbJqmFCyOQHuwE2tPv4prKof1oSrERTuRNhgg7Y8VauYUb67upz4y5Z3vOEc+qE9i8smhwNhwZdIlshIzJre7m+1NFuwBQwowT31QODuIpS+lKx3dqxlwFvshHkcxmRhiqjjL95ONRB8U3lcN7w1CBZNkYIdtGL5eNP024CwDl0zV4M+O4r0DNEs99hll/jVNrs2W8AoaYlgwB0NHS2IlRTJqnupx9F99U/G9EPcTgP4WN3yQgsiEKTC+XjT9dLBcQ4L4uL0HbE8/UME1zV4UKsvMjMeEFqnK1E7m7J5iq5PHBMh/FCKkmFIiiKNcRNo3DvktslajUgT0Hcw0iOYso5gXOI5utwIkGGCNMR4Ce/wITO4ah35V+YuxRFaFvPItq6uI+QOgnKwVENluBgyUwhDefPh6MeqOxJ2kPk+x9kntcEnr9XCNg6GuEJU1X4LW+3C5YJ79/OIqFSqUTtVGS/vXen61XjtCIsgotBzQEILnDMCGbiP2SHmCMMB0Penge/6lRUgcIaslc75p4JPTani5QgWsIWC9ya5O1utsayQVU1a9Hjmjs2IkOUxKa7tnn1EhBXGM6irPJSgGRzVfgYKEv9QhQVQejTnJq+lRJ4sP+6dqTx2KKqzojPUtWcwJH4OB1Blxms1ti78bhMh0MnBz2f/Jp6VxruSd66FMwBUHNadyHZz03QHJrNmuExQykqvdHQunoV7ocI6hJcDQg/WSu1IOtuilIaUzJOWTleiGRDVgum4t8qWkqUNXJyA3KPZ4rdYxSc+Up/drokznnR/aV6jl8n0bfOTyoBkP4K4RENmG5bIrnAnGZDgIuPaA49uRTuVzpmVrNWaba47VabTRX6ohXelQ5KSVv19o6UUHQj8bHkMtstp2kmCZaRRvyUMeKMl8plcae7EInouipzgFKY8fGen/0oKZdch4PMC6VMw25zGZ3kBTDOFVXRHQoTjJd2+E2E9OcQSTL2aw5FjNEq8gjnjR10XVd2+fPtetwEEtGOsLS2e6gDbLwp4pWkUe86So23LoezQswOX2Q5DZjhWyCpJjpgVRd1R1x6ij1Z7tSDA8dDs4ejmYE9MX7ofggktWsucI2mqIEUrUn0jp0Egjm+EZdZrNFkmJYuMrsoDlj1mU2uyV2Ib0Lwl1J7tXEGKArA0Mns7sdCCST33NEbfbpHQwB2ascWax2KM2zGBYtZupY4NBBkrls1kCLknCVsUECkizuyhppMRXhUBoHQLYJ3YdJbspmjbQoiBYlM4Pm2ZBk0CFNnViIRTXfyOB8H5U0dmKtj0VF0eY+rYO9IHSwpLETgexihid8KL2KfSBuiBhZ5J1KgyfW+FAmv3sFzQrWdf56p9LkiUVgVPPI4QGtgyoALCOsa3UujV639CpwQ31Y6wDClHdc0uyJJWBUJaOC831Y0vCJjQ3Sq7ANdY/OwREAPo24pOkT/ayrDuoc3Me5boVTafzEpQ1oVPoUjOvmOZbmT6z00ah0KR7gO6K/2qk0gKI4l3FVWufgw9SNEpRl4FSaQLHOB6MaNiJY4uOSZlDU5FcJFwYEzZR1ScfSDIqyL70KlxjSORilvjor5SGcSkMogiYwqlTSeOB8yqXVKMpsdqsDAUY1X4vi/bRXZ0U1xEjWwNEGZ8lsOL525av07Dahm8+lLFfAkebi7XLi0gYwqjydC3nQs5jtkx6CW6lz38SUVoFRFYwGXvBRDVHdZeawI4g9mQ0W1VQdemEuQ5THQjXElmzW0AmyyWz8EqTmPh2Ls0nL9Y6lWRTBAiyq+RoUv0B3LFhDjE0ydnSZgxGg8AwqWKlftwm9LOOjGqKaNXeoB2RH8McQdWhXFGfT9hEoTWG22UuTPpKhWgwFZvu0hxAnzWG22VVIVKn5+hPXsDuWX3AsTaQoLvSBDEUG9+nVbb8vb8Tl88ZJWbMnYs42+xMX+0CGKpgILE/Q1jmUdcOH7PbAwaahcdjM0J+oktw7BS6fTVnjR+0O0sfjsCnpzwtzIViW1on7CJPGMZnNSh/GUDn9eSEPBMeaC8xnc9YA0ogDFxg2Ke2JIxTzy+Ly2VA3gajHPsLFPgwbMr+5Fo2z7XdejZKihjB8I1B2GU4hwUFtir5GYD7VbDcYyhGCS5MkWAfjQVaNkoEL0iTukCZY5ZNgHHi/Jt0m9PKED8wnnTWG1E7ZxZ+Jw+SkJsUS4mWFqCEM5ghrG0hwynkg3YnHxvmc8e4nL2E+hY0Wfu8nbPYRdJao4HtadNvv1UYfmU/v0kyu73bJXAR8mvbc+PsorbXWqU95B7tZOUPx5hW3zqfB0xz1n5bUnvg+IZzrI5vyXs0aRtroZPI7DZoRuzI37M/XnkhTep+Uoa4TM4QBdbk06RNRTo+xNrPz5xEq+AX9iWWNPrIp75dljSONOFKRqcRU60La80IevsdjAhvfXy9mCCPqEizw6VRm5HrUjPV0zQC6E1fQeU9vIj/lXch6bobUZS2tubYzxzqpMNzLnUklgmt0Jxb65HVChjCmLqt88v8bpjsv5OEqKvuOpI41YnyMqUtx1KdOuhN7qCSwgTblPTHJUNJmJyqKINjcr3HAYYSkIB+T6rKKR6FxwGAEPxUISRhvJF1wqfJ6E/tIRCCvE+9jPhdsDcosiqP6EkvPpK9THB9N+97nvpI6zqOx8XdtiWWN9HVu+RjOPcwVF/jEqUVnQn6jueRLPnDJx3TuYS64mPzcd32P5jnodLms4aQdgYOA/PGDmhKzfXC6asZ0IrsZV8C0tryQh/skxyIfnW4sazyRKQLLZqPl8UIdnW5T1oDSdkcq5gIc1JFoboSn22VCkW3HpRpO6kn0yx0dnm7rJCOKOjCVn9TsaD7XR6fbkDWkVHKkYq36ff2IhI9OF3TRmV1VsMDnrHpS1+AembPFI9CJmPJuelXVeQD+t00/4qDEtx0So878qtb5jPFLmhGDDfh0OzphgFVLGOMhvbhN6OUZnz5aAxFT3k2w6tK5CFiHo5oEqKt3wAyr1voIWDNC1gHx6cayHWSIVavYYk/X4CVJbxYBSJ0pVhUXQmCdiCE5r3cRpc4cqxqY4mv0IRb5CLBGiM4oq3jifdrwt+IweCYCrBCiM8mqYAIDa0Ps4WjCu58MhOiMsiozFwNrQ0i4NCsCFITozKzKqQ07OeSXa8K76D8Xps7UqsDZDEvHWnCb0FUMJSlGZ5xVxcVnYqjqQbCTv8afJ0BncukyRzYMVT+FF7+5P6D9kuWvgYCU6zpTuw/4YJ3PT/U+vFi9tHaf+ZnQIEqr6zrzuQ94RzYgqqzjdxdeXL2vpFEfgy5wrjO9tNmJzSiKKueNNXdf2fUzj8qVjg7EWCJu0IzpVTmyQVHlfOPv1vz8ZPV+8TOhF58J0ai62/wiu7MIz8ZvYRyXLvgTDfNGNWjtoOa01IdoFOycZIKp5MiGGR4HjP2Wwh/+uhK0ar+t+D9Kob4GEEYFwTuPNNDp6YqLeeGDiL/zeoS1zNeq8Ne584r7WO/PhD6/EaNRdZIhxq6iIxsYzDV+15AHMMvf2W8euvvDatNyFGWFyI/aJXM91LoGGCwJIDs2O2S+Xnwxbw2ik0pTFcWj8RbHpZQ1x7TZmQ0jnH4UsmMgs5G7WnLml1fw+vm80p8JPdfHaHRZ1iBj98bAyRrsOJhnXBIHi5I/MXf4sOVaw3+rylSd54PAGkEJ6Uy4zQIczDJWqAL3vr9W6t4C7KBm/2qJSYpeFEYiE9KZ7qHWNrDB34sgO/qLTwSXGua80L1FBB72S/yZ0GyUpsB5QjrTTJuc2XDBVyDGNxAP4FI0cq+WuTc3LHuFqXm2j8JI/FhGO99sUATCrgO0ozrAycMvS9ubRyvmcCgzMVH8goCxzDPtdIK2hUzwL0TQHeFgbu2iNkXlYisyhrzINOZyb82HYSRqLHNuc+lcHnhPhN6ReglfLiXzH1dhOj1pgCtWYpEh11+81iBnvG+aZKbpMogBzkhyixV/UR2MS+deL+fTcXzVwkDFUV2pOseHadRVZ9ZtVvkcVPdizufWmg8sJErh19aKuEx8RDhfNUxU/K7EnwnNQfELolZzM9I2zgIwUN0XgXaM8OTRWqm3iseFC2aBrbhiVlUCUlaL+pRXM9M2GAP4SVax1j74TjXy1MIbZvG4Rr2hMuhlUVMC8v9PW39SUH5ZU22DMYCfZ/XCXM4hN5SEwQ26bMzfGenkGqPVeE6L/H+8AH+ZF4gyMvA25Qb8jBnL2ExJ0GNnJWN+eZV1trJCaVsq8nvX9+Evzo12TDLbtLOIMYCfZxQr7pwBb+SxA24afv7Ncj3rblAjud6UfldkQl/8NaKMzLxNsBIK84nXPcS5h6gRr2P/WWmYsyusk2s8+HJ5kV+7Hi1HX1a4YWTSE8gXJ9DzpyDjD2503tajHPcUFqVZpu4fA9sO6owlLOJBLT/7vVrzgUQQZmTsbS5dAJ7vQ+0oWoCcDp1jJP0nbxfk/epap+yFDJ/VIhP4Mu8S92a8m/I12IOL52Ln+1A7inS9i1I49oId+MpaQT5+xs05GpA6mHuR3xp/BHwpqLKR1v28b13XgITP47GxWMZ0faKEFRghgA6GN4vQCq9HRFvFZTcXjZfr+Nt4qM71gUbYNMmU0+bAWXDk/GHUjnhfVkf5NLl4It6Xf1mA16vT9cCqoIsSvGvKdSQoZYVzo93GHNl2gQlnwf7yevpROyqdAa1AVokSpuludHiJO3Fr29Hj7ihhfKm+LDI9IBy+DzRCW7cIZtym6iw4cL4nAu3IOukx8iBZtisMbtjwEPx/pvUMOjFsL5/l84AzujJ+aVFk6hffizTC1qxJpx2Bs+C4+WCE2hHuyHBblq14yjpDsvAp/fLYtetOl4XiFcLUsdB2RaxWkDquYgd4BKOfzqYwFzYfjEA7ohZorv1vd2oPHVCg/WdvT93ZCpyZG00j0CWcbSBa148W+VDgvGzMmnbaFDjLII+F+cMy7rAk/W/Znm/l3pz84p1pohsvnRPT7xIHeWWCWj+o35+6exOWslqWBDam/NIegnWdQLxu68kIuKMoUQfIsSAOI7FW4No70yNx4mzKwJDJeOBWFMRww9alJrFX64AluugENsY/nU2wEg0LBHBHtBQS7jeqk3du4yDBlJwcXnV3Nh2oUfBMf2SqcEbbunb/xwvAlJZAXARrIEDQDIbzvGEPd9FyRR/K7QY8vMMOpkLg8IqrcYoABc8sUNdBQHpQuT9192RHgRp9c9bMUylwNh5k/t6jsB1TmXp+opxgIN+cdjBLr+3uzzt5DbqjZSfjxg3jElIvgyA8BGa1btTigykCI1gFATZ0jIc3Rd0VEWpHkZcHx5uef2+LDCO5a5HBU3P/2aHyr6DBQkYDiWJ7Cll4Ck+Lc61qlPfBoCAwgl0Q4NK5aH4Y4gzLnB93g7szGQwk70k/3Cjy3sqdX7mx8+RXrzguEK/kpJWjQhYYLnBmLi9KTUOiYoCJrtYRtPInbO7FgPkXUGMfd3yfjnCTOXEGEC4S+Oizg4D/fGeJH143tGLaMg6OrRmRoecr4uqyWPh+uUlQDDDRBUawDwKsa4DLeyLgjm7iNDCizgl8sQsUNTc+WqD4fOfE94U8WQy8SDwdg68KY8Dzlr9XboJr5rcK/AwmthACBBM+Gm7hCqt4R8ZT5NNOLMpO7jlp4Dn3Qnz51XvOOJnvg8WCMf2kRPDgnUYrdhwtcP9NsWkPWjP/vGH3NjZl0NdsdTr9HeuIex/F7QheP56iXHBqPFw1425cPApPJ9Ewrv/53gX8Z6tXoL1TMMBJAkcI53wIcYDxCjDnFuUmsGZ+0s0IdsCarUEzWN4XoSYX9+lWk07Rsw9uhEx1EIbg6PYf3myXXj/89z2ou051EUYjS0hY8ODFFUiw3VpNpwUnp2YcFcO/j7kgWILnOCdP+ImDPDenGD4iSHzKXCBAns+uQ/KYKvCT01f2bvQWjlgdr5izXgNNNFwaKA7NZBqCbB3NBqhXy017HZvhGdCNTb7bBglni3g4yRJWXCzDHoxAeegyRiDZRkH4cPLVCZ23og+uHc1nBx30zVZf2/+JkyzpdRwotjPGgFaKOOJeXAAceNlbRr7T3DVwBhQRwQ6g7YHDVdihMmy81lYob1wkys0VG3x2lUpHh5wsDk9Mzgtq6nb6YOWV4WiVt2EY96+eNvqUrKH7z/EIOoS7GChBYTkFAI0bQvFSheg8RGWFLVGy2ZxDTvtwqMUJkDs6utk8Ha4tsedN6XIx980i2B/nI2LTkL1tmrUFWgoKNZsfjppSg6BIBSAhFIzA5ZCj4LTf0WiABhQZ3QII7jSfDZ7w7OA37uKGrfLi4RpGmJPjLn31CBEJUEeXt/qczRxGwCgZn0ng+oE9gRIxu/FYGHHbS9ELTrVg13Kr7rYIkHWWcDZY2+jDDP8p1PgHOPKGvjiHAtjpF25/eIgj+ukqfU4wwgM1cS/mqb2wE3CQDEONkEch1XIdg0wMwEFdXC83OYyJZi03EdFtAtSrjhPUoQxxH3BHdLD532Qou+WGaOhez3YDHgmSMDGcDAKBUWIOD4ZmCEqMDEogh6MQ4QQDaDxeNRwcGyBW6k6r8rfikARV1gvNFm8/BA8mEP3vagsvuAorzpEvriDI/LqFeh7+ooRDtgKhVaF/EWFgTKLkVBcEm8wPQEW62e+nwAOPTWtVeNxaeMWmMIbtz+R9VMWlbPGmP4O806t7wBjiU7Dx31ubT7qzB6+cenMTsQKFQcMhxz6BiB32zJIRVOMdhQkStoeHExiBjIduhIjxIEif1YJa5sEqLkU3/hnkHWechRjiw7Dx0fowTLYbBjPZh2cv3VsQdNs2DYeMA4Gi3Rt791jiDpS7H4RPIERUYkQ0ZrIppMHhoUC4ihKU/E8Z/FPOvLBcUJPYjdDYA+Ph5SQj+GQdtu3vYxBeqYWSvLfLVHq0ewGMMKFXT4B1+l2gZ9+ekFoCuYgakCZHpDBkCSuBuIX39LhXaurvGQsaYJXVrg9o8LdJ4zSFPMIQv44drcAm3KzdOD+f+h046ci6RSrTTnBD2BQiDiCwmrJFFIxQyJ0z8+JZOIElhZLxu4HE01vj8HEFqHMQVFjh/oB2wjZpguB8H2CIg7AxJxqGLbU+u7MPD3IUCgjy1HWmnowMQhrs9ZM66iDQyBCuvfDuzVUU4UCOlMfJw05UcDetpuO7wzB8U3xaNBdaETygbTCe0xTy+KxGoasHkoI1Z9kN9yA5N3L1NQLl70fInRFOQ/fdUmApCkDthAESbgIGgRcRhRahhkVmhQP3cBhKTr/ew+l3yEuxo9gLXETMLUxA/7R3a2KrkqfXlwuXN30Xs+w1Do8EYjUWwmYiTsADQBgMDEDzuAWqtsSmTsstO432WsOUXVbwhHfLYrzqwjPRWZ0EjsQP3c3Fi1F1IEDFA8Lppm/CcRcAERvCS+AVCQSRjQ8WNQHDOWKQQBbiQhij882Btg+LTfBq/nkCyrZJdgONBY4XecNkxQA+aCnVwMkzN0cHXsQCRE5fMJ08e1dBA4JBO0SnZAmrxC/DBkYGgzl2cMABBKdQgTmD+v6dgWlWaqot8n1w5RLBE97thPEwcwsDSP+wey8C8BgLQC9f+vNUoiCBUIsxA7WTeJ1ghIwTuAmcTkAuhkLGFgqiEvxGrPz0X3oowPPX2A+0GTL756H/22d5P0XDBrWFmzuWsAodducMvZrvnogcJNipTD/F6DmWQIEAZa8Y61UBA7IxCI+J5o8HuT0qNf0rvCI8f42VMf29kPaRWV3BBoZjdv6Tj5qTweB2UYQIyBAgFFQrwwAyWIBDUYgAuuuwAT3NnnocHt5MQ6AdsTUdHA5VoF9BX944yYrA7o2Y2c9Dx3tpmnyLnP92n3idmyu/nSMBol0cADYhF670sqPPkQI9py5SE/PZ81cDMIEnAps3OhJ0Wmh6/LXgy8ZMb7AZpr873lcFKiX0l3bYet4POO24J8feIjEhnrx9BcnI6yfbwYL1SrwIh/cHjFQMDYwSNTYx1Z5g4Yge3R1StCg0/e4cbEVM/hrLjVv24MbnmT9NAEDfycHPl/49ufsSkvLkXZkDEqjJSIGAbc5jceqG5IWcHjmAPB7TV6nU9Puz7LiSze4sgmY/eR9sfLqe9UNOPMqRj0+ePN7XRZgAESlPPpWh1+l/FSkw4KdWuZGhBw/jsaGmMG4Xjf4kfVbslswUyyGfDWr+AvCFYLJ+lsTqdPper5Lq4n3s5OB7hPDksR0D5T2Ogd1/1uvmogNAeoAIGZ4YOo1ra8igT4vdEnlp2znJrqBtqPl9sPFhFg3DJmXW2Q4IZRtIr5+8fEcgKCeS7aGz/ySDJyaCBy0f0HD0IfEmGjFIiig0XebQx8VuCbwEtkXJZreA5u8DT2STuW2Rqy8NAeXCW3gixw5ATCEjR15l/0FAjUQZChgPkOaDiiGEM1yC+vSdIYs+3G22XCMmu6wdx7cDD9Xlh3PxxoGAxE44+2pJOeaiI0+wCIzAYAzLQdaNnX8OHODABDSwN3SXVXjs/SuwPFcHQnYpZ6OwUmIxyf65PQcHPZU651MX3zMnHH9GJpx/c1PwKAbAUJ3hqvG4FlePwrO5cpb7a3i30PR7Z8EuWybZGbQJMf8H3Pgsm4a7jy5E8PPp0tNHI4DT7bzOO3n2rt8HE+Tq6x5dRhkECIGRhqcBQEk9H1cLXX/QYNeVbLYdMP9iBHxnNB1+jsHtl0F5KHG6nYwF5ewHYTJnh17OjjeXEuqtbTQyFSEQR5TDDsRK8fXQ9Z9su5LdvREwR0wY5r3mjc0BXNo9vU4sOfvK1yec7sY2iFjojtx9azWlJgB4JCIPpkuiy5q0/FfcxeLgKl6+Dza+ziXxvbEiEIAS7OGLl6EH2wHMJnH27CmIYIybe1IwLppLc8SDIXO0oemyA/2v2Lowl82TrA7ahZe/AD7TbDcVbujBBwXdcU8wOK0fQezEPHo3kuXlcBRKBSOSuX6VXLBwE13mtiy2Lshl06Ss5cJpPIlsoGem6yhFvv0BWQthMhkfhu478BNwRCqenfwWEEcJFBJGwJEHElc1S5OhEy12i7qSgortwuvR8Pexd3RlKvddZNsTDr3KsMeBfFW6SsVDxIBDAYzRFeZ2TwA44M+o94du21eLXaKu5HoxxQLhNqx8e8RQRw/X+NB1MK+nH9q1B2/KJoAogQlQ4YRNLx7LYQKX4QCO7gtxHtkj1NFFEncsvGXjJCuEdjrnBWAAvUOAsutz6N1/hu/hp3aZo2dUwvXnOIKHCVipnHx46kPlkvEEz3/avQYfLQe47J5kx/ClUHgCOMa7wHHIX+62pov31p5S0sgcfUhU6PqjXszTp3C6zvJTOMBCTQ9gUPPDoftWRo0v23olm90RAOVfBI6/EoLsyCs9/Lif6hxAPghPRgECasvs+judY3zf1NPw6YXng9L6IEd2CX08bOca2LF4KXaJ1dZgw2woiWyQp44XQ0P/oVPZ43PrrNecYTSaSISDAEZNXfr/kf4NrTetMlalm28P7VapmqO/BrhYJozyEpzui3gI6jirTQ9nwuvvpMGqxAR7FwF/CiIonC7S+IGAgUujMTI7Nnuybf4qgj3tHW+xa3gpjkQ22JsiK6luhwLIn4cKVSUCBE6AOA6gVLtM+2MHLTq986eaVv1QhHvaO9xi2XDQjCORDfCgnU2hBr1895fhgPAgUdq5DAI4g41ArnG9EbgAtU0n9HBcxWr+HMe097SVU7LZLSj5+xH2ptDKz3Td4ivl5TkZ72AZiPZcQeq8PchUvrMYMEU3Hk9vSYlaaY1+vxHHtbEJKjYOr0Ax8Z2Hpqhz7Od0EJrooPz9EFPuDWUTb14XOIOz/CR/azL0uf0lbHwVxoUoiyp2Dq8EAezOomncPqNvdbf07z1d5PPZ80//0U5gekCvKY+q5oJTvXL0n2BeV3rwxo5i6/AqAJk7z9gDHX/bCeHmm+1idVzDAX9M0YujhzMqFUSwSCTqUe/WEdsyFSxH/4rirk8IyhVv7/BFAPgXoeMvv+MOHW2euXMNyCk2QGC1EZIdruRb2fnxY1lXxXL0K0CL3cNzyeOXIuhU7AJX3LeX5u6QnRcpeJWPl2EAGdIPkPe27tHGoa6rZTn6VQjLrAsqlg9fTJ+PRAwYuxX2cG+u/mj8g1qmEHC0gE5R9nZCtqLlYwDS2CTXCCoWDKNbt/W+CL6xu117+8dnjk0x4K8XouNsPmznHi093k5GAypb/so5CLLXiNmjnA3D6FaF+Y0IvLEMNGmaPj4+m3vm9v2zpY397aO7w07Z/j7Cjd+dg7vYNxnqqrPpJ6bDnptOJhpPjo5ub4vt6OjkpOdh9bZmvKqlpUuLKpYQt51PGicj7PR33wFL/xRFkaKlpWu6RFCxhjgYJZ7IBntgtPhr5PgD8tlrxFwbmx3IV0Xg6R/A4i+R479Qn+4u0ZWrWiWuT2H63Xic8R/Q46+IYAdJI8eXwU13L+6YlLWOuJFuYjr09I+qLKN/pT2kmLs+Yd3whiBAdYkPEXyhyjL6FdJFznsyY4c08AHUBqLvg89/DxQT2DFAd5V1UcVO4kvPJQtVDvJZBB1Hfw3YkBs7iq3EbcuIJqaDT+NYpWqljfcCUcus20sceGQT06FPTqfCMvrK2USvc5HKyi9WR0cTINpaBQd/r+B/i1KWnubQjC8oGZ3dwyMBoHFvjxigfwIaRanSxp8nqlg/tDkQMS5FKPEIp6Wn36OH1kvkSEZnBa3bGly6kNzO5TigIkyJfRkYevFFJaOzo3jD+QQT0+EfAaDLafmpAc8WaILqzkmWEG0NwCwL80sRC/Q38PDRovj0VXLxBWWvsYZoe1uAZVmYKOJBBXK9dVVa1q2lI4bLF+tg5SSRh7Lh2PuiSH1dPqgAfZlWDBenu1s9GW2Q7E/yC0yIvwXnUwMiFUPU/Dj7ii+dQwYfjpRXNXmvBvSvWGIEpUn2Ee2+TMQ0oFFKiWYVN+CHi10UtV7i4vw4GyijjZCks3QSzTIREF/CeBVadj0VuDakLTQBHkX4kxEb9A+wdHWgXwUSY2NMxSKaAI9hbxW384G/+CdUul0TNQmKMRLD/DjLatzq+SqFaAJcxF3Pa9dbA1eGtLFGDEZpJI5XWJvPT6tBIMzaOhZ+sZ14o5AQjaQSx6vnJuYeLSpBj48QWJTVlUzx1taIFy9QKJT/EVi++OJ/Fo30Zu7Et5dGpB8iYoX+EkyATxcVIdnN3IlvM41IPsQRXvivwBhVhObIbeZSfMtrxGAolHshGF7or1HNeC//Z05JbeZOfAtsxMJCElDNFWFmi6qQzGYyxLezssgH1WUyLwTDDY3jiFAXkjl3jQt7e7emwhPecuxvROzQ36tniX5vltR54oX/rresqfDFQACtPU/qhd2YGQ9Q9N3JZ0gmC6Ji9Lgqq3UWorpE1oXdVJS/+noXRK2XuB7DhspRR3Xp1pOPKih//vWiOiTlaKJi7JpkcdHmQIyVxAvBqGQ+m/+fLmpDf9Ag4WguxLCzQgRirNQI0VhRKUv0VQmvcNHl2e5WVUobMVaNMoKnTtKlQiSf1oUYNlcIggvDeBFbTLjsdkiYNhiKcba7nTYDfkOzbAuvs0V9ZAfa5VC6Q+tmonhrbQZ8sG6urAu1KmDK2U/r9Cv6smxp4l3cPKzFNgM+KMyWCirJ88WiUiTV7DiBa6zbZLwpEDQFXoUQ/fW3ySWXrRZJlLrGjelx9lyIYO0C+TZSoXwT4CezRb1IGq2b0+PsuAlz1WbpoHoT4P/pryK1wYphF8zsMqv2QAhdlJYIrIUgNKTSIF0IxJl1nx5noVnRUd7HHvf/E5UYKoOkF4g0s9do+wZRSlnAXQgSZsxBgkR0UpjZckrqgktXygH+rEjPduf/slaTqcANM6vPKliXlgEcKmU/n15l0HKJQLPtk+w32rGBRMgPRzzS30qtZRBuT44Tv8S63WY1FIgK6TqYVMobU2XQ2qF1IXeN/WYlSqlAiKK/kbDy7b8tRzxC/vPvgg0C8sTbZXnkRaWpUyBEY33SzXUfiyIm4er5d+J2Am3TUWZzIIhWNbq4UWhOK/8gVa3Di0246CVu67C2HW0TpSwscm2j0LzSxD/KVFMZ5LucfyfL/mfstbSzgrYpqUCIor8uylJjFa54uTfZ3TIcLKiONrgFbg3cDvPtv++oMQtXvFzbMIV9OFhQWOIieB2u79sun0vPLoR7uTGa1agMRs9TIURRuf8fXbRXGszt8JJmNGswS10QFFc1ugGezcf/SbTmH/s77NUGSa/DS/pMdLaZB1TCnFoFg3Oa+Ftx7tXxiU6N4mBR18Q17u4c1lacMRcEF88WD8bd/7qvKKCvv0vGGsYhchAXMtHZgEqBY7gErp/En/ibfyjG6JsZL3Q9HsA8hA3ixuw4S1ApsiIWauDaXxge7utCw8P9/RPdDwYoAMQM4o7WulRWRxsFQX9QTsRMd5e0NqZyfbMWQ9PFgTtaS1MZFFq1EISdfif4hgTah0qhFa2FBd1q4jczZScqhVa0FcLRQDQNOdVaf2nqxFa0FJLesOhaVZDW7sskL7aideCg5t7p9PaiU1VwpTHWfU7pEMhRq5YnWZG0tSi2MpDWNYit5r7WCh0zCKqptA5CQ/NwII3WWpwyJ5ZGF+ke1IuXBq5orUrKbAkE09pW/QK3awlZtbZbkxkFU+GCHkPfp0MQw/P1rm1+xrJ0Em6+SKug95rLm5+xLMcUPG/uPG2CL8dQc+e+EFiZTuIp1eT7fqRD0K3m7vl31qaTC+ajaS2CrjVZJsdZl2fYu0A/rUPwz+7UirnetPbmGDoKzxcDhOffWW39N6Sf8HKnl9sruNm1Y2gQJFw+/84OdYr0Ej7vgtfOrH1K9RGdhGFSeejs0F3ThPqj7a6XZTqGJsInBHt1mepu+1ZCjdQujmVtV6rnhOAB3YE3u+tl556Qd1hz4FhVcOIaO7aiefAJsTniLeHKPTqop5jLZO1aKqcd4ZDmwM9KdylsFmk2eW2DhLtz42zXSXN6BkeLzgfpMjfOLq6c1BxrtIoZxOqt6Bd8QshMd9u3olvwiIBBLOTKz+sabCxnrWEqpHUKDrm3Gqt1Ow9eo/zj8ul3dm2uOl2Ce5ycfmchV/QIPhX7gi+WcqXaiZ/RHHlsYj2Z3l6ujFW1B6KfFnoyvS08bU53YKC3nLJWNH1cc3xQYr+/l5Pp7Wj8vub450jPv2IWSxp/HumRZi6bPVUch63rkv2dSHdQxbYu2d/WHhjsLKeUI6qMZe1qPK5B7iNB1rLGMf2Bo/+nZY1cpD/ov1rWiDQIfu+Uc+TsavRH0Snmzf+uRVC3qvHftAi+YlUjEWkR6j/lHH9gU+O/RKeaN7+qR5Drt6nxDT3CRYsaKU2CvD2N/+uPipqkaU/jTzpxKnlquv5vFouP6RH41rT1HxWLmqSjZEvjD/UJoiE7Gn9W7KToFPLUdCe6IKVHGqEdnTO+2AV1LVJO/M+EFR25G/RIKUcWNP5XsRu0SOmghB3dr0cMc39c7sQJO7pfjxg+Ve5KFQt6znv3piYp5dB6TkmnS5B6ply2okX/gDZBlwhlC7r7W8UeSWvgyXKPlLCah9AlONahs6PFQC9IaQ1dLzRqN+u0SEep1htq/dayTpsgV+6VvmUx6zRJR613lActZZ02QakcA562lzPY6BHDpzpgQasqAxoFtZhQTtjJCek0ieHRcldYzgGrRe2DctU2jhAj6YyosdnYxUWr4HjMKCds4uh6BbXYka7Yw/t8jx0pzfJPuWYJ82CfA9R1RhYbizl4oq+oWXDUEcpP91vBHvoFdjP/76JD0hKol61m/lZR38BODtYfFvUM7GWuPF90jse0DMq1QVt3yIGiANT1DMplz9aNr2mQE4Lyn1q4ZieK2gapLrCOQ/xZX1HfICcI5bRVa9VfLXYnLeNYFkahPav0+op6B2lxXLNklYmOmFoI1nDI/mRRMKV0BJ7thC3s1P+tvqJo1LUPyuWszVrprOkg1EWjXLNVK/3eQLGojeBGxVKNo50gejirtaZ7HFNll6g6arfOjNNCiWxs3dD9XkdNO8FNOvHVftvTvtoRW1/BtZEsTkUiGaNGDyWycV9RsTE13+qcFqepUC/LQCeyCcvSPzaNTgolCaVtybD9XQ/vay5IRLXQduyqeCc6NboLqbJkVKt+ddBSjFsMu/RpMUhI6Y7n8fvtwr7R5PNFkaSBVl6XlJ4OvzpoFfbpNJRlpvSJ5KjV90x+5atd+/Qf5Hsm37PyZtENemGX2XA6Dn6ZBNl1Bwj6E93OnyeBx7QGSBwgGLTonqbXi5D8mXyb7aB/RcChfU0W6olOUOuy0YYZ9Lqu0aYFUS+TpFo4apHNjO/+NL0uRKpeJksnvIoNdjygxz6N+A9levpPB22z1LGaUE2caraWe6Lj/HkMpLHc3N4vlZ0V12CgXE6Hg/bVWfRGA+nR8FtftbLOpteVSNPGaOj92ZDVtf24EzoSdA8GnEjaYQu59pM/Ie8xDRGLqu2QZZYsPnxe36MWeoOWWtJ4sl11fWIp/fan7LUuDYgqmcMBPR7Zt926kim9h1y2kqzJ/yz9aL9tt1e5RDLSd/jdLrdr/gTCZ+ltrHrx1QEth//cfQ8ANWqHA+y5g/5Rn26b+N7Tj+2DMo30tPzz4CwrpbSdpvoMud5XEZYhZaw32NPhAKvQ9FvVlBbDRGznkLi3zcheE83Ziq5RnxsYqCa9r44mBiuDiYSXjPp0BjIxb3S3+rR4336b8uaOJP7sW+GJVJ8Q9KXCbEz/k54I9QUSDr/aqyfSDh8/RGHyq6NDFudNmxlMjHrfSoZRFA0MDPRwDGBgIBVVw6T31UTFyc9mlVBXQMRP80OJ0a9+KxuGYfVEB1XDMExmOw86DVm/v0OuYp+WSBw/lrW5qTKgI5C3upEd7NMQiWwydjeynoZAwvJG9oR+QNb2RkU7YMz6RjbUDRi2v5HQDcjY38ie0AxIWODwNENiuiELHP16Abls1gZvagVMWOHwtAKGrXAktAJ+3wpHtk/KhWBGPtlJcRgCOxxVKfHO/6OT4jAetMPhfUNGfDdeQ9YOR0JK3NgVcWQs6/+PTPNYvIbdFuc3RN4Wp+FFLzARr+EPtjh3REbjNPzJFmciZhjHa/C2OAlIIV7Ds17gY/Eaoi3O7z8aMFrjNCAfjNOwKAY+EKdht8bJQO6K05AUAy/GaWiKgffEaRiscTyQf4nTsCkGxuM0eGucv340+HJvjTMT3aiI0xD0Arl4DdEaJwDdqLghPkOxx4lAhaVvi8+wKAYmro/PsFvkjEC3aNQXI9ZrOa3guNyfKzAWptp4xcC9CozEfCrBLXIWHB9XX4wD1gyMVnAstqy+2DPTDIxi4LfUFy+e6SW0RU768KLdM83AKAZeVl8MQZvj4whFLTgKXVFfPMcCNdOqFhyLTakvYrzqGsaVFyP0D59YtMgZeL08orzYY1x1AzytKDcqL37HbHvFqBjIqS9Wpm/Xv7HJ2Xhu0Sgvhhg33YDnuUWjvNiYvuAuioGJUeWFZ/qCu9vkzB9czDFGVcPvqC8OfN/QNNyrvCjQvwR2/2GTg7MS1tcDLloHYCfFAPAicLkHXLTdB5k0DR9QXqzQzjlpNjk4K94jyot2oOtfN1BovTzSAy7a7gDNmoZKD7ho+3vAaxpSyotnaOOis1XO9QOLcNC4aBXGEbW43wN6AaJSlO/KiwfVIS0dU9HsZpWTaG7RSItjX1KHtHRMRbNeL1CSFw8qBiZFw9ukxftQA6sQNqkFgEpLJ+TF7aiBraDeFA2jEmIk14l3qQIGqnPX91EtOP7+uzJi4uVbR6JjN8MGtQB8Vg1kmhsVMjYees0t0YO4Qc2Q93qGPinxiOd98X3pYbX47S/NeoaylLjX8+64XRlwD3Vmp0arnLdGpPAO3MAe8PUMvyUlPuF5XloVMB7p3TI1w8uy4q00ADaushLbw7RoBu6NyAHQIGoWeEM13jMqBipSYuI13k2gQdQs8Duq8Z6iGEhJicc7esAjE/15bioBZhntcSlRwo+N6F/coGZISYoEerxlwVQ0uysGbpQUB9BjRp6aqASQdahzkmLKTfBB9Edq1jKUblALEHNevLrh8bdJiWhKGj5G4mBcUAnNYETqOJu4Xk68BT8K0f5a0QzcsdyikRNvw4+FqA92UTLkJcWN+HFH5KoRms2G1Fl6r6QYx49E1DeTlAwflxO5tDpgOcaqZCjLiQcZQCPWZ2v6oNls0I+YvyUnHmIAA5GsGWjG404GkInl3zdYMxj1Ai/LidsZwEbkr7BmuVjmDMbjFgbgieXl7vUB0EvAFSnxiTQDmJHl32FjOkwvkJISj6gEMrZ7y2YrHGiRrnEp8T4OEElAFceHqBYchf6ulLidBYyc6+tURbNRL3CjlHgHC/gNka/VAcwi2iUpcSwNHEArbM9UbYJFMfA2CfHYgzzgjlherqkYviIjood4QCIy6AU3p2JAuVEhI+5UCjxRu1ExEA3H7TygUcCWnkx6gYKUuAU5eJnyI7Z5VKsdDlMlSp+MKKWRg5cpX7A0VcODTGBDln9HDaoRvUBZRvwGE/DI8nKF5UaFVnD8/QMy4k4mcG84vB0OUwX5XTLidtUAVHH8s17gRRnxDiYQkfXZki4w00o9IlUkxLE0FxjNRtQL/IuEeJANFEz9dKbi+FHVUGUDC6V+OlTR7GKf00zGe9nAndF4oxi4UUIksIOX9TJQ3d9IqoZ3qAUy1bxus8/JHLdoJEQuzQYakQBSM6sYeJt8+AQfGJDNYQK1skkvMCEhHuQDGakPtqgFNbPRg9yokA99fGAzGkEv8LsS4k4+4JHcaQO1dMQ2kt4rIW7nA/dIey1JFaixgda4+piEeAcfCEh7LStGjY1ioCwfcrfwgYikqQI1NtAa1L8lH0ppRjASyWpBjU2M5uJB9OAVgo9QsmLgZfnwECdYEFCrQ3gbnWIs3ssJvkZALW7xrBioyIc7OUEyGEExkJIP7+YEK9J/GVWgxgaq4WxcPrwDPXCV2gr09K9oBr4rH27hBIO5WKx0EsaNCukwluYEGQH09O+NYiAnHz6BHzTDbgv01+V3ioFjN0iHB1nBDfEJHkqy0mmYm9AjHR5hBfcIoL8uTTEwcb10eC8rCEgGvcCAcYtGOoywgogkKwK18VCLIl/zuJMXFCJvtQtfHefzLxBe0agGEtRe/lsrnY3nFs1//gvjGPcOXnCnW4Ba/PzbsaUYLxAmZI02vcCN4kbFsSUIpTQvSBiAztZY6cwUji3FGC4PViRFufB/75ZQedBVZtCQ3Q14RzG7rhYckXz9p4clFA8ygwGjcQbobI2dHiD8PMaLhowk6QVGBve4a8qPMIMNSdMLFAYRx0PM4IaB55yFYmDk8V5mMCPJeoEFwXLpEJBseoE7BG94b+UuZhCR/TFyUwNuy0ErXP2Ox53cYKRYYCM6Z6EWHJ1aebybGxQiQbfQeNzODRakhXS9QCMeNtPl8eUOSVEtvL14SACY9SGSpU7+YONOtTDzGOcGDUlSLcSnWC8PBiSrWsATW1HcCG5OcYNM8UiKaMxdKzg6tVw+bEiyFmjGA1TB2eWD1zUQ20c6XB7MSLxaIFbgBeB8icI8/xv0Au3yIRqKHNWCo1P5MifqBUrlHeW2C4SCZFQ0eIIeGyVCUQLNbGIqIJ8vIO6QLATUgmM0Eci72cGEZFILJGCnOc4XCKl/mL8vz2qBhUiFOoBVylckqx5oBiNPK+z+/oGoCaAhD/lNr/A75Ao7GBjwtAtEW51MtPd5gXzJSDa9QiPyXnawIfE64B7iMz9fZiIj7MAjmdVAM5uAtdQ3osq0R9jBjCQogmY28YyIEqkqCXi5L7teYL6EvgQmRQn00jexBWZIleb3soNoJJK1TuwfpGmZT/CDguRODbg5hTvGFSRjaoRJq7AjVdGXbmEHC5KkBtyowB3jfsdsA9I72MEdkqYGzLTijnGJSYUdJCSDWiABr/82gqs1/6waQCoIntUCA5Ns9j8WeMHaO0gFwdFeZwWOnZihf3LZDuYFDclNBZiBkVKeK1eGTvN/ZgUZyawG1MbzjnFIvtKJ3QXVQehbbbxeICBNv/5utovgBBuzzFz/auO1gqFWpulXvwsynMD3DlEB0WqxcwO64zBjjsPjjGA2EM0WB3jU35kUs12bCgGiAqKsFvgd0/Rr0BX/Chy4/4lAVFiwWexEovnu/kl0xX8EDtz/RCTibXZ+Dbz+O1L8hshwghFJ61nNrM1OAfYWSMG4ZlFgBAXJ0PtN4lIKhlo3pOnXXHeMKw6yBlAbTyyf7ZGmX0vdkWIEdwhYynGK1U4yjwtObx7z3xcDRIUFi14gIE2//u4x/4tnL3JISGYFoDaeWD7710zTr+tj/gXPn7PZCf2qjVcLFKbp1/aYf8QzxzsxNCRRAXj9Tiyf/eb0GlwUHaj/D+d3MXpDQqzguKoFXpimX7cj/Dec1xjjJIXBODS1wHp6DS5K3bt/PBdE9fpZCrlniBUc/2i14wFHTLKZ8c9o0mGdPiNCrBCRLXd4x6MZZPbkH/+NjD/MwxCCV1P40+HUvfsXMOXROY/JaUrBTGvcgIRaQTrT/nd6Ya/H+GsZzL3Dq77g1YLIfHqNbFLdu3/5dyrbI742OFktwKzBhap7V6h7H6nCJoPAxFv/EC//jkzWp6uDwdfjJoPI5KZQWB4AGl5vQng9/yM7rbbBiGTWCiSiebCrlF5rpxikKzIoSIJW4NqvORGmi4wy2OMRJnMTdQCwLOgmgwm7fkRQBlcmRSfosQmVqH587Ze5u7EJi3lz3uAsOgFPqDtOM0saRVCO12GTQWJy1QR2YCjZ3B75XkYZpCeuqZubpATsrqMuiz8jVeMsMvBPvDERrKYhaYVmPAQZrtasSJ7KxRBBY9JUgl+xN2bnv3iWqzWNmupRQRFkJoMC6LYZWgb0wjw5WbsDVB8gmBLYm5l1wvrObPtyE8Hzkz97CWxMfNUBO5LyuFcmuUNAudxJAp7JXBWCYKqV+eGSVfcuPwlyJBNIYGYSej2VCiqhUyi8sXl9+kO78WBepPEaYV6fmbro5xPgb4lBArFviPZwd40wH6Gl+2I34H5eiwRGJqn2OlMI853JKIGXU37+EihMhmr3z3hH6JXZ1xSlqyLptOKDgwQWQqcP4GrfbRZ6XAEUZyNaHNsl8HwCNwlce4V6nWa0znXZhP7VtzwzeTkFAVtikEBCdMoIzh26JdjnQgBJpMWxrsBdsF6MzbXvghfa4Abin4eANjDQnLNaBdCgrLX2vagJptqgDN0A1L6TBZChbLXvUGZ7fCvieAxlE0A4iZuxCbX/16sl/o0Q16lHaq6D7wigcdmRj+d0UhzPJF2ywSN9YRRno/LMJ52qsZXP3C9nbrD/IwOl0NkrlZM+pQKNwJwmaGx8rdb/wlYqhJlK7ABobf3MJ1IJY7X8F/wOqj0OZeQzxhO5CaBQO/n1WitmIdjbS8R1kiL25Qzw5z8jnwUCWuV9sa5L5IV8uCRiPWbWYX5ksZ7++ZrPRCXATrJebWr5daR9vKby0k1dMKY1s5VPwnaq95V2GSR5OzqmLTxXobCkjmA2JYZPw+IrLpT12XLO3vdrQbYjEUvDM8aTmflkbB5MGCswLMNsLSugG/YR2pOeXIauQB6TRzwb95pKq7VCI+zndGHS2GNbxrOec/0bz61fzhfmRljW6aJbgdBYxmWuNMnTBfEEsHn0qVZ0hF1c7A48NzjP51yawBPHXulU2Dovlhe29Chd9hzMTGc8KyeFTwG7L3Ot9FCSt3Zjusrdl+B8w8oyin6VUl1/xDOBudVabfQI33ahw+wSprQl0lnP+3SNJ5Hdi1uriDCmLVjMaufw9wBvYr2nScop0Ari1I/QA5kg55duep2t3Ev1YvZBfsZezvxATffNKuPJaPdfhyoo7MNs8V6qF6LChmXEbMcT4lmCeG5sd56vVVRY1meLNaaKCyV2QzEVSzwvjHQCu88H5idOJi3tcnlzOyFGaoooU+mJzouUz9aedp6SYuwqyuqO8K1UmWHr6hQHVu49iblGseJZ4H0ykqrEMKbNQi1EL1SIqymt0Tn3qJfxJDhhqVVqhBUaY7opbliL5fSx3D2jYP38Xrpspqx1HRF8eogxwURWGw9njOeGkU7ut7mKnSUgOcLa1JhxihMe7AH5SmfmD+KB29HfS+u5WF7I+0OMmSaYD60BzipGXaun1TYYY7cv4RGD9quGQIpWmonxCGc4m4yn9NopoF3uID2iMmRF5qoxQSi3g6KC+D0XOudnRM8gaDv6aNJXFE282s8xtU4hngrO4gmdEDsVNMrtBRj6aBWd/O9kN8fUcYgdhyvtwnoj7Xm+IJ1NyCibyKWaICyvwU7UImsI0sEhQcaWAc7eASudWUovuc/JECefVqG4N0lM3Xuo/rThDsCNtKcUQc+7juBj7CXSGr6C71upBl2i6YUNcIYu9N3jmfq8bTymXihptgG1yJpuCX0wLhFOJz/EEQNOcIzR3AvV7ks6pKtJptL6KkqVe+SFTohdCNLxwjrt16dqBScdbtuwTvK/S1l71Bra5+fRBmeJXbDSCeJ6HDBkgGpim/S2U8x+a+t0lZhdO079uqaWifbQQHuKEZyJCnj71Mnuh6mYaMH2yynw29DSdF2KANmxfKZbBjqJ8xq6Al2YbcazSu0S0OBzS9drGYVfNprtRN02s/dbbi2l6/VaCiq9gp8JhkD9VvKbKJduRjqb/F71DvPN+5xbWw9+c5fC+d3NlbpRujtN6cnQbpak+3Lvjgw+5zy0h7Cmd6GQdkT5ruTXO6lYLAaJISE/sYmw/b3SeY5RjOCMVPFTAv309CHc/KNQjJmCRA80MNSN+rOWO/Wrf8fTid2wQmCep6xRwQQ5tweVs6ccwRn6HzNoHIaey713BtyYyozH1z7DTd9wo3btUJPl1s3IgPq+xlndTCP16Ns4e3YkiKdfXXFF2bxe+572SOe5K1Y8vufKaDc1lVqt9ZVe1n2MUZDgTG5SclMzhJ1spSVhtMx2JYiB+1NMSkZqGwHmPGNHSKg2PuLxAA3sCoZ5RxhFxzN0xxVPHKt2WghtpGuZmTBOVHQmyKdBOsldOS3V+srX5R6iJEEZ/QiZNtW0VEvEU2KUJCjFG+kxeXWCn4R0+/dyHAmus498PKvBDJpE/rAzQyXMY6FomZUkKKvThJbXWYfEDLukXvkfEWxdsgog4xpBtWmRGDHziNEyK0kwnh/KB4B77ZZrk2FmAeXQx279lpdAZjrjbPenC2bbyauEXu7dYxQlOAvtdsCSnpXFNu5ddihBQjH0tVuuEvDc1qTO2mObDI1xG0VSlGAnn88ncLOWvHbgeUhFenfQDBRJUYJblN0Tz6WpBfHgm4T+olni+TSiJL6gQJbfL6D7q/LIDqC77jRBJGUJthj7jFIoSmiH8tp5N07RXWu8QiXZim1TH8OURauUsx8KxNqKKR83QiRlCS5dXU6Q0TpZiz+iP8gUcpjupVygSAoTjB2FQUyDo2388naZQgnYnY70EMmuBcWctzQ5nS2yBZteNl9Cd6cjBwIvMUoTHKJhXrXWvVnxyQ7Rvkk0Yxbkd9QQo0DBzn6osv6jHzYFu30pD+HGhQrZ03fPKujCQpPXv4DTYIuL/q+BL9c/3vfIgxNf6EYTSeL3rbFD3WmVQIxRnOBb5gvXaQj+sM3orz9rt9tXB+F2iz9Y0S1/Gfjyxx+Z+EIsJI7BptzESL7pI8tElBs2WXhPCY3lhN/Irwa8is28TPqXh7rbIqmUTjPeB4gWG3mCYzRnVzx/CqeFRwb+q5V80vyX+7r2weH14MKxqC19kIS911X2dHqYGLCMD/lX6vf2i6EjpO91pBgtNqEPhv5JnQ/kKdnTORFfrtjD/jFovhhLq5sS3C3/zpgt8jTZjJ2fvDSZC18+dXCa+fGKDazxetcM4lCOPXRd6ATRfidxQ23mq7X45dOnjjKO+mzfZ/D97fi1+kHHmkFaymXoIcd9rpAtvWxAzHpYGMXs++XTw7Yuw71ftoHthVQHe1YSukfQAtdLXz1KJDM74j4XwXkBZ1/At3WvlOVpeUc21E6wf3OqvAwH2VNfSvsqYDb31RfPRVKhu24FEnZv7MFefv53WB3soQLpN0+fISNiSewZzBRjNErEl3BmsI5L5PmvTo8RQ4NdOCfpst+5VzXlhZaquLrovk9NgsN1RMYCFizcWkeivTR7/C94MC/dOmJr7/a+cwWmKku/bQk9awcepoU89fU96pYsfjYHTPiUNAcDpgTpI+jCWe8rUUxUz6Jbm5YRQaCEiS/b1lfF1tNdXW7vQnoI1+v1Wjrozu1SynVKa8vbbSb1vBiCOUbBq3XgeLuxDT30m3sp5aCvvFsbcp71Qo8LHYTbk921jX2PlbLe5ypMBtVv7tu787wTQn4XHv0uRI0UQqno9a5azsL4VnowpIpZl71aix58NciUYux1VWe+RNyrlh53xrw06VQM8eZnPTrVRijYz0hsU3+stVYR0pJ6Y6TpPua91ipDWlRvjOzKTKofH94MoUVmJNnDeVVliB12Ejui/AAppFn3xcrQSSeud2XKq95LE5QyYwZbUHh7CZtL7P6o3Su6pTbWiptTZrwFRbcEnINmqi+ZvgeYhKBUhLcjuayzapPf9ooMc4yYGbanAYNS4/sz0zbDcxA6fKwYenj25MCYMpEttWutSjLi+DAPhO+D0B7/USTCbh1/QzvPzBw+Qo/FmCDOED38Wuv0GjRYDDqOFm5SRmPSrMFijJCiUQax8TJc9N32azGPc9SCzDK/fpiNtlNbfDidjzO0URGyhu3UB0uOv607zAM7LqRurhH1ul8SOf7W9tNUI97lx25vvd4F3rve1vHTVGO4yXAd/LoPsyqy77IWmf0Ri38pvWSDX4UOjNAUo5iXpruKHw4HOarYScRLcLLqJz9A5lYhL8nJem1znX6RP47OxbxEJ0uoE68sbpSu7NvgInvA7kh76li8ettWay03OVX/iiGG0uvwrJO2mbmdieGJ0XGryUrmBc+7Tm/OIYA4nC8l626uKROFc6ZgOXJDNgwipaysxnSkCV5U3/zHgyAv0ihhSe+te7lm2z4TZO+bNHsdq/V6q2ReyLtpYmrxknNHjmaOmKRknj5RHyvvpvbIDvndgspKNvghdVmEXtxN7THBgq5Kds7rVKqZQhkMcbDM706wlFSygTXmF95rrTf3qRoqjPv6fr+FyRbjU1ry/k27v9vBZK5dkwLYNQxmizGUI80+dRmhbvylCm00WczjImaXWMTyqo+Wymq+DGuYJn0l0r8kg7GWxsmYOdVzNlqyybpPJuzG2naLZg23nBZjRd7sem7FSHW98mxuNX7X0UjnZFb969Uwx70yPci+FwYIz6J3XoM5jnRLavkW3ivZLX5Yr8Ug52eznT/JHbwpJ6T3vkluMsJ32S15NrnDNGWZUhuyn8N79fExGoQ/JDyDHf+NliMPks5T9/qwPRXWlJ54UGrKYejwydVZDt7d2lrO3l8Atw/x4BnhGVp79IjwdH1mcfQp4JmOPpg27dhDR3NK2A7+QarC0Yr5xBAusVvZ6R+FE58EHnUenP84/3H+4/zH+Y/zH+c/zn+c/zj/cf7j/Mf5j/Mf5z/Of5z/OP9x/uP8x/mP8x/nP85/nP84/3H+4/zH+Y/zH+c/zn+c/zj/cf7j/Mf5j/Mf5z/Of5z/OP9x/uP8x/mP8x/nP85/nP84/3H+4/zH+Y/zH+c/zn+c/zj/cf7j/Mf5j/Mf5z/Of5z/OP9x/uP8x/mP8x/nP85/1DYR;" parent="1" vertex="1">
          <mxGeometry x="865.5" y="1640" width="190" height="190" as="geometry" />
        </mxCell>
        <mxCell id="m0vxA2j5YAPPKQ0M331e-3" value="" style="shape=image;verticalLabelPosition=bottom;labelBackgroundColor=default;verticalAlign=top;aspect=fixed;imageAspect=0;image=data:image/webp,UklGRgANAABXRUJQVlA4TPMMAAAv+UA9AMehoG0biT/nOfeCMJC2jX/NS//5n/86rD+IqiBIgopAAwuIQlEJawZBKr6IAkFRARkj4xmWKKp1iKqoQFsA4CaxNaEIrt1V7Iq9Kypl/v/XFiZhEjxv90b0fwLgf///1/zO5hwlafZ5Xpatf6veFcm3/j+TGDxQ+jEU/0JW8ESl0cj617HHL1T+njr/Ms70g6XGC/dfxV3EWHoaev8iXpgiy2xb/9eobzLku2/+SzR2GfI+tf8VWkfU8Nr9F+icUdP7QHx5vStq/Ays700M7qj5a2x/Z1bwRAN+Zs73ZY1faMhkVfuunOkbDZqu/e/JXcRo2GzX+I68MEUTH1vfT32ToqnPne+mscvQ5Lf+99I6ovEfQ/GVdM5YidHI+jp6V6zM99T5JsTgjpUaL9xvwQqeWLlp6H0D1viFml7atj+OdUHMtvWqc6Zv1DUUAAA/b20Qcd+sMncRo7ZXAbmBToindlV5YYoa9yHf0gvx0q2i+iZFrb0C+GiGeP8VFdPYZai5W/TSDvEZWBXSOqL+foFIDYD4GtsV0TyjCbsFPhryM3MqwFmjGZcFPVMgfgbG855oyFPB1ByIJ8dsXoSmvBasTYJ312gXNOar4GgUfDoGG6FBRd7NLLg3l/UxiZf3MgwGxuqjSet5mWkiYaqDUX7y0Li/hhKJURqmOhmqgUb9yRHmSYSZRka5Qv7ZONgy084ofoEXG2dspsgkmSiAi3EORqqhOT/XNRTXf6ebS2qSt5F+jfA6LAZNG+RFI9i+TIF1E620i3dBHUptTC5mGJroqley61nA0J8+DLAxkJXpdA9sYNveZ7o9DdRGfQ9t4O2tUr3QNc9U2WU53aelnJrAvxamZbxn3fYyKaVvnpOqAADAO6q7tkBPb69uawMA1N9lrMwTKzpD/kJRPBKgbf+taAz5ozKuxvlBxYMC2CjZ10Bnd6dkBYVWVkJqmSZQ1SkSG7lkCLr3XnI7UQRxCdg2zVbVbxGIncytDvo7W5k1EGtZGTPTPFXtCSB2tKMFqv3f5flBqR+XQctSBbCgrYE6xTJPhnFReZ8AYkvZCFAq2qsnIuKT4iMippdFSxFMKUugdrNSYsP01SU9AsCsaA4qRX8XY/6N4v75+wpbSmBUEPeB6j2w3IZZVuoQTw0C9NOcESi0Rk8kXiiiCBHvga0Ahtmfqw9EZ5liySOzXMtAPDSKoL6an9I+yLuzN5KPFEgoiPHUloN+NHR9IDqzGEvfGcVKy0FcOwV/fZAWkwQld6QXDfE1ElIggNx/IcPIKC0s/T2gyDdvKL0hPWQQb00pcu2APD2TTMpD3Fqq7BUqXJEucpgtLWXdDzIdmOTIAW+emmaEKuekkwLEq69ohmzXJvmwwLen4jdFpRPSTgnGXSUb5Hs3SB2ZhgrmqDggrdUgjhS4yNkxR8Dl5cvYB1Q9IC1V4Vyuz6prjg0XvMo0X8p6pKmysyPTSlgtzfFg05cBZ6eqTRopyiYCpJD1xRgucj2DwkGspkkaqLk3QOGGVWqZoscla6gA76ykTuoqWVmg0o05YcsUSy4hqBWTTEGN1FIQtUHxmNXEFBcmsasIoPGQs0k/clsHVIsnp6MhRMpkDuqtlRSQPZn4F0oMOH0M0UKeiVsCQOdFS2iOxKkGZVoRI/wxw4TJCqh1TwrcPelFA1I6Annfo8CIU2CGA4/MIx1fDSmAYUx4SsSEWx3km+8dyXoz2prhzWMP1DZi0pED71J0logKsoUA+W6C2KLAktHTCD7y7JKuiJgN5UBMsryZxDbv2QKFwwwRL6Q6I6yZYMjjLSgdzJ3JATQef66WhHv9s7FB4RRz2xS4MOqbYM0jBOopDzdCDqzx8TASIGsPw0UTFIoQ84+kgFFogjuPJqWBxSdbjrV1wOIfip3xuRnAQZYfQQkJeKtp5FyQuKLAiU9m69flsQOi+FAw+tHGeyD1LShjPtjRb8EjoPSQHrc1abyQ3qXUGc31O/PwKVsJzH61aMcouaHAk89ZO5GweAH1LYM40aCfouyLtOGTCN2ayPJEaaLCUHAbo8IGZcwHm7qNeawoUxV4tHktUeWE0mE01m3PY0g5KMGry0hsUemeUmO01+3Fo0mJ1ODDZmOdUO2TAh8+b8085Fkj1FD1Sqp2vuQ2pWao2qFc+aCv14CJRWgre8pYV8x/1WQuypqUI6OhXiGPBIhDZXeZDRZfhMRVWY+yZrTR684josyUTSRGSF1LzJWNKHNGD63sjMeNslF1tmjtjIQBzb6qmlNGjNDVqYPs9kqeq7YAsngjPfNJYA3PmZIVZcipp9OMyZ1ykkqPIx/knzI2DQDsbviUCzVZ6nRi8qBcaI9VxwKlG4krKPVHx0TZgNNVI5EweSpJjiMflA8lVmoAwGov72p+OaWWPg1k+qKccx6rjgVl+hI9ZX9rw90nZ64JtvUZcckE4YjJIfCg9IjmlAIAojW7ZDihBKym+uy4oEfotwVw3JLuwNH5bVFmrE76RGxaBK7uPC5I1z4LyZBVrE0N2f6yA7AnL0RMljXQcM8KG7r0uezalgYAVnCbOaDlOmM10mXF5CSgau0Tp50uVwbpZdmDCnbXLz6RJlZWxuexXY66dQGV7fWXh1vMAT092qj6s2wI4O22R+Fx9VOemFw/1+2k67PId9qd/uRU0kCPqaqNAMZOKwjPb8wflCXOWJhct5OuzyK/vikl1OOo6ARM7dZwdXohPbFL+kXZ5LqZdD0WAOMy7nrcFbXLs5vD5TFCpZ2SQqn85LoZd0VpcCzhpcdbUU2BJXNB9WXNFf19gGR32q9JdUuI9UgVeRLN8S7CaNDpUIbqPlZJjRJGpNH5jIgYbXsWqVZCokekaEqw2mGEhYlNsD7KllD2RVlik55YnOwGTtGihIceZ0VpJ0d0jxmSBwRYKvNL6ysLgdpCerryc0ZY4kGPUBFmu2F3fPmg7IniJoqOULp4Kcp80loCEe/T3viKZc70aKtS7hNgoagjU5+HfSEBM0ULoFqxXPl1PcSbV0hxPkqeINlPEfHkSNQyJZFFGiH7G2g65ZW4BAiUjCXcGP9eJGCnpAdUK+I30MV6ssIpBS4KUkcixPyhREvFAcgBsr+Atl1eH4fyk8qtgV7PCl42DW5ykUsSEbu0oQ/MWOGSAiO5hsQBi2cSgVwbyAGyD0DnA6vUo8BB5gL0NhKTGs2KZRZAdj/sVqC1feeEO5LzkPiVuFJwQ4OVxEnQNsj9LPQC/8MJuxSoRaSXoA2R3qD5tKsN5BZyfzqgezvjFNkU8F+UOZCtSOJEgyPl4QLZunNLfkD/EScMSfDzKcpqtCnKdmldQuQBPUTuPTDhhhP2SNBMCvZAriVSD0GCZ8G9BvQecp+BEa0Lp9gnQTvOa9PWKB/QxnlnB+jeh9sBDFl7McKrRYL6888DyD+ZgrdDctI/WwF064LM77YpoJkywi0N3DMijmgnVLkgwRoxCUBS7JH5xwdzDjjhggZimsU2qYNKU4/UwIsPsitknrXBpEtOOKIBNMdAFXc1uCPBQIDsGLmPwKjixAmHEpIBqm6S5APkvgHDOk9OGKizX8ouZUyQ+8UyDdRjTjhWNkf1fXVz5B65YN4uK1wJNbW0hKelSITIPW2CiSes8OQo6d1LiHtq3DOyH4CZd6zw+aMCwP0NL4lUfAl/PVDbjJD9Egxt3VhhGij5K+qdYLHZHc/HbTgfdWqgPkiR/UmYCrw3K8Sdo4itd0L+DwfM3Up54TsQGgUx8o/rYPKAGeLV0WaJGmZdMHvIbQva9nWYgOHFmdlAn64GOzC+G/Ha67Pmd7PMB42EVVg0bLKwuv2iObu3B1XYZ/VTUEeMls2S/OE+wdQr8DNmaQuqcc5oD/mNC/59HyYtS81PsI0wN+rmwZZZAFV55NPI62ZIzO6H1ajb/PFc267VW53f8focI7mX1+AVQmXaDy4byBURsn6KHFhzOovqAP/D4+3kDZH5b54T8YlcqNJOxmIAueLJ7Z4HXTZJA6p1zOEO+T1k386DG5c+VO22vLdfcOC3KfATHnOoXOtaWhfy3YxfbOVBl8UBKrj2KmkNhSPUsFcAWwZ3u4qglZYS2UUXHTZFTlTax4dqHpaygkIPdXwXQVhW1oGqXpUxLJpqge2ioKwxVLY4lTAtsCM9zkWTkrZQ4c5T3a1gi5pOCnblXK0qg59EGY5zJqhr1s/pZqW8alDtPXUY+nbrgBqvG3Z9kWGZaROqfqrO/EOo/n1VreALtO7VdBLfAHjvKno68B22s+qJf+BbHFVPD77HddVM4YsUl2rZw1fpRlVys74LaCbV8fbg2/ytjKwN3+eyKkbwjR6rYQ1fqfOogov4TqAemy9y4VttvU33acD36t3NlrTgm7VmicGiFny5tdXbUNnKgu9XdJfH58eo79fzELjwv///Qz0A;" parent="1" vertex="1">
          <mxGeometry x="1200" y="1646.44" width="180" height="177.12" as="geometry" />
        </mxCell>
        <mxCell id="m0vxA2j5YAPPKQ0M331e-5" value="List Item" style="text;strokeColor=none;fillColor=none;align=left;verticalAlign=middle;spacingLeft=4;spacingRight=4;overflow=hidden;points=[[0,0.5],[1,0.5]];portConstraint=eastwest;rotatable=0;whiteSpace=wrap;html=1;" parent="1" vertex="1">
          <mxGeometry x="1140" y="1970" width="80" height="30" as="geometry" />
        </mxCell>
        <mxCell id="m0vxA2j5YAPPKQ0M331e-6" value="&lt;span style=&quot;color: rgb(0, 0, 0); font-family: Helvetica; font-size: 12px; font-style: normal; font-variant-ligatures: normal; font-variant-caps: normal; font-weight: 400; letter-spacing: normal; orphans: 2; text-align: left; text-indent: 0px; text-transform: none; widows: 2; word-spacing: 0px; -webkit-text-stroke-width: 0px; background-color: rgb(251, 251, 251); text-decoration-thickness: initial; text-decoration-style: initial; text-decoration-color: initial; float: none; display: inline !important;&quot;&gt;Sync to cluster&lt;/span&gt;" style="text;whiteSpace=wrap;html=1;" parent="1" vertex="1">
          <mxGeometry x="1070" y="1700" width="100" height="30" as="geometry" />
        </mxCell>
        <mxCell id="CV1ANiS9sg0O7ec1Tf8R-6" style="edgeStyle=orthogonalEdgeStyle;rounded=0;orthogonalLoop=1;jettySize=auto;html=1;entryX=0.5;entryY=1;entryDx=0;entryDy=0;" parent="1" edge="1">
          <mxGeometry relative="1" as="geometry">
            <mxPoint x="674.5" y="1680" as="sourcePoint" />
            <mxPoint x="674.5" y="1505" as="targetPoint" />
          </mxGeometry>
        </mxCell>
        <mxCell id="m0vxA2j5YAPPKQ0M331e-7" value="" style="shape=image;verticalLabelPosition=bottom;labelBackgroundColor=default;verticalAlign=top;aspect=fixed;imageAspect=0;image=data:image/png,iVBORw0KGgoAAAANSUhEUgAAAX8AAAF/CAMAAACWmjlVAAAAM1BMVEXwUDPwUDPwUDPwUDPwUDPwUDPwUDPwUDPwUDPwUDPwUDPwUDPwUDPwUDPwUDPwUDPwUDPNJiJ+AAAAEHRSTlMA8DAQ0KDAQGCA4CCQUHCw+BUOAQAACLtJREFUeAHs0YNhRQEAwMBv4+0/bW0zxWWE3Oi3tl8vNsN548VuPx19Y1rOx8PdjntXvqvVZnikzcqZ72iyGJ5otnTny1sPz7Tz52ubHodnm009+sr9s+GFZluXkv1XjSc+BfsBBPsBBPsBZPsBpPsBpPsBpPsBpPsBpPsBpPsBpPsBpPsBpPsBpPsBtPt7APt7APt7APt7APt7APt7APt7APt7APt7APt7APt7APt7APt7APt7APt7APt7APt7APt7APt7APt7AP8BAAAgAAAEAIAABAEAIAAABACAAAD4N38BpPtncwBNV28BpPsBpPsBpPsBpPsBpPsBpPsBpPsBpPsBpPsBpPsBpPsBpPsBpPsBpPsBpPsBpPsBpPsBpPsBpPsB1PsB9PsB9PsB9PsB9Ps/DnDC3n0gWYoDURR9QgaE+7n/1c6Eb28yWnGJRG8FXed28W2J1s7ee21lBvDx+wOkun1ps96fGcDB7wjws+WtAAHC8fsDSGsLEIDn9wfQWgIE4Pn9AdRngC/4gQDLHiAAz29W5+HdJL8/gGqgAH7+GQDlRwMUOADPzwbIOxqA56cDLAYG4Pn5ADcZgOfnAxQwAM/PB1gNDMDz8wEaGIDn5wOsBgSIyG92ybMGBAjJn7I824wLwPPzDwDZgAAB+e2Sbx8gQEB+y9xrMD4Az1/k3GJAgHD8dso7AwKE47cu7woQIBy/rfKuGReA5+f9TwMCROO3Rd51AwJE4zdx/nwAnt8y588H4PltBf39AXh+3v9jQIBo/LZxzz/5ADy/dXmXDAgQjd8+cu4wAwJE47ck5y7jAvD8/AuwakCAePx2y7fduAA8P/8BQDIuAM/PX4AWIEBEfquaAUB+s2MGIPmtagYA+c2WGYDkt6YZAOQ3u2cAkt9smQFIfkt5BgD5zcoMwPDPADz/DMDzm+1LgAA0/3wayvP7144IAXh+/84cIADP71+qOUAAnt+/VXED+Pl5/yVAAD8/79+2AAH8/Ly/RQjg5+f9IwTw8/P+EQL4+Xn/CAH8/Lx/hAB+ft4/QgA/P+8fIYCfn/ePEMDPz/tHCODn5/0jBPDz8/4RAvj5ef8IAfz8vH+EAH5+3j9CAD8/7x8hgJ+f948QwM/P+wcIkIsF8H9iAIAf8H9wAIAf8H9wAIAf8PcFKLVv6/+7+tmAAAP4AX9ngHau+mrruQMBcrGI/rbJsaUOCQDwo/7+ADrOEQEAftbfH0BHGxAA4If9/QG0pQEBAH7Y3x9gKQMCAPywvz9AbgMCAPyAvyMAcDtbgB/wf1gAgB/w9wcY7JOOEef08v6jAqSRf8vcLYz/qADrwBN1FovjPyzAOe5Y5RbIf1iAvI86UWezQP7jAmyjrkB7JP+BAfYx91VcLZK/IwD8C1Df55/k2phHgPQ+//qUp0BVuux9/stTbueZpP4+/yQ95wLU3uf/eczbcHZrf5//LT3lJUCVvc9/1XPeBHqjf37O/ZzTG/31HH97of8u8n5607+F8/dv+ifjNv3LgKSBr//F/vGaTuM2n/+cuozbfP6/KRu3+fr3kD6v8+9y7h5xY8vLqM33P+9Xfv6eHnM78/zG75+YXXJtGXRXxTI//2UuP4fjYT2Cf8qP+A7u6fhgP4S/3U/49GvPjtfVMfx3ObaP+yFyeZe/df7J/+04giKMf8r01b9KQADa3/8a7DOAHwjA+vu/g3sN4AcD8P5pAW+cVCU2AO9vJWN//1gdkcP5W8kcPx+A97eSOX4+AO9vJXP8fADe39JKPPQCAWh//wvhbsP4+QC8v5VVv9haRvLzAXh/s/bTAsfHBvPzAXh/s7bpB7uaAfxAANzfLNXt0BfLV00G8AMBUP8vt7fe73W9e2+7mQH8QADAH1qVuADTv0pcgOlfJS7A9K8SF2D6V4kLMP2rxAWY/lXiAkz/KnEBpn+VuADTv0pcgOlfJS7A9K8SF2D6V4kLMP2rxAWY/lXiAkz/KnEBpn+VuADTv0pcgOlfJS7A9K8SF2D6V4kLMP2rxAWY/lUKHWDv2eEP8IcMkLrk+MImwB8ywCfrV1t3nj9wgHTpN8snzR84QDkcd0wG+IMGaNn7L+T5+QDxv79dpcABmuNfCPBHDVAydlInz88HSAt3Wg/Pzwe4gKPKaX4+gP+8niMB/GEDpEN/uw7whw3QkfPyeH4+gP/Azg3gDxrglGcJ4I8Z4JBnHeAPGaDItQPgDxnglm8F4I8Y4JBvJ8AfMMAu51aAP2CAj7wD+AMG6PJuB/jjBbjkXQP44wVY5d0J8vMBeP8O8McLIMSf5+cD8P48Px9gAf15fj7A6vcH+fkAvH8D+OMF6PKugPx8AP7njcDPByhybgH4IwbI8u0G+CMG2OTbh+PnA/A/dA7CzwfI8mwD+fkA/AWoAPwxA+xybAX5+QD8L0AD+KMG2DP435/n5wN08rNfnp8PsIBvffL8fICSwasPz88HqOBfv1RpBujs/XpngO3p/DPA5OcfAw6AP1wA/wkcVxrHPwOky3H8D8AfNoC1Qz/fto/mnwGsHg59gD9sAGtb1rc7+m6T3xHAt09fv7C/zmI2+V0B/Ev/tUcXBw5AARBCiUzc+q927bTufyJQAm/x1OlfCgjQKyCA+8cDuF+AgADuHw/gfgECArh/PID7BQgI4P7xAO4XICCA+8cDuF+AgADuHw/gfgECArh/PID7BQjcKID7BQgIcKP7BQgIcKP7BQgIcKP7BQjFBAjFBAjFBAjFBAjFBAjFBAjFBAjFBAjFBAjFBAjFBAjFBAjFBAjFBAjFBAjFBAjFBAjFBAjFBAjFBAjFBAjFBAjfzLZz91ebza9ivwChmAChmAChmAChmAChmAChmAChmAChmAChmAChmAChmAChmAChmAChmAChmAChmAChmAChmAChmADhPxNgcfqwA/+brU/vt1ny39l0cXqn3YwB2fJNgWwZlE0zOT1rfpgxNAkOWTwizBe71ZYL7Q7H02m600+YOAAAAABJRU5ErkJggg==;" parent="1" vertex="1">
          <mxGeometry x="600" y="1675" width="120" height="120" as="geometry" />
        </mxCell>
        <mxCell id="m0vxA2j5YAPPKQ0M331e-9" value="pull code changes" style="text;strokeColor=none;fillColor=none;align=left;verticalAlign=middle;spacingLeft=4;spacingRight=4;overflow=hidden;points=[[0,0.5],[1,0.5]];portConstraint=eastwest;rotatable=0;whiteSpace=wrap;html=1;" parent="1" vertex="1">
          <mxGeometry x="790" y="1690" width="80" height="30" as="geometry" />
        </mxCell>
        <mxCell id="m0vxA2j5YAPPKQ0M331e-10" value="" style="shape=image;verticalLabelPosition=bottom;labelBackgroundColor=default;verticalAlign=top;aspect=fixed;imageAspect=0;image=data:image/png,iVBORw0KGgoAAAANSUhEUgAAARcAAACDCAMAAACQja8HAAAACXBIWXMAAAsSAAALEgHS3X78AAACDVBMVEX///8Ab7YAb7YAb7YAb7YAb7YAb7YAbrQAb7YAb7YAbrUAbbMAbLIAb7YAbrUAb7UAb7YAbrUBcbcAb7YAcLcAb7YAb7UAcLcBcbcAb7YBc7kUerwAcLcAcLcBcbgBcrgAb7YDdrsIhMYAb7UAcLcDd7wAcLcCdLoGfsEBcbcBcbgAb7YAb7YAcLYAb7YAcLcAcLcAcLcGc7gAb7YAcrEAda0Ad7AAe7YBcbgBcrgBc7UBfbgCdLkCdboDdrsDeL0Dgr0EebwEeb0Eer4Ee78EhL8Fe74GfsAGfsEGhsEHgMEHgboHgcQHiMQIg8MIhMYJhr4Jh8gJicMJjcgKhcUKissLiMYLjc0Lkc0MisgMkM8MlM8NjckNk9IOgroOj8sPg7oPks0PltQQlM4QmdYQmtYRl9ARmNERmNIRmdIRmdMRmtQRnNkSm9USm9YSnNcSndgSntkSntoSn9safr0df70hpd0th8EuotUwq+A8j8U8lL49lsA/seJLmcZNt+ROXGRUqNBaoMxfrNFkcHdmud1pqNBrw+lveoFvtNZ0v993w+V6yet+vNh/vdqIuNiJz+2QmZ6XwduY1e+bo6en2/Kv1uixt7u10eO8wsXE5/bU4urW5+7f7vbi8/vj6u7q8vbx+f3y8vLz8/P09PT09fX19fX29vb39/f4+Pj5+fn6+vr8/Pz9/f3///8/HpedAAAAM3RSTlMAECAwQFBgYXCAgYKDkJGXoKGmsLXAwcTI0NDQ09bZ3ODg4OHk5Obo6Ors8PLz9PT19veYCnP4AAAIUUlEQVR42u2c+X/TZBzHc7QxUavRWLWe2TxAoqJ+xU1FZVqZIg4rygSp064GBkwm8UYF7/u+8Z6i4tG/0efKkydZtha2lzZPn89PYQvd8t73fp48mqakpKSkpKSkpKSk9B+oCqJKCoji0oXLcBTrPMUlxaW5b18rarcVlwwXaDbrUaOhuCguiovioriofKTql/9JJehFioviwrlwfxmGIX491NWPqmXZuTQno8l21CBcJpvooj1JuDTa6KLZzOfiAHi63Fwa9ajejIBwqTfQBUrPQ13ytInd6wJdcVmQr+o7bpQYzAlyQebSjloSgzlBLi7chQIyAuMpLqJ82IEz1Q6Asrxc2q2otS9qEi6tNrpA5f/Qkn2AAbCPpPDNcKlMMBLZgKyCaTWs4terYDW/vhhs4X9QmrfR0qYtVc0HyxEtXuqs5tsMFZm4rBpiWgUQXw6tgbX8ei2s4ddXJrcPxVwajMsOuAjbnykJl2Zc4zd76gP47VGWS5vbUa1SkoBLqx5NTkZbWpjL5BZ0EdUJly2T6KK1hXCpt9AFuuu85PYo60eR6GI1s/BcmoAzcL3Z7ClP89sZFx53owPj26ZCrKlt44iMM9hcDFzuEu0PEz22HqqDzUWrwYPUXHaLXIqetJfPxYZbSGE3K2AJx+DcAY8vmh7AZmwuuwQsEwDFj7vLy9OmG5AII5rLtiJHXcPBAlg9zLQaIL4cvgzW8Os1cBm/vjy5fRg9vFNFUOCWVhQ9mZjL9EaAM4trKTasjO4i7fTemMrU+CgUuiE4Gdbffkd9WWo0HmRuNYecZ2Ji09gYJnVpoVPRqTAR7olWSLvD6VFmP17BxzCYy8wKYXkCx9orULgqF79rPAVx2bUyWHDQXV/wwl+ILxNhuDJcZrC5XKtLxGVuhbwImcuZmixcNobh/hXyIlTJGdKMucfCcHZFcpFE0YWsh4Xh7uVjmSX90LXyrKoBoDHSgeVimcNThVGw5Rl5nw3blh9gSF80hife0ug0GA/DvfmP+9KRTueLZ7pjIcOoBwo/VUipDKNhuCvfkX7ofPNV50hvWKZAnqBLFMD2RRzpUOebw68f7TzTQ0EXTq8v+mwuqzOwI83kc3n78OHPO4e6YNlLR5bXSLbDAy3UT+eXvM93jr79SefnXrCMS7gV8RLcCuQazGedo53OW0vHlhmGxZINi3YSjC5iMNGhjz9+vnvIxVgcTT5dApsWpKSHH++5bsFYXAmxoFSNa17Rkx7aMHJnjy20vFhwzXvrdFLcPXzvzSMjI68c6lq27CFz/1tBpvI/JeNquOme++67f+vWrXdvQExGHnnn+84PXeqWOeJDO0dlDLmCJ12/bt26GzCTkUdf+7KD9cWSkWUmXlK8ytTk1ekALx88ePDFDz788vtOrPcXp0IXinYiHzpL4r3vGt5/Cx/Nz8//8mdH0FtLUnkMBdxrbE1yITCv/ojI/PrX0mAO7Kc7OaYnUGQ5x9CkVwXgqa/nsc0c+4eD+SxjKfv3sJ0tm0aLvqLYe/BFq++vfovJzP/6x59/UzBH4nr3wNwTe+M9P9s34nVWSxsQGfhsCkYGw/nt92PHjv303uzs7MxMsn1jO16ShwsHhgrprX30yC98ytEQffcGZzL1wEYMZa1ragMmi5xn8uybn34tknn3uamdaJ8CWZG/yi1rgyijUmN7El6I9TTf5lJ1BvnNacOqnH9dZuPPBVXHMjUl8pJJGW/aKMmy219JSUlJSUlJApnHXZcYg1DuVo97q7qFXs2Tv9qPX/LtXbjdlr5rLB0/FwA5V1wVF8VFcVFcFBfFpU+KFqdKz5Qw01xKLpnqVu3McrPl4Xc6fc/K4aJXgmQvQ9nFxU2QfABadUHbYnSbvBTqu31dKOuVZGBbtRIupnCquWgPeKmNyS9nuZBFlfgDavzGgN2AFnbBcpIP6OMFJ9PPPdRGs4LUIRzcZNzUrU6Ki06/GcT9gaCqzrqMlPz+xRLkH/ZjZb4Wg3EzXzcELrElOYt+QJZL355goVNb913b4ktEmIsZH2Nj2S41KNobOtQgPKfkeMwTYhK6x3zG5gEcry2V7QrF5Qlc0M8rozfP+/coGEcMH3bAuRBGQVkMQHbcVkLV4AEo4H4U+x09D1MnMGs0sOr0p5Q5l0q/7xvSg9QBscypmBP4ujBKoFGDeFGy0dK04rhrsCdmKOkr+7X0B/gxl/5f3ie/rzBvsRkXL3Oerkf/3noaV1K/1JixuPH3sL0Fwo0EqEm5FOD0Qy/z61P/oc8q7r/VKb8S5MxahOxSSt3vCefZWdTbCJcCbL6rZnMCiQQ0jKR2ydXIjU7eY+Vll/wDnl3y8/z+x7Kwhi8TLqUFx1K7nIuvLcolMbF8LlXCxR0oLrSuqSzJpUK4FKGXWuBHlRPzI1SI2GKqyeWC0ntRuOTGXR+/x5dOG4YQd61FbM4VwUC+wxSFi5X5/W32by+TeKpCng70RXyRgAnMJK8ZheVC6zorXdeZzA8CI4XLjx89MaSyJXKhPQUFY6XrOqOsF4oL6wNYXe7wPoYaCO104sbH4n0Aa2vwTMEXYzcFQ+s+sQ8wvBhyYbhQg8eNoOPR/pC6CesIai47WCwOz+xIrmrFobMslLWEnGYE3EzixhNtOiNTLBrGi8NFr6WTBosPNGF3nzMgimKupzjdvDlDqVhcMmAC3vmXgoVjJZ7JxYFbel632GDL1QrGBYWV5AFcIdcYXkJLrGVKyYCPxA8vlXksPq/TjGQKFVgJ1OKsZes2ji1oPG0smIcjZDXPymTmskvqQXb0sun5qfGv7yf5rUI+wOVfMNxAopO+lZSUlJSUlJSUlJSUlJSKr38B2JVxnNwCi1oAAAAASUVORK5CYII=;" parent="1" vertex="1">
          <mxGeometry x="821" y="1400" width="279" height="131" as="geometry" />
        </mxCell>
        <mxCell id="m0vxA2j5YAPPKQ0M331e-20" value="update image (tag)" style="text;strokeColor=none;fillColor=none;align=left;verticalAlign=middle;spacingLeft=4;spacingRight=4;overflow=hidden;points=[[0,0.5],[1,0.5]];portConstraint=eastwest;rotatable=0;whiteSpace=wrap;html=1;" parent="1" vertex="1">
          <mxGeometry x="675.5" y="1580" width="120" height="30" as="geometry" />
        </mxCell>
        <mxCell id="m0vxA2j5YAPPKQ0M331e-23" style="edgeStyle=orthogonalEdgeStyle;rounded=0;orthogonalLoop=1;jettySize=auto;html=1;entryX=0;entryY=0.5;entryDx=0;entryDy=0;" parent="1" source="m0vxA2j5YAPPKQ0M331e-21" target="m0vxA2j5YAPPKQ0M331e-7" edge="1">
          <mxGeometry relative="1" as="geometry" />
        </mxCell>
        <mxCell id="BkA11-pJICdlrNbVSPuY-9" style="edgeStyle=orthogonalEdgeStyle;rounded=0;orthogonalLoop=1;jettySize=auto;html=1;" parent="1" edge="1">
          <mxGeometry relative="1" as="geometry">
            <mxPoint x="360.07" y="1505" as="targetPoint" />
            <mxPoint x="372.2000000000001" y="1730" as="sourcePoint" />
            <Array as="points">
              <mxPoint x="360" y="1730" />
            </Array>
          </mxGeometry>
        </mxCell>
        <mxCell id="m0vxA2j5YAPPKQ0M331e-21" value="" style="html=1;verticalLabelPosition=bottom;align=center;labelBackgroundColor=#ffffff;verticalAlign=top;strokeWidth=2;strokeColor=#0080F0;shadow=0;dashed=0;shape=mxgraph.ios7.icons.user;" parent="1" vertex="1">
          <mxGeometry x="307.13" y="1680" width="110" height="110" as="geometry" />
        </mxCell>
        <mxCell id="m0vxA2j5YAPPKQ0M331e-22" value="" style="shape=image;verticalLabelPosition=bottom;labelBackgroundColor=default;verticalAlign=top;aspect=fixed;imageAspect=0;image=data:image/png,iVBORw0KGgoAAAANSUhEUgAAAMgAAADICAYAAACtWK6eAAAABHNCSVQICAgIfAhkiAAAAAlwSFlzAAALEwAACxMBAJqcGAAABzBJREFUeJzt3U+sHWUZx/FvvbdqNAQIceOmCDRNJfFPXBmMNiFBiQhlAQsoVDRhoQviCldaMYYQ9sYFYQXRQKLCVhddQMqfENiwoFBbqLKgpcKldAGt18W5N5w79z3PPfPvvO/M+X6SSdP2zDvPzD2/zrwzzzkFSZIkSZIkSZIkSZIkSZIkSZIkSZIkSZIkSZIkSZIkSZIkSZIkSZIkSZIkSZKW1X7gWeBjYH1JlwvAr9seSI3PfuAD8r9BS1mOtDqaI7WSu4CMHge+kbuIghwAdgFH85ahUizzZZVnEu2o+sZYNq9hSBQwIJ5JFDAgW/f/EwyJphiQrft/GDiLIdEGA7J1/78FfBNDog0GZHtAwJBogwFJBwQMiTAgUUDAkCw9AxIHBAzJUjMgOwcEDMkoRF257wOHEusYkPkCAoZk0Obpyj2bWM+AzB8QMCSD9SxxONaBM4n1DEi9gIAhGaSdunLPAHcl1jMg9QMChmRwmr7RDUizgMAShWQ1dwEqxtep9354EPhTZZ3fbvx6pKOa1AHPIM3s1O7eZnlwgfuhHRiQZl6lv4CcX+B+9OpzuQtQNqd6HPvLPY69UM5BltcDwEXgaiZf1tDWdzoYozhdHJjcqpdH8+5T0/WUNsrj6SWWFDAgUsCASAEDIgUMiBQwIFLAgEgBAyIFDIgUMCBSwIBIAQMiBQyIFDAgUsCASAEDIgUMiBQwIFLAgEgBAyIFDIgUMCBSwIBIAQMiBQyIFDAgUsCASAEDMmwHgXc2lh9nrkWFWtb/H+QLwHt8Vv9becsZ/PFM8gwyXHcAX8ldxNgZkOH6ZeX3T2SpQsVbxkusb7O19k+Br2ataNjHc9SWMSCPsbX2p/OWAwz7eI7asgXkCuACW2s/kLOgDUM9nqM3pICs0H7e9yu21v1626I6YkAKNZSA3A98AJwDbms4xi7gTbbWXZ2sbzoI/As4Dfys4fbqMCCFKj0gVwF/q2zreMOxflgZZw24bMZr/1N57dPAlQ23Ow8DUqiSA3Ij29+obR7qPVMZ54/Ba08mtnua/uYrBqRQJQbk88CjwP8S21mjWVvIHuBSZazrg9ffCnyU2P4l4GFgd4MaIgakUKUFZB/wSmL8deAYcE3DcR+ujHV0jnWuA16cUcvLwN6GtaQYkEKVFJD7gY8TY18EfgesNhy32ne1Dtw557qrwB/YfvZZB84DP29YU5UBKVQJAUlNxDeXk8ANLcc/VBnzXepfIn0feHtGjV1M4A1IoXIHZNZEfB14Eri8xdibjlXGPdJwnCuAv5Cute0E3oAUKldAoon4h8DdDcZM6aPv6jCTmwVdTuANSKFyBCSaiD8HXF1zvEhffVfXsP3M1GYCb0AKteiA3MLsifhvmLSTdKXvvqtV4CEmtacm8D+qMZYBKdSiA5Kab5wAvltjjHktqu/qBtIPFk/WGGOUAfEDU/Wlfvi7etjOLuAXlT+Lnpy33VbKF3vanhZo0WeQm0k/ob7I5O5SV5dYdfqumloFfk/6EmuNek2VozyDjEGOSfp1wEuJMdaB54Gv1RwvpU7fVRPXAi+Q3ocmT/wNSKFyBATiJ9QfAvc2GHPTnsS4Ud9VXfcx+yz4EM2e+BuQQuUKyKYfMHnIlvqX+M9M7kTV1aTvah5XAk+RrvUU8L0WYxuQQuUOCMRvvLeZtHnMq03fVeQAcZDbPvE3IIUqISCbZl26XGJyOTbPpUsXfVfTdgOPkL4UXAPuaTH2NANSqJICAvEE/qWNv4901XcF/bXepxiQQpUWENi5xfwnM9brsu/qDmY/8W86EY8YkEKVGJBNsybwsz6T3lXf1QqTO2ldT8QjBqRQJQcE0hP4E4nXddl3tQL8tzJWFxPxiAEpVOkB2XQfk6/heYPJ0/iqrvuubgfeB87Q7pnMvAxIoYYSkEid77uqO24ffWIpJR1PTRlDQBbRd9W3ko6npowhIH33XS1CScdTU4YekD3023e1KKUcT1UMPSB99V0tWinHUxVDD8i/K3V00XeVQynHUxVDD8j0d1W17bvKqZTjqYqhB+QWJg8OjwM3ZayjrVKOZ6cWdY+8T9Ufxrz71HQ9pY3yePqlDVLAgEgBAyIFDIgUMCBSwIBIAQMiBQyIFDAgUsCASAEDIgUMiBQwIFLAgEgBAyIFuv5+1iG5AHxp6vej+ZBPAc7nLqAry3wG+WfuAkbsH7kL0GeaftRzH9u/v9al/XIO2Fvj56Cetfks9D7g70wuCXK/sYa+fAT8lZGFYwyfG66GYgz7pEIs8xxE2pEBkQIGRAoYEFX9lMndvXN09z/gKqM2d7G03fSt77OZa8luDHd8vIvVLY/nFC+xpMAYerHsqerPaHqqmhrDGcSeqv7YUzUC9lT1s9hTNSL2VHW3jLKnSpIkSZIkSZIkSZIkSZIkSZIkSZIkSZIkSZIkSZIkSZIkSZIkSZIkSZIkSZKk+v4PoULavxROuogAAAAASUVORK5CYII=;" parent="1" vertex="1">
          <mxGeometry x="230" y="1685" width="100" height="100" as="geometry" />
        </mxCell>
        <mxCell id="m0vxA2j5YAPPKQ0M331e-26" value="&lt;font style=&quot;font-size: 14px;&quot;&gt;APP repo&lt;/font&gt;" style="text;strokeColor=none;fillColor=none;align=left;verticalAlign=middle;spacingLeft=4;spacingRight=4;overflow=hidden;points=[[0,0.5],[1,0.5]];portConstraint=eastwest;rotatable=0;whiteSpace=wrap;html=1;" parent="1" vertex="1">
          <mxGeometry x="318.57" y="1360" width="80" height="30" as="geometry" />
        </mxCell>
        <mxCell id="m0vxA2j5YAPPKQ0M331e-27" value="APP configuration code in K8S" style="text;strokeColor=none;fillColor=none;align=left;verticalAlign=middle;spacingLeft=4;spacingRight=4;overflow=hidden;points=[[0,0.5],[1,0.5]];portConstraint=eastwest;rotatable=0;whiteSpace=wrap;html=1;" parent="1" vertex="1">
          <mxGeometry x="620" y="1795" width="110" height="35" as="geometry" />
        </mxCell>
        <mxCell id="BkA11-pJICdlrNbVSPuY-4" style="edgeStyle=orthogonalEdgeStyle;rounded=0;orthogonalLoop=1;jettySize=auto;html=1;entryX=0.321;entryY=0.382;entryDx=0;entryDy=0;entryPerimeter=0;" parent="1" source="BkA11-pJICdlrNbVSPuY-2" target="m0vxA2j5YAPPKQ0M331e-10" edge="1">
          <mxGeometry relative="1" as="geometry" />
        </mxCell>
        <mxCell id="BkA11-pJICdlrNbVSPuY-6" style="edgeStyle=orthogonalEdgeStyle;rounded=0;orthogonalLoop=1;jettySize=auto;html=1;" parent="1" edge="1">
          <mxGeometry relative="1" as="geometry">
            <mxPoint x="420" y="1440" as="targetPoint" />
            <mxPoint x="600" y="1440" as="sourcePoint" />
          </mxGeometry>
        </mxCell>
        <mxCell id="CV1ANiS9sg0O7ec1Tf8R-5" style="edgeStyle=orthogonalEdgeStyle;rounded=0;orthogonalLoop=1;jettySize=auto;html=1;entryX=0.5;entryY=0;entryDx=0;entryDy=0;" parent="1" edge="1">
          <mxGeometry relative="1" as="geometry">
            <mxPoint x="649.5" y="1505" as="sourcePoint" />
            <mxPoint x="649.5" y="1680" as="targetPoint" />
          </mxGeometry>
        </mxCell>
        <mxCell id="BkA11-pJICdlrNbVSPuY-2" value="" style="shape=image;verticalLabelPosition=bottom;labelBackgroundColor=default;verticalAlign=top;aspect=fixed;imageAspect=0;image=data:image/png,iVBORw0KGgoAAAANSUhEUgAAARgAAAEYCAYAAACHjumMAAAydklEQVR4nOydDYgdV3bnT82IpRIEWwKz8wxGLtUYRmaGdos4WGJadDWuME9kBrUYZ2WPO0hiJm2JJFgGx6omztZ9xLNd9jpIZj1Y7jhYYtuxRBzUghn0ZrdCV6c1SCYe1O51kMKa55IwzAsYpnZXJJVFUMvtvs9qtfrj3Vv31sd75wdNHM2rW7f7X+/Uueeee84W6AFMPzUAYDf7+QYA1Og/s5+1SADgKvvvGwDwzwDQjFztao7TRpCeRyt6AjwYjrcTAB7TLXtQt2z634+wH13ibT4HgE8BIEpa4adJK/wEAD6Og0Yk8R4I0heU3sBQo2I45AQA2Bt4JHmwAACnIlc7W+AcEKRSlM7A6NbwVt2yn9Qt26Y/APAtACjTUi6my6qkFQZJK/xZ0go/Slpzd4qeFIKUkVIZGNNPDwPAJIuhVAXq2bwQuVpY9EQQpGwUamB0a3iLbtlDhkMOAcDTkmMpeXM1Dsg5AJiLg8ZC0ZNBkDJQmIFhOz/vA0C9qDko5EzkakeKngSCFM1Xirip4Xi7AeCzHjUulMOmn84ajldkUBpBCic3D4Yth75vOKTeA8uhbvkCAN5pT9k/SVpznxc9GQTJm9wMjOmn7zPD0o+0AWBf5GoYm0H6CuVLpNr47PdNP/2sj40LsF2xa2zZ9O2iJ4MgeaHUgzH99CQAHFd5jw1YeRxgNTsL3Aqn83omcrWZgu6PILmhxMAYjmcaDnlLcRA3BoBP6E8ckPaKM0VRt2n9huMZzNDQn68bDnmEGZ9B1VnDSSt8M2mFfxIHjUTlfRCkSKQbGJYs967scVewAACNPDwA00+fZx6YKmMTxQHZEweNtqLxEaRQpBoYw/G+YzikKXPMFVDDMhG5mqrx18X000MAQBQZmtORqx1TMC6CFI4UA7NiC/qUxNgGXTo0k1b406QV/m0cNGJJ4wpjON6w4ZBRVhbicYlnpGbigDQwAxjpNaQYGLaUOCVjLAZdOhwo8xfO9NM6y0Q2ZI0ZB2RXmX9nBOHlq1kupp7LQyeiPwaAVwDg32WcC/VYgjggL7anRo4lrblSxyXioPEpALxBjeGWbeZ2GZ4bOz3+i7L/7gjSLZk8GMPxDhrO0gG/rNC39kjkaoUvg0Qx/XQSAFwZY6Eng/QKwh4MC+ieBoCtGe7/OQD85/aU/cdf/M2RyhoXWPZo/g4A5nTLTthWt7BHxzyZv01ac7flzhJB8kXIg5G0FR2zLdobGccpHZJ20+jf51HcwkaqDPdRAXZCOKtxoV+aHb1oXGDZm/k5ABxgcSVRDMMhByVOC0FyR8DALGXoZmGmPWXbVY63dEPkajNJK6yzDGNRXjYcz5Y4LQTJFa4lUsazRX17Bsf002vs+IEoI1iSE6kiXXswtfHZ72cxLkkrHOtH40JpT9nfo55bhiEuGY73mMQpIUgudO3BsJILIqny1HPZg7VQMgfHZyJXOyB5SgiilE09GN0a3mL66QVR48I8l743LrAclzmTtELRXJnvmn76nOQpIYhSujAwNl0ajQqO/0x7auRvBa/tSdpTI68CwBmBS7cAwGnW3RJBKsGmSyTTT6lLf1hgbOkuPTv/89yKei0xywKeiwNypkrtXTMsOd3I1V5VMCUEkc6GHgyr/i9S6rLdnrKlpM0bjvckXaKZfvorALjEvKnOF9NgLWU9wyH/y/TT2dr47CEZ91VN0gp/JJgnc5QVykKQ0rOuB8P6Fn0mcFqYehU7ZOS5mH5KqPEQuHSBncYutUeTIeiLfZeQSrCmB6Nbw1sESxF8HgdkjwzjUhufPSloXCiDhkPmTT89UeaYReRqZwBgWuDSw1g8HKkC6xgYe0iwnu6bMtL/TT89qVt21mLhDwGAbzjkepl3X+KA/JnIdYZDfiR/NggilzUNDOsVzctCe8p+O+uEDMf7joJOBG+afnrJcLxhyeNmhi3jRgXiMXWMxSBlZ80YjOmn/8rZeZF+OR6UFHe5kGFbvBsacUD8slXzF4zHYCwGKTX3eTDsQedt6xpKPLyo+nCfZzhkUvE9uGHxGN6g9CgLxiNIKbnHwOjW8FYA4P7yxcFS4anMmH76tMwatxtw3PTT66afero1/FAO9+uKpBW+w3kJ/VtlPd2OIMpYZWDsJwVqy0Zx0LgoaT55BmN3AgCpjYfzpp8qbbLWLUkr/InAZU+zGj0IUjpWGxje5UkSB0Rmtu5uiWN1C/1yflYbn32r6C8qa81yVODSJxVMB0Eyc0+QV6BuidTjAKafprLGysDTkaudL3ICAscIzkWu9ozCKSGIEF96MCwh7Vs8Fyet8KdKZtUdYdIKxzJWjFuLadNP3zcc75BuDfMGu6WQtMIPOC8ZUjQVBMnECgNDTvB2KkxaYaEnpdtTI+9FrvYoAIywIwoy2LIc1yBnauPhBUljcpG0wp9xXvKQ6acqt/YRRIiVMRje+MtCGdq5wvIWbyh44nsz6nTZaDierHa43SJSP6d0SYQIsmRg2PKIN8A5oWZKYkSudjEOyINJKzyVsZr/agYNh/yD6acndGv4AYnjrgsz3Lw1Yw4XtaRDkPXoeDC89V4XIlfL2vdHOnHQaLenRl4AgEclx2aWzjXlvKXd4Py8oVt2aQ92Iv3JkoHRLZu34j3vw58rkatF7Sl7LwAQALgqcWj6Bb7OzjUpPc1MfwcA+ITzsm8qmg6CCNExMDxvvrgK3QGS1twXkas1IlfbQ70PiUPrywcNyWXTT4nheCqXJR9xfv4RRfNAECE6SySeB5P3rVo4katNxAEZAQDZ2+qe4ZBZw/EOsho6UokDwhXsNRzClWaAIKrpCwMDy/GZMHK17wHAEclB4N2GQ87VxsP/JnHMDh9zfr4056oQhPIVdhq3azc/Dkilm7GzU8sqtrSfZrWDZR7W5P1b572djiAb8hWB8z+Vb1gfudr5OCA74oAcFyiRsBGjAHC9Nj4rJQCctELeuaGBQUqFiIH5Z0VzyZU4aERx0HgjDsgeAJDZ97mmW/abMgZKWnMJ59x000+z9MBGEKlQA/MNzmtKXamflzhotCNXG5F8rmnQ9NO3JAV+eeeEXgxSGr7C+0CWvRWIKCvONZ2SNORR3bIflzDOP3F+voiSFwiyJl/hPCJQqjq2KmhP2X8SB6QOAKcB4HaWsXTL/l0JU8K+3khl4TUwMrNiS0nSmrsTB42fR652LA7I72Q5pc3av+TNwwXcE0HWZNPm9/1MHDSoQd2VIe4k49wSrweD5TOR0oAGZhPYuabfZueaPue8PHPAVWK3BgTJHTQwXdA518SWTDxg+QSkr5F+fqYX0a3hrbplf99wyIucl95RNCUEqQRoYDaBpf5fEGwIx7ukWuv+GFNBKssWtvXcrSvfNwWNDMczdMv+QwB4MUMzOBmJe7wGpud3+pDqsIU9kN2+nfsiS9T00+MA4GXtMhkHRMYRBN45/JuEeyKIFLiDvPTNrmYq5cD0U2pYTkpqYSsjSQ7PFiGV5St41mWZ2vjsftNPr7DtaBk0k1Y4J2Ec3sQ5mQc3ESQTWwROR9d6oWRDB+qRGQ4RDeKuRztytX2SxuL1YPBoAVIaqIFpsnhDt3y9F96SrA/1d9jWs8xatknSCkX6S9+Hbg1v5TQwtzExDykTWyJXu2r63beENhzySByUuqnApph+ehAAzikYmnoPR9pTI1K8CN2yeQ3fFzLuiyCy6AR5efI1KrtVbTjeE6af0uXQtOSh20krfDEOyJ7I1WQuUXhr9fTM0hXpDTqJdp9yFIyu5K6G6aeEcynYLU2J8ZZ7MBzC+7fuyVo9SHXpGBieB7NymaWmn54EgOMKhg7jgDyjYNwOXH/rqhdkR3qPpSVS0go/5bnI9NPnlc1IEro1/JDpp57pp9cVGJerSSscjVxthPWRVgVvdTrcQUJKxZIHk7TCT3SLa5eWfmHfUDarjLDC1xcUeFvUQ9gnOc6yJux34J0/bx8lBFFKJ8j7S87rTNNPDymYTyYMx9tp+um7AHBNsnH5AgBIe8r+7TyMC2OS8/NRr9ZLRqrLkgcTB43PDWepTSlPUJEAwFl1U+PD9NPnWB1d2URxQEby/PKyHJ0652Wl9SiR/mXlWSTeavqm4XjDkufDhW4NG4bjPWf66SUAkNKLaAVR0gr/KA7Io3l7BgLFwpM4ICryehAkE9rK/8f0019zHvI7FbnaC7ImY/pp9xl/ywHNREGbDjrmMdZithCYweTxYK5GrrZH4ZQQRIjVBaducH5hi+zBoyof53DkaucVjd0tuHuE9AT3lGtIWmHAef3jpp/yxgo2orBzNEkrPB0HZEfRxoUFqblKRUiqO4Mg0lltYH7GeT31gN43HE9WcesivigRAOxoT40cK3oXxnA86pUdFrj05wqmgyCZWW1gPhJwtw3dsp+VNJ+3JY3TDVdXbD2XYntXt2yRrX9fcbIfggijrf4H009tAJjlHGchcrVdMiZk+ulnORxH8CNXm1B8Dy5YcfFfcbY6iSJX26FwWgiSiftKZkauFgoUjh40/ZQ3MWxNklaocrt1hp14LpVxMRyvxjKPeYzLHQA4onBaCJKZr67z71t1y+YN3g4BwFzSmsu03NiyzfxH3bJ5+w9tBl1CPBO5WiNpzWVuJSKb2ng4L7Bz9Pf091E0JQSRwnpFv4VqyRoOOZhtOktZxW0Fb+bDkavNSB5TCobj2YJb7rhzhJSeNQ1MHDQWAEAk0WzMcLzvZJ1U5GpnklboZxzmRhyQw3FAHoxc7WLWOanAcDzdcIhIjZokDsh7CqaEIFK5L8i7EtNPZwWLYR+Q4TGYfjoKAO8L9HieiQPyTBw0kqxzUAnLeRHZlm5Eriar+wGCKGO9GEyHOd2yxwDgNznHHdUt+/LtX569mWFu1JO6QY2Fbtn/jxmZBzZY1n0BAP89Dsjx9tTIj5PWXKn7QtfGZ3+4ZZv5nwQu/ShyNVlpAQiilA09GFh+y04CgCsw9o3I1R4Vm9baGI5nGg6hb/zHWLYr9VA+BICFOCDNsnssHVi/6esCnhksL/sapTnFjiAbsamB0a3hh2rj4T8INlxbaE/Z3yvjzk1R1MZnv61b9geCf8+wPWXvS1pzlTCkCLKpgYG71dWuCd5jJnK1A4LX9hwZEgnbkas9qGBKCKKMrnpTsypuotuio6afigQyew4W1BXNUi7lNjuCbMRmQd6VfKpb9g/WKPHQDaO6ZSe3f3n2FwLXVh66LHrg9878fYb2tFF7yj5y59c3/4/kqSGIUrpaInVg28YXMtzvTORqfZXezgK6VwRjLsCykHdgS1ikinS1ROoQudpM0gqzlKY8bPrpZ7Xx2SczjFEZauOzP2S7RaLG5dM4ILvQuCBVhcvAwPJhxD/J2EHQ1C37p70clzEcTzf99F3dst8R2YruEAfkxaJr1CBIFnhiMEuwBLbzumVvBYDHBe+7BQBGDYc8AgDXktZcz7yhDcezDYf8Jf39MgxzGwBeak+NYL4LUmm4YjCrYY3ks3yROoyW9bxQtxiOVzMccklSreDS1atBEBG4l0griQMiq1zAuSovmUw/NQyHvC/JuMRxQLDHEdITcC+RVpK05toAcFG3bJudExKls2Q6rFu2vmWb+Y9VyFY1HG/QcMiJLdvMcwDwiIQhL8cBGWYlKxCk8mRaInVgXzTRTN/1OBq5Wp41ernIcBJ6PWLW5A2NC9IzSDEwcNfI0GXCTlljsu6KH7BuBwtFFrc2HM/ULft3dcv+Lqs+x9VaZANuA8CbdFmExgXpNaQZGLgb6Lwu8cu3mjOsFkpuW7fsHNakQK/objkeuRrGXJCeRKqBgbtG5iAAvJwxLrMRnwDAR3Gw1LD/YwBoJ60wyhK30a3hrbplPwIA3zAcMsjODO1W2OHgU5bnUundMwTZCOkGpgPLB+Ftf5KVkLW//acV/Z0WVmbCstR9k3lZ1JA8zP6vqla0axHHAdmFSXRIr6PMwMDdHkuXsmSz9iDUqJQi/Z/pY68o4LV7Ha2osW6z4l4Ra7Z/o4Ap9x1V10ipgYFlT+YxwyEEAL4reBK7V6Diz7Sn7B/nXYCL9V36tuGQx5mntlPC0i9mS9VP4oBcpQ82K3GKCNCrGik3MB1MP30OAE7ndb+SEUauNpL3Tdly8KSkbOtuoA80waB19/S6RrkZGFi20jsNh+wHgKM5tIctAx/FAXkzaYXn80ocNBxvULfsZ3XLfqrAvzF9iD+IA/JB0grnqpA0mSf9pFGuBqaD4XiG4ZCTkhPVygQV69W8W4soSP6TAXXN95Uh5lQG+k2jQgxMB8Px6JrzRyzHRLRmSlm4AwCX6XIoDsh7cdD4NI+bUmOtW/bzumUfV5h/lBVqcK8mrfD19tTIz4qeTN70s0aFGpgOKzya0RILsBERAByJXC3Xdq6mn9IH1qvY36wSTfFk0e8alcLAdDD9lIrwFgA8XfRcOCiktILpp88DwKm87yuJviidihqVzMB0MBzPBIAnDYc4ADAEAA8VPSdGwvINFuKAUG/l53mfj9Kt4a/XxsNXAOCpim/7X40DcjwOGh8WPRHZoEZ3KaWBWQ0rNj7MgmNFuJp0CfRGHJBzRR5IZB7etR7agaMGew9ri9MToEb3UgkD00G3hnXdsncCwDeZdyMzGn+b9be+QQ1KHJA281Y+LkNKf218dr9u2ad7IBi+GvoAN9tT9jFWX6iyoEb3UykDsxKWQs171ulqJ1oOAP/G/i1cfV6pbLAT3VdyOHIRrVHQvSa5BMd6VLoDKGq0Nn1lYOKA1OOg8XN1s5KLbg1vrY2Hf84SE2U9uJ04UsTSx5dOo2+WQs5S2elD/DXdsgfpD4uPbZU0L2BHKSrlyaBGG9NvBsaNg8ar6mYlF9NPTwCAL2k4+tCeiwPSkLXkY+kFxwHgeYmxsUp5MqjRxvSVgQGA05GrHVM0JamwYGGWpm0rocu/ZyJXa0oY6z7YEZC3MrTGXUllAr+o0eYaZeoqUEGcoifQDbo1nLXdbIerSSs8HAfkQVUPLix5ho0bkauNxAHZkbRCnz2AotBlxhXD8Z6QOEXpoEbdadRvHgxlJO+MW14knFdps7MlhXgB7M1+idUuEeVq5Gp7JE5LKqjREptq1G8eDOWkbg2XtgCW6aeHAGBM8PI7AHCmPWUXusSIXC1uT9nfAwDCtv9F2E2/xIbjlU4r1OhLNtWoHw3MoG7Z3yl6EmtB18mssLlo9ufLkasdSVpzheftJK25LyJXa8QBEf0iUg6zThWlATW6jw016kcDA4ZDynZcfgnDIX8qeOkXAHC8PWX/heQpZSYOGhfjgFA3ekZwiNHa+Ox+ydMSBjVak3U16scYTIddZdqpYJXNPhO5Ng7I4TholL5RfoZe5oVUBFwNarQha2rUlx4M42TRE1jFu4LXUSN5XvJclBAHRDQHaTcLShYNarQ+a2rUzwbGptZat4ZlZjkKYfqpJ5CfcAcAfOraVqW2Shw0rsYBGRUIKurUWy0yOI8abcqaGvWzgYHltWP4wyInwEpTiJTW/GnkahNVeXA7sEZzrwtcOqhb9rCCKW0KatQ192nU7waG4hqOlyUXIBO6ZYsEMOM4IC8rmE4utKfsn7ADp1wYDnlKzYw2BjXqntUaoYEBqBkOuWI4Xp6dHb9Et2yRgNqROGj8o4Lp5ELSmvsCAPYJZJMWZWBQo+65R6N+3kVazQ1WhzS3nSV2PuQa5yncZuRq+xROq2tW1Od5mP3T/05a4UdJa66r9XttfHZSt2yX87bH8+y7hBpl06jK5fxk03mQduVlZAyHnOA94h8HpBTN69iOwewaPb0jADjQTQpA0grfFnh4CQDkaGBQoywa4RJpFYZDRLciRRBxvecUzIMLVnfk2hoPLrBSkbPdLDlZSQLec2EGy6bNC9Qog0ZoYO5n0PTTX5l+6unW8AOqbsJOovLmdhzPu8j4auiDazjkbzapOWsYDnmrm3NEcUCOsVIFPORy0ho1WiaLRmhg1oZaf1IbD+cVJnjxBpXbRfd8Nv100HDIdVYlbTN2Gw7ZtP0Mq9LG9XsZDslr1w81yqgRGpiNoW7er2rjs2/J3mUyHMI7XiDz/rzUxme/z+qf8Bhcr5sPxQE5xZnY9S2OzwqDGt1FVCM0MJuj65Z91HDINdNPL0j0aLjiCHFALku6Lzf0rahb9rRAzdmuWnewJQXP75eLgUGN7iKqERoYPkYB4Nemn16vjc/+V8PxDmYIOPJ+SQppULbirSiSpt918e6kFfLs3Bmmn+YR6EWNViCiEW5Ti7FTt2z680ew7EoDO+r+MTvY1k1AjCuAnGd+TgfWikPkrdjhXLcfpA+vbnEd9amzHlYqQY1WIKJRPxmYBgDsFwjcdcuo4JZmN+T+4LJtztmMrTh4AoP/zDn2SdNPy3QiHjW6H6OfDAy0p+yna+PhOYVGRhVd5yEYjrdbt+z9rCeOzrypG3FAprtNXV+xzSkcb0pa4en21AhP1TbV3ohqUKP7eaKfjgo0IlcjkK2oTlEciFxt02pjpp8+DwCn1vmfu2o1wVzu2Yw9dBZEShSYfppmuGfRoEZr3KMvg7ztKfv3WTpz4XVRu2TTmI7pp3UAeGWDjyy1mmABwTUR3OZczQcZ6p9U2YtBje5nsC8NTNKaux25GvVodmSoQ5obm7VZYdmYl7poEarrlj3N3oD3kGGbcyX0rfj7GeqfVKZl7GpQo7XpSwOzkvaU/UwcLBUB/6TouWTg2xyfXXpLmn56slPNL+M2J7AErONVqtxWAH2pUV8Fedciac0lSWvuLACcNxwySUUoek4CPMT5efqQHq+NL710z2bc5gTWiqPQFPkK0Jca9b0H04Fa9cjVXsjYrU8JCs9DHZWwzUld7rclzqmSoEZrgwZmFZGrnY0Dso0VPn5H4BSpCjbbVv9UcFy9wGDhWnSVtl5SUKM1QAOzBnHQiOOgcTFytT+IXG0b82qKNDSbifrLAuaXNVi4FlU2MKjR/YRoYLqAejXU0MQBGYwDQl1WHwB+yra57+QwhQ3rn9AHKA7Ivhx3YWS/FSHnIlIqQI3uJ+77IC8PcdD4GAA+joPGl/9mOJ7Oal8MMlf2sS5dWp5DHfUu5naVrtcNh6jedlfxVgRWg4eHKIc8JtToXng1+hgNTEaW30yNkLesoOmn/7eLnIgvP244Xi0OGhu+/Vg/m1HDWaoJy/swbMZtAHg5DsjbirY5H+P8/JHNck+yghrdB69GIRqY4vics94IdcEvbvYh9gCDgrek0m1O3ip1qo0LAzVagYhGGIMpDt61eNfBNfYAn+Gf0rrksc3JEzzM64gHanQv3BqhgSkIzuI99O3BVYgjcrUjbKs9a1BRerBwNaw1K88J91zOLKFGdxHVCA1MQfA+vN0EEVdD35Js10sUVcHCezAc4nEmkuVSewU1uouoRmhgioO3vKJu+ulbvDdhD7DIW1L5WxHunjDetLL9SuKAfKRuRveAGmXUCA1MQbBWELyxhKPMVeW9F+9b8kzkar+n/q24dML4fYE0+F8omtI9oEbZNUIDUyy8LTlBt+wfityoy7dkm34mcrUjIvfgRbfsgwJp8DObbQVLBjXKoBEamAKJXO08r1vcKTQuAnuAR9Z5K8dxQA50tlDzQLdskdjDCwqmsi6oUTaN0MAUz1XOzxumnxLRm1G3nxXaOgAAp1nBrWPLRyEavHMRhhVU4u3QGEWuVkQVQtSoe+7RCBPtCiZphTO6ZfPWB/Zq47Pz7amRvxO9L6sfW0g1P90aNll1Ny6SVviBmhltel/UqEtWa4QeTMEkrfC8yHW6Zb8ufzb5UBsPPZE0+aQVvqdmRpveFzXqktUaoYEpGLYLcJhVlOdh0PTTC6w3TiXQreEtpp+eAIAxgcvPFNHYDFAjHu7TCA1MCYhc7SwAvCpw6ajhkOtVeYBr4+EfslIXvEvzOK9dk/VAjTZlTY3QwJSEOCC+YOFxw3DI35T5AV4uaeEdEtnyhWW3e70+QrmCGq3PehphkLckMDf8dcMhIgfghuhbEgAezTlHZFNYvZwrGbppxkkrLEVBcdRoXdbVCD2YcnExQ1lF+pbkTlNXDTvDkqVVbyMOGmWoi9wBNbqfdTVCA1MilmsBL5VVFH2AR00/vVYbn31S8tS4MRzvm6xF74uCQ9wBgOORq5ViedQBNbqHTTVCA1MyWCJVli/VoG7ZQZZEr6yYfjpqOOQy6/8tugz/oKy9llCjL9lUIzQwJaQ9Zf+FhAQrz/TTX9fGZ/9c5PAdL4bjGYbj7Tf99BIAXMjYaiNqT9kvS5yedFCj7jTSMtygUEw/tVlDqm5pRK5W2BtDBOpKZ1wbr+R05GrHJI11D6afPp/xjb6SNgA8GrlameIu64IabQwamBKjW8PfqI2HocTi0AkANOOAhOww3YciOxqG49Ev1BOGQ4YAwJE5v6QVPt2eGsntMF9WUKONQQNTclhL0lmJb8nV0Ie4yYor0f9eWPlmMv10N3s4h1kbD1XzoF+sPZGrFZKtmwXUaH3QwFQA9gBfV9DmokycYr3BKwlqtDYY5K0A9G3VnrLtvGrR5gx1/0l7yv6zoieSBdRobdDAVISkNfdPkavtKur4viJusGBhI2nN3S56MllBje4HDUzFaE/Zv0/fJgU348/KHQA4056y91Vlt4gH1OguaGAqBn2L0LdJxmzSovlR5GpHktZcEdXplIMa3QUPO1YUlk26AwD2Gw55EQC+VfScumA6DsiPWbX+ngc1QgNTadgBs7MAcN5wiAsAJwTaS+RByJrV96THshH9rhFuU/cQpp8ektzvWAaELheKnkRZ6DeNMAbTQ0SudjYOyG8krfAw28koou5IAgBXk1b4YhyQHWhc7qXfNEIPpscx/fQgK4Go+jBdvNxwi7zaLzEWWfSyRhiD6XFY47DzhuPtBIAndMsepD8s4/QhANgqMOwXrHTkjTggC8sN2Bu8fZwRRi9rhB5Mn8Oaa+1kP/9+jXMsEQDcZP83ilwtLGiqfUuVNUIPps9hB9d6Mb29Z6iyRhjkRRBEGWhgEARRBhoYBEGUgQYGQRBloIFBEEQZaGAQBFEGGhgEQZSBBgZBEGWggUEQRBloYBAEUQYeFehzqnzOpV+YaPJpNFkvj0ZoYPoEWSd1TT+FspzU7TWGxpY12j5gDz48IK7RRPNejeanlzW6PI2nqbsGT1N3Ry/XGukVJpr5ajQ/TV69PJ2PRv1kYJQ1Fi8ThuPpumUf1C17FAB2F9BpsFMtbSZphRfjoNF3dXg3Y2jM07cP2AcfHihWo5uL4cytxfDi5Wl1GlXZwBgA8GuOS8LI1UYUTqlw+q3eaxWZaJZTo8m6Go0qa2Bg+QuVcnw8jlxtm8LpFAb1WvqxYn2VoF7L3rHyazRZl6vRV2UOljeGQ45yBMCoqD9JWnP/onhauWE4nkGXQ4ZD6BvxP5Y4aG8CwHHDIY8AwPWkNfdF0RPKi6Exz6DLob1j1dBo79iyRrcW5WhUdQ/m2hpbdusSB2QPa4ZVeQzH22045BL9z6LnIsDhyNXOFj0J1QyNebv3jlVXo8l6do2qnmjH6849pmgeuaFbw1tNP/UqbFwo75h++q5uDaveNSmE7QPDWyeaqVdh40J5Z6KZvrt9IJtGVfdgJgHA5bik8jtJpp9eAIDRouchiRsAsKfXGuBPNHtPo8m6mEaV9mDigPDu5e9WNBXl6NbwN9iSsFceXGCZqddNPz1BPbOiJ5OV7QPD35ho9qZGE830BPXMeC+utAdjON6g4ZBrnJftqNpuBtuSv15AvkSenIpc7YWiJyHKRLM/NJqs82lUaQ9GIAYDVXu7MOMyq/DBpX/D0wBwBABGAGBb5Gpa54f92wH6cClunXGUnYuqHMy45KrRZF3TOj95asTORXVNpT0YWP4CXgKAOsclcXvK3pG05kq/7qfLotp4GEp8cBMAaMYBCdlD+2EcNLh7I1PPEQCeMBwyBACOzPklrfDp9tTIRUnjKYcui559Tb5G89N3Nbo8za/R0NiyRnvH5Gt0czF8+q9f6k6jXjAw1CO5wHNNHJDDcdAo/TYp7zb8JigLcJt++jx7e8qAfpkerUrgl8VcpGk0WVej0URTvkbdBH6rvkSCyNVmAIArt8VwSKmXSWwr+oKEBzdOWuErcUB2qNw9i1ztjTgg2+Jg6e/azDgcfdNe063hr0uanhLYVrQUjW4uhq/MT5MdqowLZbKuvTE/TbbNT8vTaPvA5hpV3oOBuzVNeIO9u1hLztJh+qkHAFlPfhd2epx5le9mzAE5F7naMxKnJZWJphyNJuvFaDTRlKPRZH1jjSrvwcDd3r2fcF52wXC80iV6GY63GwCOZxhiIWmFTpGlKahXGQdLa3/qXd4RHOYptvQqHUNj2TW6uRg6RRkXWPZoZuans2vEll7r0hMeDIi/9aM4II/GQSNRNC0uDMczDId8luGtMhO52gHJ08qEQDLkal6IXE1W7CAzQ2OesXcsm0aT9XJpNNHMrtFkfW2NesKDgeXArchyh3owwwqmI8r+DA9uHAekdFnKcUAaGbdOPWp4JU4pK5k0mp8un0bz09k1ooZ3rf+h0qepV3Fz628d/i7vdpxu2Y8AwHtJa07UTZQCK7lwBgD+g8Dll+OADItsOauG/V3PJq3wU92yqUv+m5xD6HSY2788O6doil3DSi4IazQ/TYZFtpxVc2txWaNbi+GnDw+Ia/Q//8f9GvXMEgmW3XHqkXwmcGnhSwvTT+nyzhO4NGbLvNI9uKvJsJ1dilo+E01xjeanyaNlNC6rybCdHU/W79eoZ5ZIsBxcjFjQipfR2vhsYQFFVonuhMClM1UxLpT2lP0Tttbn9RYN00/fVTStrmCV6IQ0qopxobz3krhGE837NeopDwaWlxq24RCeWr0dEnayN9eta7Y0+leBSxciV9ulYErKYcbiMO91cUB2xUEj99QCtjQS0miyXk2NmLHg1mh+muy6PH1Xo57yYGBpzR9eZuc2eKHryCu18dnvK5jW+je17IMi1yWt8EX5s8mH9pTdYNmgXOiW/ayaGW3M9gExjW4uVlej914S02j7wL0a9aCBmbvDslZF2jLoumVP53nojlX/56XRnhr5OwXTyYWkNUeXsvt4r9Mt+yk1M9oYVv2fl8Zfv1RdjW4timn08MC9GvWcgVnBOcHrqCczm6OR4a1RE/dCfye2FOUtX2qyQH7ecGtUZBKdLCbrYhpNNO9q1LMGhgUURdfrBgBcq43P/qnkad0Da4rGta2etMI31c0oX5JWKLKUPalgKuvCmqJxaXRzsXc0urmYTaOeNTCscv1IlgQi3bJfMf10VmGil897QdIK/0rNVPInaYXnWbdBHkYNx8uzqBO3RrcWe0ejW4tiGg2NLWvUswYGlt3wOA7IvoxZiku7UobjHdStYWn9bFivaF53/3QvdUpkRzSeYTt4PHxb0ZTugfWK5tZIZafEvLk8nU2jnjYwsPwQtyWk0A8aDjlXGw+56s5swhOcn0+qXrB8LSJXa/LGywyHPK5uRvfArZHKkgtFMVnn12jv2LJGPW9gYNnIXGW1SrImO9VNP/216acXDMfbn2Ug3bJ5g8hZa3iUFnZeiecNmUsAfvsAatSBnVfi1qgvDAwsG5mLcUBkRPaN5TgAmTH99DNW+4QbXgPDylz2JGzZx7OM3alwOl/yMKeBYWUuexK27OPWqG8MDOOs5KLIdH1+gXo0pp/ybmXyBip7Zl2/Djy/X15b1ajRvXBr1FcGJg4aSRyQPYLboxtBvZgrpp9eN/30Um18dtJwvEOG4z2+QVGrhzjv8aGEeZaWOCBc+Ramn9rqZvMlqNEK5qf5NJpopnZZG3ErY3nnonHM9FNd5KzFJlC3cKdu2XXduvv8G87Syixa9QbgaWIViR5onGimdQB4ji3tYgB4mwXtMjM05g3uHSPPr/Ao5uanyWnBg30fc36e/oGFlyTsfNFuptlqT+Vr7N+5NKrKgcYMcGvUdwamQ+RqRwzHe8NwyF8CQB67EmYG157LIGwfGN6yfcD+4d4xcniNLNTRiWZ6dX6anLm1GP4VqwXCxfaB4a8/+1r4CvPcVm7d29Tg7B0jp997yf7xrcW52xzD8n45hfqMM6NIDe5TAPCAyBjr0LMB3hVwa9RXS6TVxEFjIQ7I7yhuViUDLtd7+4D9LP2Sb5Divpv+76sPpnXLs6+FrwPA06uMSwfqKbnPvhZyZUHHQYP37Bh38iMzLtcA4Khk4wK9vjyC5UAvt0Z9bWBg+cGOI1fblbTC4wIZi3nBFTzcO0a6Kkjd7edWwlLnv9vFR492sjk54Pk9uWMwe8fIf+G9hoNeD/B24NKo7w1Mh/bUyBsAsEPgcFcedO1hsdae3W6vDvK2AmWp890srY29Y+Qo59jKvqTsAJ6javwKeMGy4NIIDcwK2NGCA1mChyrg7HLI+2bn/TxPHKlMBdWVJud10+WwH0EDs4o4aLQjVxuJA7ILAN4ROINRNLyxia4/PzTmSTuLVQCVbKxfddDArEMcNBYiV/sDAHiwYjsEvN5X159nB9943tRlikv0yxKmVKCB2QS6PIlcbR/1aJJW6LMHNVevhiepjCVDfd7lxz/nTZ7iKF+QzE+TNzjHVlaGgaXxK1vGTDRzSfwrA1waoYHpEurRtKdGJlih7QdF6oRkoOtlDPMy3uny4++wz3fNZF17tctypDMriz93Cc8ZI66xL0834gxVDruhTM3hVMKlERoYAZhXMxEH5DfigAzFwdJ27xn20KvI5uQKlr73kv0XrLfNem9s+u+n2Oe4ubkY/mgDI3OHGpf3XrJf5hlToIgU99+ZFbIWaWvTDWUKaCtBIO2g3beZvDJgBZN+QX/ioPHlv9Mvi+EspaE/wZLdjIxBRi73+9bi3O3JuvYCALww0UzfYollHU5nrVny1y+N0N/50YlmeoL10Om8vSP6/0/WtfMCw/KekOZObLu1ONeerGsH2Nb8+5JPZffDEolbIzQwClguctWY2ehtafppyjGksHFixkRJESS2XHpV0nBf4/y8cDxlsq4tDI15u9hZJH2tmNpkXQsnmvloVCG4NUIDUxxf8KSrG443WETTsbzIuwDX5elGcnm6sdkOGpdGQ2PeoEDcqTKIFODCGExxfML5ed7yjZWC08DEkauJ9L3iBTVaAWcBrniyrt1AA1McXF8QwyFD6qZSLKxrA8/vx/vFF4VLo71jvavR0JiYRmhgCiIOCK8rrfIcTaEYztIuHE/tlVwMzPw0atSBHYzl1ggNTHHwPrw100+fVzSXwmDtW7h+L97qdxng1mii2XsasfYtXL9XJ4ETDUxBxEHjQ4GdkFMKm8AVguGQtwSS1HKpvXJ5WkwjtpzoGfaOiWuEBqZYRJK+eiahi9Ur5s0fiQWKU2WhrzUaGhPTqFOcCg1MgcQBeZX3XJPhcNdYKS26ZT8ncFmuTeXnp/k1EqiDU1q2D2TTSJM7HYQX00+vbFDacj0ORK6mKuU9F0w/pS73r9Ypu7keceRq2xROa00mmmIaTdarrdFEU0yjyfpdjdCDKZikFYocwHvXcLxvKphOLujW8AMAcInzwaV8oGhKG3JzUUyjobHqarR9QI5GaGAKJmmFFwUuMwyHvKJgOrlQGw//UMAjoEvKQgzMrUUxjfaOVVejZ18T02h+mqCBKROsbapIXOG7pp9OGk61qsyxnt4vCly6kLTCOQVT2hTWNlVIo4lmOlm1SoBDY+Ia3Vq8VyOMwZQE009nBU/kLsQB2cNOdpcaw/F2Gw65InAp/d0e5KxNLJ2JprhG89NkD2/tnSIYGvN27x0T12h1bWL0YMrDEcHrBgHgoOS5KMFwyAnBS68WbVwYPa/R3jFxjdYqfI4GpiRErkbd8GmRaw2HvG766fO6NVzK0/HUczH99ALrBMlN0gpPyZ8VP5N1cY32jpHXJ5rp89sHyqkR9VwmmuIa3VxcW6OvZp4ZIpPrumX/kcB1vwkA9a2/dfhf4qDxCwXzEsZwvP2GQ4IMxZ1mPn91R0PytLJw/eEBcY0Gfufwv1yeLpdGQ2Pe/r1j2TR669DaGqEHUyJYhuphVnZShFdMP31Xt4ZFe2BLQ7eGHzD91DMcIvTGZ5yJA/KMxGllhmWoZtJoopm+u32geI22Dww/MNFMvb1j2TSan15fIwzylhBqJNhDLEobAPZFrlZI8SOWRHdJZJtzBVcjV9sjcVpSoUZChkaT9WI0Ykl0mTWarG+sEXowJaQ9tVScOst5mxoAXDP99EptfPZQXlvZhuOZtfHZSZb9meXBTVgh9dLCCohn1miimV75wWuzh/Layh4a88wfvCZHo/npzTVCD6akMC/guqReQTEAPBO5mpIGcobj7WSnomUUvk4AYE9R3hcPzAuQqtFkXY1GQ2PeTnYqWppG3Xhf6MGUFLYtK2v3hH4RLtClFzvBLGdQxzNMPyUst0VWVf1mFYwL3O1HLVUjuvRiJ5ilMDTmGRPNlLDcFmkadbu0Qw+mxOjW8NbaePjnrO2ILBc6YYWUIla46WO6KtusBALrW7QTAL6mW/Ygq6E7xFnlbDNm2lP2saQ1p6K3lBK2DwxvffY1dRqxwk1LGnVKIKwH61u0pNH2AXuQ1dCVrtF7L9nHbi12pxEamApg+kt9fK5IfIDXI1qjn3RNcv+g9ZiJXO1ADvdRAuu11PMaTdb5NEIDUxFq47P7dcs+rbJ/c0HQt3Wzap7LWvzgtdn9Dw/0rkY8nksHNDAVggV+r9H/LHoukqhMQLdbWOC35zQS3U7HIG+FiFwtbk/ZDmviLproVRauxgGxe8m4AAv8vvdS72g0P03sLLk66MFUFNZhoBRndAQ4E7ma6MHBysA6DFRWo8l6do3Qg6kokau9AQAvZOnRXBAzcUCU9MouG5P16mo0Py1HIzzsWGHioHEVAN6m6+Qt28zBHHYwRKHr+MtJKzz++as7GklrrupLh665PH1XI+Nr5dfo5mJ4/K1DOxq3FuVohEukHkLCGSYV0PX7SEnquRSOhDNMKljSaK16LllBA9NjGI43qFv2s7plP1XgTgZ9UD+IA/JB0grnktZc6Su55cnQmDe4fcB+9uGB4jWanyYf3FoM524tqtEIDUwPY/opfXhPihYREoA+tITFh5AumGgWoxGLDykHDUwfwNL8v2045HFWvnGnhDdnzBqcf8KOHHyYc8fFnoKl+X9775gajdiRgw83O24gGzQwfYzppzY7APcYO2y33mG4BVa/pNOruRm5GhqTHJhoims0WS9eo/8fAAD//7BDnqfZ2hPbAAAAAElFTkSuQmCC;" parent="1" vertex="1">
          <mxGeometry x="610" y="1400" width="100" height="100" as="geometry" />
        </mxCell>
        <mxCell id="BkA11-pJICdlrNbVSPuY-7" value="&lt;font style=&quot;font-size: 14px;&quot;&gt;Workflow&lt;/font&gt;" style="text;strokeColor=none;fillColor=none;align=left;verticalAlign=middle;spacingLeft=4;spacingRight=4;overflow=hidden;points=[[0,0.5],[1,0.5]];portConstraint=eastwest;rotatable=0;whiteSpace=wrap;html=1;" parent="1" vertex="1">
          <mxGeometry x="610" y="1361.43" width="80" height="30" as="geometry" />
        </mxCell>
        <mxCell id="BkA11-pJICdlrNbVSPuY-8" value="&lt;font style=&quot;font-size: 14px;&quot;&gt;poll&lt;/font&gt;" style="text;strokeColor=none;fillColor=none;align=left;verticalAlign=middle;spacingLeft=4;spacingRight=4;overflow=hidden;points=[[0,0.5],[1,0.5]];portConstraint=eastwest;rotatable=0;whiteSpace=wrap;html=1;" parent="1" vertex="1">
          <mxGeometry x="490" y="1415" width="40" height="20" as="geometry" />
        </mxCell>
        <mxCell id="CV1ANiS9sg0O7ec1Tf8R-4" style="edgeStyle=orthogonalEdgeStyle;rounded=0;orthogonalLoop=1;jettySize=auto;html=1;" parent="1" edge="1">
          <mxGeometry relative="1" as="geometry">
            <mxPoint x="600" y="1460" as="targetPoint" />
            <mxPoint x="420" y="1460" as="sourcePoint" />
          </mxGeometry>
        </mxCell>
        <mxCell id="BkA11-pJICdlrNbVSPuY-10" value="" style="shape=image;verticalLabelPosition=bottom;labelBackgroundColor=default;verticalAlign=top;aspect=fixed;imageAspect=0;image=data:image/png,iVBORw0KGgoAAAANSUhEUgAAAgAAAAIACAYAAAD0eNT6AAAACXBIWXMAAAsTAAALEwEAmpwYAAAgAElEQVR4nO2dCZgcVdX+exKWzHRVD0lEjAZjMnWrJ4MEpPvemkR0cEFFwD2uqLh8IIqIK66fuO8Koh8fbn/lU1EUBVFEUUHFHVkkIKKAyI7IJhCWZPyfUz2ELDOT6enqfm9Vvb/neZ8shKTqnHPPvVV17zmVCiHEd/qqy1Y+uDpkd6nW3eOCKHl2ELtXhMa+MYzd+4LYHhMY93/y8++Izghj+4vA2HNC4/4sf+4y+W83ya9vvl/y3++SP/efzbR+4z/T+nPuH+n/H9s/yo+/079bfv59+XtPlL/jOPn3PyJ/99vk9w6pGfeCMG7uU4ubdt5Qc+dKFG2PNhohhBDiLQsiV9OJXSdPmXT/SybV98hk+2WZWE+Xn18gk+21Mtmum2TC9l5yH7fqIkQXJPLjN+WePhHWk9cFpvmsmmm4geHGIjFBH9oHhBBCSFfQiU4mv8eEUfIymQw/IJPhN/QJXSbIW9CTNFzG3SO2uSSI7Q/EHkfXjDtUF0Ph8sRUGo1t0b4jhBBCtsrgrnvOD+Jkz8AkB+lkNvE6/gb4JJtXGXtf6xOEO1UWCh8WvWRwOGlUFo/2o31NCCGklKyeO2iay8Koub9MUkemE1TsboRPmGWRLAxkYXVRYOzx6ScFWXTttGJFFR0VhBBCCsZg7JbqJjeZcI6Syf7XojvhkyC1mXSfhL043T8R20MGouajKmNj26BjhxBCSF6Iou31e73o7TKZfE8mlevxkxs1G4kP75Affy4Lgo+G9eRp+okGHV6EEEI8YdGixkD63T62R4Stb/aTHZGjCiLdU9A6wuhekh5XJIQQUhZWzw1NkgTGvlOfDmUiuBc9KVFAGXehxMIn9eSBLgbR0UkIISRDdli+cklg3MHy5PftiQI3+ImH8lF3h8b+LIjtW9M9BIQQQnLHHD0ulu7Q14p4sRv3YHKhcid7g540COpu9Y4jYwE6qAkhhEzG4tH+IHbP0F3gIY/kURlLT37optAgtq8M4saD0OFOCCHlRiZ9PYufPqUZezt6kqDKIrsuNO5srUHQX1/1UPQwIISQUqAFX2qRfaFM+KdIIl6Lnwyokmt9aOwvRYdVlyY7occHIYQUjNVzq6b5RD7pU55rvb4Z0FLQ2uQJPWoIISS3hEN2pSTUY7WdrQfJnaLakL1LOyCGkd2PFQkJIWQGDIzYh+i3VUmg5+OTOEVlIOOu0+ZQ1ThZgR5fhBDiF43GtoGxz2x1fdNGLx4kbYrqggLjfqUnCXiskBBSagaGG4u0BK9M/FeiEzNF9VKtvSz2uAHjdkOPQ0II6RVzdENfaNyJfNqnqHQxcI5uHNRjrejBSQghmdNqutN8tTzx/xWdcCnKT9kbgti9O4h23xE9XgkhpGOqy1Y+uFWSlzv5KWqGurt15DVZjh6/hBDSNrWh0Uh3PrO9LkXNWut1Y6x+MkOPZ0II2SpBnOyZ7uZnAx6KykxBbP8YGvcS1hQghPjGnLQmf2x/i06UFFVkBcZernUytCQ2etATQspMFG1fjd1reIyPonor3VMji4F3LqyvCtFpgBBSJkZGttNjS2Fsr0InQooqs9LNtcYeyYUAIaS7PDDxX41OfBRFbaIbtagWawkQQrIlLdUrE7+x13iQ6CiKmlL2Kt0joJ/n0GmDEJJv+oK6Wx0Yeyk+sVEUNVPpvpy0uiBPDRBC2iU0bl925KOofCsw7i+1yL5QhvQcdE4hhHjO4NDoHqGxP0MnLiqD5B+7OwNjb57Q5fLry3RCaNWet+fIAu8X8ufOkN/7Q/prYy9I/4xI/tv19/+/6PugMomFc6uxezw6vxBCPKQ/couD2H5FksV6dLKiNlKrYdI/ROeJf34sE/MJ8nuf0Z3fNWNfq093tbp98uBw0thh+colXd0NPjKy3cCIfUh1yO4iC4PHBqb5LPnxv2QB8XbRJ2SS+bIWgRL9emKh8W+4/ahNJL75XhA3hrsWI4SQ/KB9ySUxvE+fFtHJqZyy68J0gre/SBdgMrGLDqzWk70G68kj8v4NVxvb1OKm1b0koXFvFn1WFgenyf1eLFqLt38JZdy9uoiUhcCD0PFBCMHQJ0+OL+LO/t5I+7/LBP8b7QGvxZOqsX1CLWoM6VM1OhCQ6BuFcMiuDOPmARKLH5HFwemMyZ7F5M014w7N+yKTENIGA8buPvH9F56ECinjrk37IRj3Ya3frq/MK9yE1RaDS3bbIe0rYZKD0qZSxp0ti4M74L4tooz7cy1K9kb7nBDSRWojowv0FezEa2d84imA5CnqCpmYvhrEzVfrq+5FixoDaD8Xl9Vzw2EbV03yfFkUfDptkMNYzkrjYtOv9ZvRh6G9TAjJmNYrVvdPDxJNfmXsfRM75o+qxva5TJZ4dA+LtsuVyevdsiD4kX5qgcdJjjVhv8N1sYX2LSGkQ3RnuExaP0QnljxKXzmr7bTpSrXuHscObHlg9Vz9xKXftmVB8HX9HIOOozxK367oyRK0Nwkhs6Mv/X7KJ6I2E196Bv44bW9cWTI2D+1E0jmDprlMy+OKf8+QBcE96BjLkdbrWFgQuRrah4SQGVIdbj6yteMcnkC8V7pAMva78qR/sL4tQfuOdJf5yxqDQZQ8W3z+BTa1mqnsVWFk90P7jhAyHVG0vSS29/ApZ6taIwukj+pr/bIfwys71ThZEcTuLTJuzuSGwukli+XjdSMx2meEkM0I681VksAuQicJXzVRCvdoLXWM9hXxk3DYLtRjm60jnGkFRnjc+id7vb5BQfuKEFKZqOSXHu1jCd/NNdHF8P36lIf2E8kX/fVVD5VFwGFaf0BiaBwdy97JuG+wkiAhQNISq2zVu4nSNqjypK9FZMREfWgfkfyjfTLSTYRcDGwme31okqei/UNIyVg9N4jtu/iasiWZ8G/R2ua6IEJ7hhQb7c+gx0K1ABQ67j3RuDaC0v1HaN8QUnjmL2s8XAbdzz0Y+HC12tomB/F8PgEwJy1AZOzx8iR8F3oseKA1/NRGSBfRjmpl78+ePu2nDXWYbIgfDO6653xdiIbGXYgeH1jZtfqppMJPb4RkhxbiaD1poAc4cOKfeNqvLB7tR/uDkKnQ6nm6QC1ze20tyTww3FiE9gUhuafVEc3+HT2oQYnkNv2+mLbNJSRH6FsBWQi8QTeloscRRMZdV4vtU9B+ICSfjI1tIwPpfeUsTmKvkgTyZq3ahnYDIR0h47hm3Av0DRZ+XPVc2mHwaJbUJqQNgmj3HWUC/IkHA7jXE//5Woil0mhsi/YBIVmjb/Mkvk8s26JeFgHnDsZuKdr+hHhPrW6bpXttqOertfkONw+RElAbGo30ybhMpwcC426qRe5JaNsT4i1B3Hx1aer4y30Gxn6xOmR3QdudEATVpclOMhbeJ+PgX/Dx2BPZdUFs31rhQp+QjVgyNq/VnQw9QHui9foalBv7CGmh5bxlYjyidcQVPj67LrnP7w0u2W0HtN0JgTNvqLlzYNzv0YOyVxN/OGxjtM0J8ZGF9VXhxELgVg/Ga3cXAcb9hW//SKnRdrRhbG9AD8YuS3cCnzpg3G5oexOSBya6En646LUEAmP/rcXN0PYmpNf06Uq/BLuBz2D7XUJmx8RpoA+nFfbwY7lbah0V5MkfUgZa7Xvtdz0YeF1TYNxpWhENbWtCioB+JtTqggVv/nWGFk9C25qQrqHlMYtcEEQm/kvkiWVftJ0JKSJhvVkPYvt99DjvWv6I7V/D5YlB25mQzKkONx9Z1JK+2qBIP2lURka2Q9uZkKKjXQhl3K1Bj/vu5BJ3UxA3Ho22MSGZUY3tEwq5szd9JWmP02+VaBsTUioajW21814xjw7atdW4+Ty0iQnpmDBKXhYady9+UGU9+bufVOuju6LtS0iZqY2MLpioKli0DcXj8oBxJNq+hMyWPg1gDwZSpgqMvZRHdwjxi8AkywPjfojOD9nLHqcNldD2JWTmRNH2sir/Gn7wZDoQ10qCeTuP6xDiL1WTPL9wtUWMPXnRosYA2raEbBV9JSdBexZ80GQ6AN3Z+oSBti0hZOtomd302KC+Rkfnjsxkz+83ow9D25aQKRmsJ4/QEpf4wZKNdOOi3M/BFTbvICR31KJkbxnDl6HzSGb5yNgr9Cgk2q6EbIEGpgTpP9CDJMPJ/1QtQIK2KyGkAxaP9k9UEyzIJkF7A8uKE68IIjcSGnsNfnBkMsCul4TxErRNCSHZMWDs7oFxf8Dnl86VHn2M3CjapoRUtOStTJj/RA+KDDQeGHu8NiJB25QQ0gXGxrZJawcYd4cH+aazRYDcQzV2j0eblJSYIE72DGJ7G3owdC57QxjZ/dD2JIR0n/TIYOzOxeedDhcBsbuzVrdPRtuTlJBqPdlL21miB0HHg8i407VHAdqehJAeopUEW3VK1qNzUEcy7p7ANJ+FNicpEdrwJv8tOuX668nrKtzhT0hp0TLlkguuxuejjnLZOu5bIj1Ba1TnvrSvcRdW42QF2paEEDwTdQNOgOelDhcBQexegbYlKTBh3Dwg5z25x7VuuFYqRNuSEOIX+hSd88+aWvjocLQdSQEJ6+7lYa4ra9mr9XUf2o6EEH/ReiZ5Py5YM/a1aDuSAjFRXzu3hTTSJiE83kcImQmNxraBsUeh81YHGtcHNrQZSQEI68nTcvzNf1yrgMltzEHbkRCSL/TBJ8c1A9bXjHsB2oYkx1RN84l53e2v9Ql4PIYQ0glB3BiWHHgxOp/NSvrgJg9waBuSHBIO2ZW53RBj3J/ZvY8QkgUL66tCySsnwfPa7HLhPWHc3AdtQ5IjWnWz7c3w4J2V7Ak7rVhRRduQEFIo+oLYHpHHvVBaMVDy+WPRBiQ5oFof3TUw7iZ00LYtY+/TAYq2HyGkuFTr7nFp6XB0vmt7EWBvq9VtE20/4jGtlr72enSwti97PVe4hJBeMBi7pZJ3zsPnvTYXAfJgVx1uPhJtP+Ihg/XkETKRXoUO0llozQ7LVy5B248QUh70M2MQu+95kP/ak3HXhcsTg7Yf8YjayOgCWR1eAg/O9oP5J1rGE20/QkgZWT1XK4vC82CbCoy9vLo02QltPeIDIyPbhcb+FB2UbQdx7P6fFuxAm48QUm60qViYs66CWu1w0aLGANp2BEufrAaPRwdjmxrXNp4VdvEjhHiCPJA8Q3fbe5Af25D9doVF0sqLBMAH8EHYhlpnWg9A240QQjanFjdt3jZRB7H9GNpuBMBEcx94AM44UI29uVpP9kLbjRBCpqJ1QiBflQNrxh2KthvpIbUo2TtP9f2D2F2mJTnRdiOEkK0xuOue80Njz0TnzZnLrgtN8lS03UgPCCI3IhPqLfigm6GM+3O/GX0Y2m6EEDJjdHN1jsoHa9n3gaj5KLTZSBcZGG4sEkf/HR1sMw7K2J0bRLvviLYbIYS0jx4TtF9B59E2Hraunb+s8XC01UgX0CMfMqH+Dh5kM16Rut9rfQK03QghZPasnhsa+wV0Pm1Da1hbpXj0SRB+14PgmuFK1P5sx5GxAG00QgjJgD55+Po0PK/O9OErtj+o8HhgcQiMfSc6qGYcfMadVlk82o+2GSGEZInWL0Hn1zYewo5E24tkQNU0n5iXFpayUDmlEkXbo21GCCHdoNVSGJ9rZ6BxycfPRNuLdIA2yQmN+6cHwbT1yT92X6uMjW2DthkhhHQTWQQcEuagdLCeFqsNjUZoe5HZsHi0X3fRo4NoRoFm7Bcr/OZECCkJQWRfpU/Z6Ny7VRl7AXsG5BBZZX4JHjwzktajXj0XbS9CCOklMrkehs+/M3hAi+3X0bYibVCN3WvQQTPD1eXJ7OhHCCkrQez+G56HZ6Casa9F24rMgDByo62mOfig2YrOqCwZm4e2FyGEIJF8/SEP8vFWHtbcvYGxj0XbikxDdWmyUxjbq+HBshUFxv2K5/wJIaSF5MRPoPPy1mWvZ1l2Xxkb20ac9HN8kGxl8o/d7xZEroY2FyGEeIQWC/p/6Py8VRn7S3629RBxzvvgwbH14PlTOGwXom1FCCH+sXquPGWfAM/TW5X9ANpSZCOCuPFo34v9BMZeOjBiH4K2FSGEeIs8XQex+x46X29F66t19zi0qYgwf1ljUCbXKzwIiqll7DXsMkUIITNgydg83ScFz9vTPdDF7ko2DfIAraCHDoatBMqdNdNwaDsRQkhe0E+lsgj4Czp/Ty+t4UJghHHzAHwQTBsg62QB8HS0nQghJG/UosaQ5NEb8Xl8Ghn3ErSdSsm8oebOgbE3wwNgGtWMOxRtJ0IIyStBnOwpD1Jr0bl8Kskc9O9weWLQdiobc8T4Z6GdP21gxO7jaCMRQkjeCepudehx86DAuN/zaGAPCWL7LrTTtzL5n8r6/oQQkg0yyb4dnde3kvPfjbZRKajVbVPLMqIdPs1q8A87rVhRRduJEEKKhOT9/0Hn9yll7H3hkF2JtlGh0YnV552hgbGXazlitJ0IIaRwjI1tE8T2R+g8P13+Z5XXLiIrwM+inTyN828PTLIcbSNCCCkqOsHKPPBndL6fWvZ/0TYqJGmXP383gozrRhW0jQghpOiE9WY9iO1tHuT9yecC4x6DtlGxGBnZTlZWF3ng3Mll3IfRJiKEkLKg9VV0soXn/kmkn6nZ6j1DZIJ9L9qpU0/+9qf6bQptI0IIKRNBbD8Kz/9T631o+xSC6nDzkbIAuMcDh06mfwTR7juibUQIIeVj9VxvNwUae99A1HwU2kJ5Z47HTSHursVNizYQIYSUlVbPAD+bwaUFglgPZvaE9eR1aCdO6dzYvhJtH0IIKTvabE0fyNBzwhQ6HG2fXKLtc9M6y3gHTqbPoe1DCCGkRWCSgzyYFyZ5UHR3DprmMrR9ckdg3A/RzpvUocb9gTs8CSHEL4LYfgk9P0wxZ/wQbZtc4WubX3HkHeGwjdH2IYQQsimLFjUG/C0S1DwAbZ9cUBsZXRB62gM6iN0r0PYhhBAyOYPDScPTU2M36tyGto/3+Fvu134bbRs0uuM2PZYZN/fRyodpm86ouX+1nuxVrY/uOrhktx3Q10hIkdExpmNNx1xYT562YRzKmNSxyUkm/RTwVvx8MYlkbkPbxmsGjN1dJtp1cEdtOflfXfaBJTb4xUxspSU6g9idKz9+Rf6fN1Rj+4SF9VUh+voJyRPa+Kxad4+TMfV6GU9fnhhTMyt/a+zP0NcPZo7Y4Ez8vLHFPLJO5zi0cXylT5z2S7yTttB6ncTQxkGiTxwd2dDY+/RMrOgT+tSy48hYgL4nQnxi4vv1vlrdTvTbtL1sB2Ou7I3J5g01dw6MvdmD+WPzRcAv5PL60PbxDm83/smARNsGjdjgY5naVZObcWfL33sEN1WSsqJVRGUcvER0YvZHnu0H0PeHJoiSZ6Pnj8lUi+wL0bbxCn0ilEnhGrRjtpz83bnaiAhtHyyr53bbN3q0Uos+VZcmO6HvlpBuMrjrnvMl3g/WBXDYxWY2kruulH9uDvp+0ejnE/Q8soUkn/It6EaIUd4Hd8qWA+jOsr9GU2qRe1IPB4Z+KjitVrcv0lei6HsnJBPkIULyyTMkxk8Ke1ixTvcQoG8dje4/Ettfhp5Ptsx17r1o23hBf+QW62QLd8hmqhl3KNo2PiAT8lcR9peYuCUw9pPh8sSgbUDIbOivr3qoLGrfI8n+OswYsl9C28AHwiG7UuyxHj2nbJbf7tS5D20bOJLkj0c7Y5KB85sKX59VKo3GthKot4L9oa9Jz9CjTmy7TPKAnkVP85px90LzmLH/4phpIXnsaPS8suU8476MtguUwaHRPULPVmaiu/nqv0UtSvb2wB8bJ7TL0zczi0f70bYhZFNWz63GzefpviH0ONlkzETNMbRlfEC/uUv++DvaH5tpvc6BaNvAkBXyTzxwwqYDJrbvQtvFF8QWx6D9MYVuDI09UjdUoW1ESk6jse3ETn4vS9DKguTjaBP5ghZLQvtjEp2FtgsEPfPqgfE3lXEXctf/A+gTN9wn0ye3W8PYfrC6bOWD0bYiJWPxaH/N2Nfqbnv0OJh2jBj3F7SpfEL89TW0TyaZd/ZF26XXzJHEfT7c8JvIrgtNkqAN4wsdF//pZZLTExux/WjZqzWSHiAPCPoZSvLF9ei4n/n4aAyjzeYLE7UX/on2yWZzz/mVMu0500IIeKNvNkiMPQptF5+QSfUtaJ+0n+jSkwPv0DKqaPuRwjFH85aXR8q2rtejjecT6ScbvE82kSwqX4C2S29Id5bbv6INvtnEcSULM2yK+OgHaL/MWrLC1yqDlSjaHm1Hkn+qpvlEiac/wuN61uPBfhdtQ98Qf/4I7peN5yBjL9W5EW2XrhNE9lVoY2+uWmyfgraLX6ye68HxvywG1eVaVKjC2ttkFkjsNLWxDjqOO5YsiCscA5swGLulgXF3wH2zSb5yB6Pt0l0Wj/b7VvJXN4WgzeIbA1HzUWi/ZOzjX2syR9u1p8hYGxixDwnrzbqeS2+dTXeP0adZlS56728lK/Z5+v2/r42v7v/z2l5Wm6osiFwNfTu9ZOI78edD/44oz1rVIbsL2q6+IXPRG9F+2VT26sqSsXlou3QNrfeON/JGE4OsAPvN6MPQdvEN3/yUkdZrUs/riYFWSdPGcGDsY/V7odzP4ZLAPqJtlyWOT5ffP0cm8r+F6RFJd08X7Deu3dX0G3h61l2ejLVKZFqtMU2kzQN08aATTW6PZ46NbZPu7Peyi1yHuS6yr0Kb1zv0c7Rxl6B9s7E0/tBm6Q6ysvHv6Z9n/idD/PQttG+653N3S6ibovz73jZn0DSXpd+bTXKQTOIfEn1zoo3yTWi7zcLOt04UxTlJu0mKDtG3Dmn3Rw+r01XryV4S939C261r/pDFGtrGPuLfcfSCvgXQlQ3euBsPCPt3VpSbnIknSbiPujzQLtZKhz03rkx++lo+MM1nSVJ+u0yMX29NlHYt3iY9kr6hMO5CbYOrBZ2qsX2uHjtF1ODQeuxyHd+A26T78X5Rr22bF2Qc/hDvnwdUvD40+vQvKxu0YTeWlu1Em8VH9FVz2MU2pb5J94B07bNAFG1fi5t2YuPr59Kd5N15PV8MGXufLgz0s4Z+htI9CxqPXfFNpTIniJuvlgeB2+H33RPZdXzgmZwgciNp7MF9tMFXVxXqBFM1dq/BG3WTRPPLCnfFToo8na6C+6fHSl+xG/vSSmcx0aeJRCavV8rf9QX5e89DN4MpiHTvxp/TCm6yKKiZhuv0843updAc4MG99VSl2wjbBhJfn0b7Z2Pp4hRtk2xodZTzqVzmet3hjDaLr+i3Wg98hNIZ+h1+RoZaMjZPn1DFXm+V+D41j9/p86qJ9uE/1zLQYWT3C4ftwhn5LN30Zd9Rqs8tm9rtFZ3khiKjVUR9GsM6Z3q4T6l9fKv6xx7Z0yNPW/+D9hF44N0pNnjzlhvVVs8NIzcqE8g75enxTPmzd6Ovldog/WS1Rlu+6pHGwSW77bB5XKdn+r0rP95bqX16lUfySKvEM95PG2TcS9A26RifKmjp9z49G422ic/okTK0n3yQbszTXetpUjD2u0UojFQe2XXir9/pSYpa5J6kpxDSXh/w68JK31Sh84vX6Abd2F6E9tNGWlPJ86fqat09zgMjbjQA7FvRNvEd7R6G9hNFUV2Qdjsl06ILRrifNlY9eRraJrPGq3ryxl3LXbBbpa+s30cpqujSwmfoBJMHZK74CdpXG3wW29+i7TEr0qMVHh0n05MIaJv4jlZFRPuJoqjuScsco/OM7/h2EiqIkz3RNmmbiaNQcOO1DOiuLNS5yi6hm9zQvqIoqnsaHBrdA51n8kBg3GloX22k76Dt0RZaWMWnV8l6NhttkzyQHqnywF8URXVHkOqXOUSPiof+vMFeX4saQ2ibzBi54Pd7YLRUgbFXIEqM5hE9doL2F0VR3VPVJM9H55m8IHPHKWh/3S9tuoW2x4xYtKgxoP2n0QbboCKcpewRYq/Xw/1FUVTXVJwKc91H+1OEnrSE1iPs85c1BtE22SoaYGhjPWA0d4kWcEHbJC/IYum9aJ9RFNU9sQNqe6QNqzzwWypjD0PbY2vMkZXKpXBDTYivu9qjVTAF7zeKorol+0F0nskTE6fZ/HgLENu/yiXNQdtkSmp1+2S0kTaSVlHy11geoqVCPfAbRVFdki7y0Xkmb6SNqDzwnUoLFaHtMSVaMhVtoA2BHiXPRtsjb4TGfRbtN4qiuqfA2KPQeSZvhMM29qiUtJ9HAvsjt9iXnsr6GaLCp/+2kQXA59G+oyiqi5JFPjrP5BFZAHwb7rvUf/Y+LdiGtscWyIW9B26cCWlLW7Q98ogE+XFo31EU1UVxATArvKoOaOyRaHtsSquL0tVww8Tp0/+/dlqxooo2SR7hHgCKKrYC4z6BzjN5RWz3K7T/Umlfm0ZjW7Q9NhCY5rPgRnnAOO9F2yOvyMryI3D/URTVRfEUwGzxaZ6Th7Wno+2xAe0zjTbIhO4eGLEPQdsjr/j0GYeiqOwlufq/0Xkmx8zRo3hoH6Yy9rtoY6RUlyY7+bL5T/Q5tD3yjPjxjR74kKKobqmevA6dZ/KMdpWF+1Alc64XD7uyonwL3BgtjWvRBrQ98gx7AVBUsVWr2xeh80ye8avUvX0D2h66c/xivCHSV1unom2Rd0KTPBXtR4qiuievC8nkhNCfZndrsIYYsis9MEKqat09DmqMAlCLmxbtR4qiuqfBodE90Hkm7+ird7Hl3Whfqmqm4WCGCI07Fm0AlTz9nwszQoFI93N44E+KorqjIG48CJ1nioDMOf8P7cuWP+0xGAs0Gtv68i0kMO5gjBEKR58E9p1of1IUlb20pSw6wRQFj95+36h1eHpvgMju58HN6+R/x4LI1XpugILiy54OiqIylrF/QueXIiG58ny4T0W12D6l5zcfxPbr6BtXyar2iz2/+QLjTc1riqKylXHfQOeXIiE2PRzu0zj9DPCVnt64ltqViS71HXIAACAASURBVPff6BtPFbnRnt58wRG/vgPuU4qiMpdMFEeg80uRCIftQnlgWgv3q7G36/HEnt24niVF33Qq4y7s2U2XBB4FpKhiikcAs8eXN+HV2D63dzdt7CnoG07FqlaZM3HEBe9biqIyVXXZygej80vRqMbu8Wi/TuikntzwjiNjgQ+vPUR380hLd9BuUx74l6KozGSvQueVgtLnQ38APb3Vky641bj5PPTNpjds3Fe7frMlRQL6+2j/UhSVnWSC+B46rxQVmYvehvZv6uO6e07XbzY09lvoG01vNmqOdf1mS0po3JvQ/qUoKlO9Hp1Xikr62dS4e/E+tid0904Xj/b7sPtfruFSuZq+7t5seanWR3dF+5iiqOxUHbK7oPNKkZEH45PRPk4LPS0Zm9e1m5R/4Jnom0xl7JFdu0mi9ImNr4H7maKoDGSvRieUouPLp/Ewau7ftZsMYvdl+A3GXM32Al9qXVMU1ZlYLK37pLVxPCij3k1fz5F/4Eb0DYboFoglITDNZ3nga4qiOpRMTM9A55MyEBp3ItrXcg3XyaXMyf7m6s1V8JtLg9m+K/ObI1uyZGyeJI5b0P6mKGr2knx5W1e/C5MN6C58tL9V2tY985sLY/tB9I2lAW2S5ZnfHJkUSR5fQvuboqjZi6//e4eW4/Vhk3xX9sjJX3oB/MZie37mN0YmR9s9x+4MvM8piupAZ+hYRqeTsqBH8dA+l0XIOZne1PxljYejb6p1Y+5tmd4YmYo+Pv1TVDHEtwC9w5OTcuP9ZvRhGd6UO9iDm/pPbWg0yuymyJToKyS0rymKyk7cO9UjWrVybkf7O4ySl2V2Tz70iJcA/mNmN0SmpGqS54u9x9H+pigqU433pFQs0Qfmr+L9nVlVwNVzZUXzL/QNBbF7S0Y3RKagGicrJHjvQPuaoqjspRvUqsPNR6LzTNGRuerpaF+Hxv2zksVxwNAkCfxmVMM27tw1ZCpqI6MLJEFcDvczRVFdk3auG9x1z/nofFNoWkeo4UWBBodG9+j4XmRSeCf6RsSYf8vALWRqdNPfD9B+piiqBzL25Ap7qXQVH/KpXMMRHd9IGNtfeHAjx2TgEzIFYuPXo31MUVTvVI3da9B5p8jIIuswtI9D437S0U1oYQP5S+6B30hk98vIL2QzBoeThhc+piiqh7Jrdc8POv8UlXB5YnzwcUdVIKuxfYIPN6GNFjL0Dbmf9MiKuwTvY4qiAFpTiaLt0WmoqOina7SPA2MfO+sbkCfD98JvILY/ytAnZCMkQD+O9i9FUUjZD6DzUFGR+fOzaP/qHr7Z30DszkLfgOj1GfqETNA63WHXeeBfiqJQMva+rjSPIZUwau6P9q88QP94dlcfRdvr63f4DbD5T/aMjGwnvr0I7VuKojyQsX9iv4Ds0U/XYt+7kb7Vui6z8q38j49BB2Zg7BVd8EvpkVXhW9G+pSjKJ9k3oPNSEdGd+HDfmiRp+8JlAfB2/IW7Y7vgk1Izb6i5M6v9URS1seSh4LaB4cYidH4qGjKHvQntW7mGN7d94fL0fQr6wrWkYhd8UmokGE5E+5WiKP8kDwb/h85PRUNLL6P9Kjqp7QsPY3s9+KLHtTxtF3xSWibKOrPRD0VRk2k8jNwoOk8VjD6tyw/1q3HXtnXFg6a5zINgXNMlh5SW0NgzPfArRVH+6ix0nioaQexORft1/rLGw2d8wTXjXoC+4DC2x3XRJ6UjrCdPw/uUoijfVYvck9D5qkgExr0N7dNqbJ/bxgXbo9AXLE+rL+2iT8pGn9jzArhPKYryXjJh/QGdsIqEVuPzwKefmPkFx+7X6AvWWspd9Emp4NM/RVHtqBbbp6DzVmFYPNoP77di3NkzvNrVc/G9jO0NXXVIyZDV36/QCYWiqFzp5+i8VSSC2P4W6c+0IJDM7Vu90OqQ3QUefMZ+twc+KQV+NHSiKCpvCuJkT3T+KgqBsZ/E+7MxvNULlT/4YvSFygLgjT3wSSmQld9pcH9SFJVHtX9+nExKUHfPQftTN/dv/UI9WKnwLGo21KLGkNhzPdyfFEXlUHbdYD15BDqPFYGBEfsQuD+N/chWLzSEdwC0a7VZTQ98UnjY7peiqM7EdsFZIQ/XlyN9OZPOgH0yadwCDbiZ71Yk07FkbF5g3E34BEJRVH5lb+ADWTbI3Po1qC+N++e0F6jVgtABJ6uUY3rkj0KjhR/QvqQoKv+SiesZ6HxWBMSOb0H7Uj9FTHmBevYTfYGBSQ7qoU8Kiw/lJymKKoS4GTADwri5D9qX1dg9fuoLNPaN6AvkBsDOCaLddwyNuxfuS4qi8i8tYjNsF6LzWt7pj9xitC9rxr52yguUBcAXwBc4vuPIWNBDnxSSmnGHogONoqjiiG9msyEw9maoL407duqLA5cAln//bz30RWGRhdxP0QmDoqjiSOuJoPNaERBb/hzsy6krPMJPAMTuOz30RSGpjYwukAXAfeiEQVFUoXT3gsjV0Pkt70hu/gzSj3oybNILGxhuLIIHmbHv6bE/CkcYNw+A+5GiqMKprZayZFKCyL4K7UfdI7blhRn3GPiF1d1zAD4pFKFx30T7kaKo4ikw9nh0fss7Qdx4NNqP4ZBducWFhXX3cviFsQVwp/SJHW+E+5GiqOLJuGvRCS7vLKyvCsWW42BfvniLC9OSj8iL0hbEchlzeu+S4jBg3G7wJEFRVGE1o45yZFoCY/8O9aOxR25xUbK6+wY0sIz7Q+9dUSxkEfcGdIKgKKq4qsbuNeg8l3eC2H4f6UOZa7+65UUZew40uGQBAvBFoRAfnoJOEBRFFVjGnYjOc3kniN2nkT6UBchvJ7sodBOgDwN8USjEhtfBEwRFUYWVzBNXovNc3oG/qd28KdD8ZY1BeGAZdzDIH4Vg3lBzZ7QPKYoqvvTIODrf5ZkgSp6N9uEmFXerw81Hoi+oVrdPBvok9/gQVBRFlUBRc390vsszg8NJA+3DTTZz+tAFMKw360Cf5B70KQ6KokoiFmzrCG2shPZhLUr23nBB2ugBfEHjlSVj84A+yT0yKE9GBxVFUSWQsd9C57u8Exh7O9SHdffyDRcjv/E+cEBdA/RFIQiM+ws8MVAUVQatQee7vBMadyHUhxvXAghi92Xkxcjk9SucKwrAyMh2bABEUVRPZNw9lbGxbdBpL8/InHsq0oeBsV/c6GLsj6AXE7uvAX2Re6pDdhd4UqAoqjwatjE67+UZmXOPQfpPHrp/uOFi5OnxAnBAvR/oi9wjK/J94QmBoqjSqBa5J6HzXp6RnP0mpP/kofvcjS/mWujFGPtfQF/kHq2hgE4IFEWVRzKBvAKd9/KMdr7F+tBeff+1zIF/P47sfkhn5B0eAaQoqqearKEMmTHy0PYYrP/cvXIZfZXqspUPhgfTZP2JyYzRPt1wH1IUVRptsomMtE0QuRG0D2sjowu8qAIYLk8M2iF5Br2Jk6Kockk72qHzXp6pLk12gvvQJMsr1dg9Hn0hWhkJ7ZA8E8Tud3AfUhRVGvHodoc0GtvCfRg1x3zYjLBOzDEH7Y88I6vxv6KDiaKoMslejM57eQddDVAeHJ+hk8croYG0eWtC0jayGr8JnxAoiiqNjLsOnffyjiwArsD60B6oNQDeiLwImbwuQTsi7+iOTnhCoCiqRLJ3ofNe3pEFwDlgPx7uQR8AdzbaETlnDj4ZUBRVMq1HJ768E8T2x1Af6lFOdElC7WKHdkSuWTI2z4NkQFFUycR+AJ0RxvYEpP8CY4/S78f/B74IniftgIX1VSE6EVAUVT4tWtQYQOe/PBMa91mk/7QJILyPfBDbj6EdkWe0mAM6EVAUVT4NLtltB3T+yzOyAHgv2IffgReRCYx9B9oReYYLAIqiEOICoDM82ID/Q72IX0IDybg3oR2RZ/gJgKIohPgJoDNk7j0M7MOz9A3AH6EXIUZAOyLXLB7tRycCiqLKJ61mh05/eSaI7KuQ/guM+73uRLwYfBEHox2Ra8bGtkEnAoqiyqeKdpMjs0ZbKkN9aNyFWozg79CLiJKXoR2Rd8SO4+hkQFFUidRqJ0s6QOz4YqQPZQFymb4BuB55EbW6fRHaEXlHBuM98IRAUVRpJJPHnei8l3eqcfN5UD9qOefA2JuhgVR3z0E7Iu/oYEQnBIqiyiPJObei817ekbn3mVA/ah8edST0IurJ09COyDviw1vQCYGiqBKJTdw6Rmy4L9KHOm9oJcA7kBdRq9snox2Rd8LYXgVPCBRFlUby9Ho5Ou/lnVrkngT24e06eaxFXkS17h6HdkTeETuuQScEiqJKpfPQeS/vVOvJXkgfpvs44K1k681VaEfkHe2o6EFCoCiqLDL2THTeyztB3Hg01ofuHn16XI+8iFrctGhH5J0gtj+AJwSKokqjwNhT0Hkv7+jch/WjXQc/Q14zDYd2RN4JYvc1dEKgKKo8koeOr6DzXt4JTZKA/TiuewDWYQOp8Wi0I/JOaNz/oBMCRVHlkTx0HI3Oe3kniJM9oX7UYk7oIjK6EQLtiLwji7gPohMCRVElkrHvQee9vKMb4LF+tGvhRWRqUbI32hF5RxZxb4YnBIqiyqTXo/Ne3sEfA3R3aDWi26GBZJKnoh2Rd7ScsgcJgaKokiiou9XovJd3wsjuB/WhVnNEV5GTf//paEfkHfR5UoqiSiYe3+4YdCngwLib9PXxP6EXwV4AHRMO2xieECiKKo0GY7cUnffyTjW2z8X60d6gG8iuRl5EzbgXoB2RdxYtagygEwJFUaXReCWKtkfnvbyD/nQbxO5KfQ1xKTSYjHsJ2hFFAN7UiaKokkieHEnHhFHyMqQfA+MuqYTGXgC9iNgegnZEEZBBeRE+MVAUVXTJw8a56HxXBGrGHQr3o0zAv8FehH0r2hFFQFZzp6MTA0VRxZdMHKei810RkJz9dqgfjfuVvgH4GTSgjPsQ2hFFQBZSx6ATA0VRxZdMHJ9A57siIDn7o2BfnqEX8X3oRRh3LNoRRaBm7GvRiYGiqOIrMMlB6HxXBMSWn8P60Z6ixwC/Cb2I2H4d7YgioBUV0YmBoqjii+Xbs0Hm3m9gfWlP0M1jxyEvIjDuNLQjisAOy1cuQScGiqKKr4HhxiJ0visC8vD7I6gvjfsf3QPwEeRFpBsRSBbMQfd1oCiq2NLS8ZJr+tDJrghIvv4d1p/2A7oT8W3gi7gI7YiigD7SSVFUsSXzxR/Qea4o6Dl8qC9j9xZ9DXEINqjs1WhHFAVx6NfQCYKiqOJK5ouvoPNcUQiNuxbqS93MqaV4sUFl11b4SikTxJZvQCcIiqKKKz1thM5zBaFPFgD3IH2pvQhk0mjugw6qcNguRHujCATGPhbuS4qiiit2AcyEINp9R7Qva5F7kjYkaKIvpFof3RXtkCKw48hYIPZcj/YnRVFFlF2njcfQea4IDBi7O9qfeg2VeUPNndEXIouQJ6MdUhRkkF6M9idFUUWUPR+d34pCaJKnov3ZX1/10Iq2dZRfjEMvxtgD0Q4pCoGxx6MDi6KoAsrYL6DzW1EIYvtKsD/HK43GthMX425BXow2RQD7ozDIID0Mnigoiiqcgsi+Cp3fioIsAN4F9aWx/3rgYoz7C/RiYnsM0BeFYsC43dCJgqKo4ikwyXJ0fisK2gMH68+N6u/IL34BDq6TgL4oGnq85J/oZEFRVIFk3LUVHtfODG3Eg/Wn/dmGi/GgIdBvgL4oHOLcb8ETBkVRhZEWGUPntSKhFRWxPrUnbHwxn4BejLHXAH1ROPDVHSmKKpJ00xo6rxUJmYCvB/vzoxtdjDscHGDjO61YUQX6o1AEcWMYnTAoiiqOBk1zGTqvFYUFkauh/Vkz7tANFxREybPRF1SNkxVAnxQO7bGA9ilFUflXYOwV6HxWJAaHRveA+zR2z9hwQbW4aeEXZJrPAvqkcGivZ7RPKYrKv2QBcBQ6nxUJrcGP9ulA1HzUhgsaGLEPQV9QENsjgD4pHFrnGe1TiqLyr2o92Qudz4qELKjegfZpEDcetPE1zZHfvBt6UcZ9HuWQQtJobIsu8ERRVL4VGHdTZWxsG3Q6KxLysPslqE9jd2dl8yOd6GJAobFnYtxRXMSnX0UnEIqi8iudrNB5rGjIXPdLsF/XbHFR4ugfYC/KXgXwRaHxYXMnRVE5VtTcH53HikZo3HVQnxp78hYXFcTuaHCwjbPVZLbo0crA2H/DkwhFUbmTzAm3VhaP9qPzWJGYaNkObb6ndX+2uLCasa9FB5wejwD4pNCgvzdRFJVX2ePQ+atoeHHiLraHbHFhPvQnZlvg7JHV3mPgfqUoKn+K3Cg6fxUND9oA/6cWJXtvcWHhsI3RFxYY+ymATwqPLAIuQfuWoqj8SDeFV9j8J3O08y3at4OxW7rllTUa24bG3QO9uI07FJHMkMH8dnTQURSVHwWxews6bxURse3Psb61ayuV1XOnurg10KDTM6ckc/ojt1gWV/ehkwpFUTmQ5IqB4cYidN4qIH0e1GY5b8qrC407ER18/Wb0YT10SGlAt3ymKCofYuvf7qCv3uG+Ne6rU16grPyORF+gbkbsoU9Kgw+7TymK8l8103DofFVEtAEP2rf6OXjqC6y71R5c4Nt66JNSERp3Ntq/FEV5LO7D6hqyAHg32r+bdAHcnOqQ3QV9gTJJfaOHPikVgbHPhPuXoih/Fdn90HmqqIh9T4L7d9jGU1+hBycBZIVyWe9cUjZWzw1i+1d4EFIU5aHsxRUe/esaYuN/gP1715QnAO5HJuBz0YGo7Yl75JPSERr7UrR/KYryT1WTPB+dn4rK/GWNh6P9Kw9/v93qhcoE8QX4hRr7zB74pKSsnisrwYvQPqYoyiMZ+ydJDnPQ2amoVOPm8/A+dsfO4ELda9AXKiuVj/bAJ6WFXQIpitpE/PbfVeSh9ii0jwPjDt7qhYb15ir0hWq/5B74pMz06esguJ8pioIriN3vKvz231Vk8v092s8zOt6pLWTD2K7DXqxdWxkZ2a4HfiktVdN8IjogKYqCa1yeTh+LzkeFZvFoP3pzvc7pM27trLtB4YFpkqTLbik9obHfgvuZoiiYWPWv+3jSkXXNzC84dl/24IIP76JPSKXVI0BW///2wNcURfVYMvZv76+veig6DxWdILZHeODrL7ZzwYegL1j7EnTRJ2QC7foF9zVFUQjxIasHhMaejPZ1YJKDZnzBA1HzUfgLTjsD8lhKtxkb20aPAKH9TVFUD2XchVr4DZ1+is/qufL0fTPa39X66K5tXrS7A33RuhDpml/IBmp125SEcC/a3xRF9UDG3seGP70hHLIr0f7WTz1brQC4xYXH7ufwC4/dW7rkF7IZsgB4L9rfFEV1XzIhvBOdb8pCENt3of0tOqPtC5dV4kfQFy7G+3EXfEImo9HYVhLDOWifUxTVPUlO/Y1+9kOnm7IQevAgHcb2A+1feD15mgcXvnbGZxdJxwRxY1gbRuD9TlFU1gpid+f03eBIlrRq6ri70X6vxfYpbV/84K57zpf/eT364quxfUIXfEOmIDD2v9A+pyiqCzL2QHR+KROhSZ4K93ls1y2IXG2WN2Av8OAGPpixX8hWELt/Du93iqIyk7GfQeeVsiEPU59C+z0w7g+zv4HYfTrXN0BmR6OxbWjc2WjfUxTVuSSP/5ql1XuPHrX0wPcfn/UNBHX3HPQNiNZXlyY7ZegXMgO0SmAY2xs88D9FUbOVcdcODDcWofNJ2Zg31NxZ7D+O9r8sAJ4+65uoLlv5YE9u4hUZ+obMED3Dmm4cQicxiqLalpb5rsVNi84jZaQau9eg/S9aXxsZXdDRjXjyGuPUjPxC2kT7hGvhEHQMUBTVhoy7d1a7v0km6BF2dAzIvHlu5zdi7CfRNyK6e2F9VZiBX8gsCOPmAaEHb4IoipqRxrnjH8f8ZY1BfPtfp4vAD3d8M5L894HfSKyvs5rPysA3ZJbIQvAd6BigKGoGMu7N6HxRZmrGvQAeA3FGR+gXLWoMhB4UMwhi+5UMfEM6wIe2lhRFTS0tPYvOE2VHFmDfRMeBFnTLrIheaOzP0DckT6D/YglLPPp0gY4FiqK2VGDc29H5ofRE0fayCLvNg1j4YWb3JH/Z29A3pKrWk70yuykya2RB+EZ0LFAUtUG6P+dwdF4glYpuvPQgHkT2DZndlLblxd9Q+hbgqMxuinREYJKDeDqAosDSNt5193J0PiAtZOL9X3hMiKpDdpcs76tPbuwq9E1pUYu2+xqTrlGLkr19eN1FUWWUnvPXevPoPEAmaFVQ/acHcXF55vcmN3Ys+sZUbA7kF9X66K5eLA4pqkySh6HBodE90OOfPEAYNfeHx0Wcnv8/OvubM25f9I2lN2fsFzO/OdIRWvZSgu536NigqDIoiO1vtFQ3etyTTZEHoRPQsaGq1e2Ts7+7xaP9PpSF1VfOmR1vINkxNraNFp5AxwdFFVv2ODb28Y+dVqyoBsbdgY4P/SykJxG6cpOyAPge+gZbN8miQL4iq88X+TAQKKpYsneFUfIy9PgmkyM+ejE+RlKd1LWb1KY8Htxgd2+SdEwQuRFZiZ7jQZxQVO4lC+rfh/VmHT2uydTouXt0nKTqZgnocNgu9OPol107uGS3Hbp2o6Rzxsa2SSsH6jEleLxQVA6luVbrufOVv9ekXXN9mBe1AVSn3f+2htzoT+E3quLZ11wQmiSRwPwzPF4oKleyF7GVbz6QOfEwfLyk++N+1PWbDeLmq9E3msrYX3b9Zkk26PnYevI67g2gqK3J3iW57ciubeQimSN+Ow8fN+kGwP/q+s0OjNiHSJCuQ9+sKutqR6S7DJrmMlkEnIaOG4ryUUHsTh2M3VL0OCUzJ4zcKDpuWrLr9FNEb25anr7xN8zSwHlFEt0zZCFwCTp+KMoP2YvCyO6HHpekfbQuDT5+nL4RP7NnN+3NNw/tELhkbF7PbpxkR2uT4CGS/K5HxxFFQWTctdpTg11O88mCyNV8+aypn+Z7duPVpclOXux6TNU8oGc3TjJnx5GxIIjdf8ti7mZ8LFFU9yWTxk0S7+/U4jHo8UdmT+sBBh9Puvs/iHbfsdc3/yP4jbf0857eOOkKuhDQjYL6VORBTFFUN3SjbvCbv6wxiB5vpHPkweVcD2JKd/9/v+c3L4H8UvSNT2g8iBvDPTcA6Qr6VCQ+fb08IV3hQWxRVMeSieIy/Wy6aFFjAD2+SDboEU10XN0vrb7acwMsrK8K0yMrHhggMO4TPTcA6TKr52rJZ/HvWej4oqhZydifyeT/dAnmOejRRLIlNO7z8PiK07nvDn17ijLCN9EGaBnB3pzH72latalaT/YSJx4sieLj2uhDbPoN0Ynafll+/226xyGIG48u89PDQNR8lNjmf8VGt6JjjaKmk8ToLTJ2P1uNkxXocUO6g1bE9aExXive7NdxhojsfmgD3K9q7F4DM0Q7aNe8unu5tvSU614/43vUjR6x/a0sdj6pfafLWChEF0Fih5eErbcC4+iYo6gJjevTfvoqlp1KC4/k4Hd4EHMTau6Ds0SrBawXm7ZkcvxrxfNXbenKURt7ZHK/7ha55y/VomTviuf33Q20YEr6hsTYC9CxR5VW52m/ix2Wr1yCHg+kR4yMbOfLnBfG9mr9VAq1hyTgj+AN0dLE9zZvkWv8XFfu29hL0/PEJa2JIPe+XHdXy4A4Hx2DVOElk757N7vzlROPNr+L7AfR9qjoDny8ITboLLQ9pqP7x0a0qI59Q5m7h+nTWM24Q+XJ7MeyUr/Hg5ik8q279cizFlqZv6zxcHR8EywePWSMh8sTg7ZHSmDcrzwwSKrB4aSBtsdUyJP68b2wQfpGwPO3Ib0grS1g3L5aMjott+pBfFI5kHEXpntt4uY+edxcTLpDNbZPgMfmBtlfoO2xAVkhvxJvkJZkMfJVtD2mYsDY3XvZSEn88oP++qqHou/bF9QWVZM8XxZHR6d7MYy7Fx2vFFgPbK49ShL8cweGG4vQcUr8RAvuwOP1fkXJy9D22ECrnKu9DW6UiQHdb0YfhrbJVLSO+/XOHtovoWbcC9D37SWLR/tlIfAY3cgldjpFFmc3wOOX6rLs9aGx35U88eYgTvbkrn0yEyY+dXtx8kiPQ3v3ZkoG1WfQhtlgIGM/ibbH1KyemyagngeN/VJZNwm2Q21oNKrGzefJRPEBXRSkVdw8GfhUW1ovvvubjLWT5efvV5/WosYQOr5IPpFY+rIHMZ1KruXTaHtsQXW4+Ui0YTYy0J3asAhtkynRJ8/Y/qDndjHu9/OGmjujbz9v6Buummk4/dQli4JPydPjT0TXoeOcmlDrWNYZuvCXsf8KLdPq3RMSyS26cPSn+Z37T3XI7oK2yaToxgS0ce6XJOuPou0xLa0aCr0vJykTl1bWQ99+EdBJRiu+yaTzDEkQb9QKcLLIOl03YXJ/QaYxe0/rqKs7XW2sJ13U5tX66K6c6Em3kbH9BfgYeED+Nr/TSlgeGCiVJIx/B3HjQWibbA39/tzr1aXu19Adreh7Lzb6qccdix4HuZdM+PBiJ6S0DNaTR/i0mK9F9oVom0xNFG3v10YqDwolzACt9S9PNFf22D53y4Ltyeh7Lypi3/fh478gMu69aH+ScqI9SODx/4Bu9L4EfFolC2+oVIGxt2vDHbRNZoJeZ683B+peiXQnNMkU3UCIjv2iKYjtx8S0fWjfkvKg+6W8KiaWh4VwEO2+oy9tgnNjtI3Q4iPa16B3idXdOjg0ugf6vouCLOIOhMd8QRUY93a0f0l58Olkmy5EclOjwqdvn+kEt2S3HdA2aYslY/Mmeiz06vjZjVpPH33beUc/5Ygt70bHfIG1vhbbp6D9TIqP1pKRB9m1HsR8Knko/AraJjMmHLZx2E6r227LuA+hbTIbNNnJ9d/YmwBzV+Zh06SvqO14NLAHcWrszTzPT7oN5ITWNMrdW1pEsZupZe/yuTrgHczJJgAAHI9JREFUdGj5Wpmcf9cjW53BHdezQ+L9W/g4L4mMvcD7zVAktwSRG+llyfYZyN+jf1Ohm8s8MNzGSeMLaJvMFj3rHBh3Wm/slM+3JUi01DI8vkumwNh3ov1OikmrLDg+xjfEel4buwWx/Q3aeA/IrtOVHdoms6bR2Fa/A/XAVuNhPXka+nbzQjhsF2q/BXx8l032rsHYLUX7nxQL7x5cY3uxXNYctF1mRVB3z8Eb8AHpyg5tkw7p600zIXuDnuZA32weaLUaxsd2GaXd2dD+J4VC8+uv0XG9iYw9EG2UDlg9N23IgTbiJkkj/+fetZ1tDwLvW+j79J1WjXCPzgmXULl9PUq8IzDNZ6HjeTP9Q9/8ou3SEdXYvcYDQz6QMIz7FdomGdAnT55fZHLFIpP/ieh4ptyaSl5fkRJ/GBvbRuaGSzyI5431erRZOmZiA9tNHhhzg4IoeTbaLh3TCtjTu2onY//OZiuTox25QrYJ9kJB3a1GxwPJNzXjDkXH8SYxLXOmdiFF2yUTdMcu2qCbGtf+XVvyou3SKQsiV9MjUV21l7EfQd+nj/TiDQw14/F8DjoeSH7R/U5aXwIdx5vEdGzfhbZLZuhKxq8mQU4ntiPRdsmCHZavXNLVNyzG3jdg3G7o+/SJ6tJkJ5+qhFGienMVOi5IPvGt6E8Qu1tyV712a4iR34w27Kaya4tyjCiM7H5hFysvymr0t/rJAX2fviA2eT8+fqnNYvTr6Lgg+aNWt81u5s5ZxnJxnv7vZ9GixoB3pVKNPRltl6zQ1sfdDUr33+h79IPVc72LY+o/Whdg/rLGIDo6SK6Yow83+Nh9QPoporBxLBPuYWgDb67CNBfRQkHGntM1Wxl7Xy1uWvRtoqlF7knomKUmlyxSX4GOD5Ifwrp7OTpmJ4nhAj9oaZe72F6FNvImBjfuL5WRke3QpsmCIG4Md7MVsywwLq+NjC5A3ycSGaBfRscsNaXOQMcHyQf6jd23fWmFfvq/H5lwD0YbegvDx/YItF2yIqwnr+tukLrTKmU9d714tF9i5TZ0vFJTyLh7C7d5inSFnhRTa1OSW96Ktkv3kadtfZJEG3tTw7s7i9NidPVcmaT/0GWbvR99lwi0fgQ6VqnpVYvsC9FxQvwmNEniWbc/Xbxeq/vk0LbpCWGUvAxu8C0cYM+US+tD2yYLBoeTRrcDXCs8ou+z18h9fw4ep9S00oZZ6DghHiMPoDLZXoiO00ni9hC0aXpHq4rdX9BG39IJxdlE1PVXXMbep8cP0ffZSwJjr0DHKLVV/QMdJ8RfJC++24MY3URyTZflvuZ/u9Tq9kVow0/iiFv7zejD0LbJAv0W2oMSzHeHUXN/9L32gnDYxuj4pGamQdNcho4X4h+tTdKSszyI0Y2lcyHaNgjmyIR7Ltr4W8p+G22YrJB7eUMP7LW2MEcppyGIm6/GxyY1Q70YHS/EO/TM/288iM1NpHNgpaybqquxezzaAZM6xTSfhbZNJkTR9j3acHl3zbgXoG+3m2h7ZHRcUjOTfv5Cxwvxi26fjpqtdA5E2waKDNbvoZ2whYy7tijHiXr4qWW8yMdY9DsdPC6pGakgLb9JRgzWk0dITNyBjsst4lTmPrRt4KTfZYy7F+2MLZOIPR5tm2xIjwX2sM+1PWFhfVWIvussaRUNYevfvEjG7r8rBTnRQzpmjsTEWeiY3EI659WbdbRxvCA09jNwh0yiamyfi7ZNFoh9D+xxcP+5SB0Eq/VkL3QsUu2pP3KL0XFD8MhT9lvQsTiZgtgeg7aNNwRx40G+9WNOnWTsvwpxKqDVJ+DvPbWfcfekXa0KcLxF7uf16Fik2pMs3p+AjhuCZcDY3TUPoWNxc+lcp3Me2j5eUTPuULRjppDWF8/960TYLnZjL9AnaPT9z5b5yxoP1yJRHsQh1YaCyL4KHTsESNp3xq1Bx+Fk0rkObR7/GBvbRicLtHOm0OFo83SKlpkEv2U5qTpkd0HbYUZE0fbVuPm8ILY/Cj3rFU7NVPYD6DAiOCTXHYWPwUnj8nzdl4W2j5eI0x4bernZyq7NzeQ1DWLfT4JtuT407sRa3TbRtpiEPm13HMTu0/rpBx9zVCfSro3ogCIYalGyd+jlPOLGdY5D28drZOB+zQNHTSJZucmTIdo+nRAuT4wvA0P8/Dvtxw1tf5k+6dsn6IYcuaZ/oG1CZSjjfgKLKwJD25VLrr4aHn+TSOc2tH28RzfdySrpdrSzJnWgsUeh7dMpgXGno+24qexa+fE72iZaj4R29eZHRrarmYbTncH6el+7QOLvn+qKjL2gq7FEfKRPcvQp8NibRDqnFWJDeS8Qgx2OdtgUGs97lcCwnjzNAztOk7jddaJv6EaZWuSelLZpbvckgTzZa+3+Wt0+Od38aNzn07LTHtaboLoj8feVXRpCxFN8PfI3odzvI+shq+fKE9ofPXDaZInl1nRSyivpZkt3LdqObcnY+1qV+Owv5NdnyK9P1r0EEiNfkh+/KT/+QP9bq7dE+vqPG/dKLomJ29BDjfSOwLjHpB1KPYi9SWLxj9z41ya6UazbPe1n71B3rh4zQdtotsg9vA9tQ4rqssYrZW2yUjKqy1Y+WCb/azyIuUlk13m66dl//D3KkTr2f9H2mS3pgIntXXgbUlT3lOdFOpkx2uXvx+hYm0oyh30KbaDcojXlZaK6Cu3EqZTnPs4TO9/hNqSobmlB5GrocUa6izz5vwcdZ1PLXlW0vig9J4zsfnhHTi5tOhKYZDnaRrOhujTZydfTFhSVhVhutdjoJt/Q5/0+MnehbVQIAuP+D+7MqZKMcZfktXVwELv/RtuPorqlgRH7EPQYI92hNjQa+VywS+cstI0KQ1rcQY+HeeDYKZz9wzzu8kzLA7PPPVVQDQw3FqHHGMkeLR4WxvZidHxNLXt9OGwXou1UKMKouT/esVNLJtKPo200G6p197jQk+qAFJWluAAoJHMk156Kjq3pFETJs9FGKiRaIAbt3GkdH9tXom00G7RuOtp2FJW1uAAoHpJjP4aOq2ll3DfRNiosuqnH3/Oeqe4Oh+xKtJ3aZXDXPecHxl7ugf0oKjNxAVAsxKcvRsfUtDLuuiDafUe0nQrNRKcnf3d+xvb6eUPNndF2apcB43abqMvvgQ0pqnNxAVAcBoeThue1S8ZlAbAv2k6lIDDuEx44fEpp6cedVqyoou3ULtXYvQZtO4rKSlwAFIP5yxoP9718eREaxeUHbfYS2/PRTp82IGJ3qtbdR5uqXWTx8hW07SgqC3EBkH/086Tk+ovQsTStjP0Tq072mCByI963czX2C2g7tU2jsW2ruY4H9qOoDsQFQM6RSXWiARg8lqbR3dU4WYE2VSnJwytrLbaDtlPbLB7tl8XLL9G2o6hOxAVArpkjOehb6BjammrGvhZtqDLT5/uZ0FA3h9Tdy9GGahctZOH9qzeKmkZcAOQXyetHo+NnawqMO00utQ9tq1Kjxy58rhLYkl0nAf10tK3aRRcBct2/xtuPotoXFwD5RHLOW9CxMwPdyFLTnhDGzX1Cz6vZaeOgPPaF3nFkLJCV7ulo+1FUu+ICIH/UIvvC0PNcHvLIn3/k4ZVRGNsbctk9UDcGGns83n4UNXNxAZAv0nLvxt2LjputytjPoG1FNmfJ2DyZpM6BB8fWg+eaWtQYQptrFvRN9N72uAgTRT0gLgDyQ6vAm/+FyORB81zdJI22F5mEtGBE7G5EB8kM9I/BevIItL1mQzV2j0+7XeFtSFHTiguAfBDWm6v0Eyk6XrYmucabB01zGdpeZBqqpvlE3XSHDpYZBNOleU1Q/Wb0YdoCGW1DippOeR1fZaJmGi6I7W3oWJmB1tdi+xS0vcgMkIB6qwcBMxOt0QZHaHvNkr7AJAcFsbvVAztS1BbiAsBvtP+IPlWj42Qmkut8J9peZOb0hcadiA6amcmeXxsZXYA22GyZOCqoGzC5N4DySlwA+Ivkjdj/49stSX77nlzyHLTNSBssrK8KJcD+jA6emQWY/e3gkt12QNusE8LIjYbG/gxtS4q6X1wA+ImWcfe9uc/90k+185c1BtE2I7NAj9yJA29HB9GMAi22f8zx54ANpHswjDsbbU+K4gLAPwaM3T3Mx0ZtrfR3R3W4+Ui0zUgHaAW+0P/CEhOyF/fXVz0UbbMsGBwa3SOtHWDsfXi7UmUUFwB+MTicNGRSvQkdFzNVNW4+D20zkgHyRPphdDDNVDJALumP3GK0zbJCk3BYT17ne/tmqnjiAsAfgrjx6Jzs9k8lefgTaJuRzFg9V5x6BjqoZhx8sfvbDstXLkFbLWtqcdPKQuCDco9r0Damii8uAPxAa4fo63R0PLShsypjY9ug7UYyZHDXPefrK3YPgmtGkkXAlbWh0Qhtt26h1RCDyL5Kngq+Ln65Gm3vDXY39nL58ST58R2hSZ7aWrTgr4tqX1wA4Gn1abF3oWNhptJNf3qyCW030gUGY7c0V1XsjL2mGicr0HbrBeqbwDSfJfd8ZNiagC+VH+/u0iDXjaHntY6K2g/Iv3lgOGRXTnYSQz/HwOOAmpW4AMBSM+4FMsbuQcfBjGXcP4v80EUq91eecnfCg22G0kI71bp7HNpuIPrSPQSRGw3q7jmBcQcHsT1CBuqHRMfK5H1ca6OhTOQTkl9/Uf7MMbrvQ/7823T/gW7mkZ8/Rs8e77RiRbWdC+ACIL/iAgCHjM03hLmqDWLXaklitN1ID9BWjnkoF7xBsorW1TTabmWEC4D8igsACH152nQ9ofFa3b4IbTjSQ8Tph3sQeG0FaRC7t6DtVja4AMivuADoMSMj20mO+hra7+2KebWkTJSwhQdgm8F6dIVlKXsGFwD5FRcAvWPHkbEglw3CjPs82nYExuq5obEnw4OwTclA+6quttHWKwNcAORXXAD0hnSfjm6q9cDn7Ujy6Gk87ld2Fo/2B7H9DToY25ZxZ1eXrXww2nxFhwuA/IoLgO6TdvSL3ZVoX7ct4y5kjX+SEkS77yiLgL/Cg7JNycC7rDpkd0Hbr8hwAZBfcQHQXdKTOTk6UbVBxl4zb6i5M9p+xCPCerOeqxoBE0rLa0Z2P7T9igoXAPkVFwBdo2+iXkdOeqw8IO1FwAY/ZFKq9dFd89SsYiON64BE26+IcAGQX3EB0AWWjM3TPUho385G+rBUq9sm2oTEY7RdZRC7W9DBOjvZE3RPA9qGRYILgPyKC4Bs6TejD5PJ/w9ov85G+qkiMPaxaBuSHKBV43L5basV6L/WgYq2YVHgAiC/4gIgO4KoORYadx3ap7OTXVs1zSeibUhyhAZMWh4SHryzkNa0jtyT0DYsAlwA5FdcAGRCX9rO27h70f6cnew63ayINiLJIRL4T8tv4Ou+APfhCosGdQQXAPkVFwCdsSBytdDYb6H92IHWs4Q66YggSp4tg+A+D4J5djL2p9WlyU5oO+YVLgDyKy4AZs9A1HxUELu/oX3YgcYDkxyEtiMpADKJvjTMVWerzWWv0na3aDvmES4A8isuAGZHaNxL8roHaoOMfSPajqRA1Ix9LTyoOxoQ7h4ZFIfJrfShbZknuADIr7gAaI+F9VVhENuvoP3WqbQNONqWpIDI4DgkzPWbgPQs7I/666seirZlXuACIL/iAmDm1EzDBcZeivZZpwpi9260LUmBCePmAbneE9DSjTJQno62ZR7gAiC/4gJgBoyNbSMPBUfkeLPz/dKqhIejzUlKQDW2zy3AgPmPrPiP1zaeaHv6DBcA+RUXANMzWE8eIQ8zv0T7qXPZdfJA8wq0PUmJkAXAvrmtE7CRZBFweVhvrkLb01e4AMivuACYmnSjn7G3o33Uuew6vRe0PUkJ0WJBgXF34AdBhzLuXkkG72Bv7C3hAiC/4gJgS/RIsNjmJLRvMtLdWqsFbVNSYmpx08rk+S8PBkPnMvYCNsvYFC4A8isuADYlqLvVWiUU7ZcspMcUWe2UeMHg0OgeRRlY6QZHrSC4ZGwe2q4+wAVAfsUFQAu1g4zr76L9kZVk8r81iBuPRtuVkA0EJlkexvZq9ODIbpDZv1bryV5ou6LhAiC/4gKg0jfxrf9mtC+yUnovJknQhiVkC8LliZHV6WXoQZKh1sv9HF3mkwJcAORXZV4A1IZGI3nqPxPtg2xlr6oONx+Jti0hU1JdtvLB8vT8G/xgyU6y6r4ijJr7o22LgAuA/KqUC4Ao2l439Oa+lO+WOo9tzkk+kEEoq9UTPBg02cq4n+inDrR5ewkXAPlV2RYA1dg+QfLOxWi7Zy15oPqxdiZE25eQdugLjT0SPXgylx4ZLNFnAS4A8quyLAA0RrWoF9reXZGxX6g0GtuibUzIrJDV6yuLUDVwS9mry1CAgwuA/KrwC4CRke3CevI6mfz/jbZ1FzSuD1BoExPSMaFJnlrQQZq+nivyZwEuAPKrIi8AtABOELu/oW3cHdm1Wm4dbWNCMqNaH91Vgvsf+MHVFa3XV5BF7DLIBUB+VcQFgBYeK97u/gekRdUC4x6DtjMhmaMTpKzaz0UPsq4NXt15bNyH5y9rDKJtnRVcAORXRVoAyJh6+MR3/nG0Xbul9I1GvVlH25qQrqG7WYPY/gA92Lore0PNuEOLsHmHC4D8qggLgCBuPEgm/qNkYX0P2p5d1lnhsF2ItjchvWDOxAmB9R4MvK5Jqwlq/XG53z60wWcLFwD5VZ4XAIsWNQZk/LxVy96i7dhtyQLnk2xERkrHxObAwpTpnFLGXdg6MbB6Ltrm7cIFQH6VxwXATitWVHVnv4yXa9H2677sXfIg9FK0zQmB0fq25/6AH4w90Zq8LQS4AMiv8rQAKNfEf3+vkdFd0XYnBE76us+4r6IHZe9kL6oZ9wK59Tlo228NXaDh7UXNRnkoHasFtWQyPEKu90a0vXqlwNhTirRRmJBMCI09rJhFg6aQcX+WH1/s82bBWt024XaiZqVqnKxAx89U6AQoi/63FaaN+Mykx4XfWcnxniBCukoQJ3uW5TXgRvqH3PObB5fstgPa/pujBVc8sA81C9WiZG90/GzOYD15hEyCnxLdjrZPL6Xn+2uxfQra/oR4TxDtvmNo7E/RgxaQJP4dxvY4n84CB7H9GNou1CzjKbZvRcfP/QxEzUel5/iNvQ9tF4DOGzTNZWgfEJIfGo1t5an4Q2HBjwpOLrtO9G1ZCKxCu2HiM4UHNqFmEUe/AIfPnIk3SD/H2wIiref/mcri0X6wHwjJJ0HUHAtid6UHgxkieYr7bXpUCJBEqqb5RPT9Ux1InrYHY7e013GjBW1k8fGGwLi/wG0Ak71BFs/79tr2hBSOiQ1D/4cf1DjJQuA2/TwwYOzuPTL7HPk3/4i+b6rDuJFx06N4qQwOJw2N0bQktgf3DrN5bH9cxL4ghEDRM/StiRA/yLEJxv1anu4O1OOT3bJ1YOw70PdJZaL1Qdx4dLfiRDeu1ox9bag1LvD3CpZdq7aocJc/Id1BX2mmEyB8sOMldrhFFkTH1EzDZWlj+XtfEZZy70VBZew1tagxlGGIzKnWk70kTv5f2Z/2N7Lxn6rDzUdmaGNCyKSMjW2T9hIo547iSSVP7JemNhm28WzN2irIZD8VFrjjWmkli4BON5XqBDexMbeobb1no3FtVlRZMjavE9sSQtokHLIrZfBd7kES8EqBcb+XHw+faSnYhfVVYRA3X13mzZalkC6Yjfuslnee6RjTb9ny/71R/v/z4Nfvm4y7jmf7CQGi7YVlIB4b8ql1Etl1uiFJ9C7dP6HJKt3Zb5KnhnHzAPkz75fFwun67RJ/rVSP4+JHEhNvqtXtk4O4Mazn1FMNJw1ZVD9TawjInz2jdSQVfb0eyrgTtV4JOv8RQipp3/BHS7K6GJ4YKIoqsOz1Qd09B53vCCGb02hsmzYWMe4efKKgKKpQ0qf+uPEgdJojhEyDttkMYvc7eMKgKKoAsleFkd0PndcIITNnTmCSg8rWdISiqMy0Xgsb6T4jdDIjhMwC7YkeGvtdD5IJRVH50XlZ19cghIBId72Xq/c4RVFtauKN4eGVyuq56JxFCMmQwV33nB/E7mgebaIoanNJbjh1/rLGw9F5ihDSRQaM201bpaITDkVRHsi4P9eiZG90XiKE9JAwau7P6ncUVU5pL42wnrxOS4ujcxEhBMCOI2OBPAG8l01NKKokMu5ebaLFM/2EkJT0tEBsj+P+AIoqtM5g1z5CyKQMDo3uERr7Mw8SFUVRmcleFMbNfdD5hRCSA0Lj9pWkcT4+cVEUNVsFsbtMjwDLkJ6DzimEkHzRF9Td6sDYS9GJjKKotnSj9gWpRNH26CRCCMkzjca22k5XFgJXeJDYKIqaQmkhH+M+vLC+KkSnDUJIkRgZ2U77C6TNQTxIdhRFtXT/xK/FvtBpghBSZLgQoCgvtGHiX7LbDui0QAgpE1G0fRA3X81iQhTVWwXG3RTE9l3s1EcIwTKxR0AS0xp0YqSoQsu460Jjj5y/rDGIHvaEELIxfVpeWJLU2fBESVEFkjzt/zUt27tkbB56kBNCyLQEcbKnJK7vsLIgRXWks4LYPb3Cc/yEkLwxGLulukkpMPZmD5IpRfkv4+4RnRhGbhQ9fgkhpGP0XHJo7GHpq0x0gqUoL2Vv0MZcAyP2IejxSggh3WBO1TSfmD7hGHcvPulSFFaBsefosdrK4tF+9OAkhJCeMDDcWKTlSiUB/h2dhCmql5K4v027b1bjZAV6HBJCCI6xsW3CevK00NiT+VaAKrDGZdL/hcT5gTutWFFFDztCCPEKLWXaqjLozvMgYVNU5zLuWt0IGy5PDHp8EUJILqiZhpOnpc+km6PQSZyi2lAQuzuD2H49jJv7VCqr56LHEiGE5JTVc1t1BexxrW+n+ARPUVsqrXlxhlbFZDc+QgjJmsWj/dW4+TxJtCfpUxY+6VPllkz6xp7Z6onReBB6eBBCSDmQxYCWHg6MPZ5vBqjeSSd9d7aW5tWTLOhhQAgh5WbJ2LxWHwL7hbRhCnySoIokWWT+O9TS1sYeWBsZXYAOd0IIIVNQHbK7aI2BicZE4+gJhMqfZNK/Qved6MJSW1+jY5oQQkib9NdXPTSsu5dLMj9BEvuN6ImF8lPpzn3jTpen/DfqAhIdt4QQQrJlzuDQ6B4Tbwd+IouCteiJh4JpvUz658qE/5FqbJ/AVruEEFImxsa2GRxOGmlJ4tidKrrVg4mJ6or0mJ69KD1OWnerw2G7EB1+hBBCfEHLEkduNDTuTWFr09c1+ImLmo0CY28X//1Ufv5+LcjDs/mEEELaYt5Qc+dqbJ8rE8ondVNhYNwd6MmN2lxpEZ41QWy/pKWkq/XRXVmBjxBCSOakGwtbxw6P1E8HMgFdj58ES6K0YZS9SOs/6Fl8rRLJ5jqEEEJgpI2MZDLSJ1BZFBwdtsrCsiZBhxO9/HhiutCqu9Wt3fl8sieEEJIDgmj3HcMhu1ImtRfLRPYeWRx8LYjtb2Vi+yd8koXL3iU/rtFW0GKXj4tdDqlFyd6DsVvKiZ4QQkhhWbSoMRCYZLlOemmtAn3SNfaLgXGnpUfUYnt160kYPVG3L7mHm+T6L5afn6Wd8UQfk/s7TO7r6elRTFkYoe1PCCGEeI0eWdOFgiwOHisT6DO0JK1MrIdPLBiOksn1K+mr8vSzgz1Tfu8c+fWF8mcv0/0J8uubN9Ltk7xuv2ezP6O6XP7ev+rfJX/Pr/Xvlp+fkhZUMu5Y0YfS45O66S62z9VFzEDUfFS/GX1YpdHYFm0zQsj0/H8eZXfKkBmUtAAAAABJRU5ErkJggg==;" parent="1" vertex="1">
          <mxGeometry x="300" y="1390" width="117.13" height="117.13" as="geometry" />
        </mxCell>
        <mxCell id="CV1ANiS9sg0O7ec1Tf8R-1" value="&lt;font style=&quot;&quot;&gt;&lt;font style=&quot;font-size: 12px;&quot;&gt;build, push&lt;/font&gt;&lt;br&gt;&lt;/font&gt;" style="text;strokeColor=none;fillColor=none;align=left;verticalAlign=middle;spacingLeft=4;spacingRight=4;overflow=hidden;points=[[0,0.5],[1,0.5]];portConstraint=eastwest;rotatable=0;whiteSpace=wrap;html=1;" parent="1" vertex="1">
          <mxGeometry x="770" y="1415" width="80" height="30" as="geometry" />
        </mxCell>
      </root>
    </mxGraphModel>
  </diagram>
</mxfile>
